<svg width="240" height="240" viewBox="0 0 240 240" fill="none" xmlns="http://www.w3.org/2000/svg">
<path d="M209.479 103L220 108.696V186.412L151.144 227L138 219.369" stroke="#181819" stroke-width="2" stroke-dasharray="2.2 2.2"/>
<path d="M27.7414 153.488C25.4195 152.151 25.4195 149.981 27.7414 148.644L110.421 101.004C112.743 99.6655 116.507 99.6655 118.829 101.004L194 144.189L125.535 184.04C123.215 185.381 121.338 188.636 121.341 191.312L121.358 202.614C121.361 204.806 122.627 205.928 124.361 205.525C122.081 206.302 119.092 206.126 117.132 204.996L27.7414 153.488Z" stroke="#181819" stroke-width="2"/>
<path d="M211 173.124C211.002 174.932 209.746 177.131 208.193 178.037L125.242 226.417C122.913 227.775 121.021 226.679 121.017 223.967L121 212.512C120.997 209.801 122.881 206.501 125.211 205.143L206.756 157.583C209.085 156.225 210.976 157.321 210.98 160.033L211 173.124Z" stroke="#181819" stroke-width="2"/>
<path fill-rule="evenodd" clip-rule="evenodd" d="M120.753 205.353C119.391 205.341 118.045 205.04 117.041 204.464L41.2541 161L27.1399 169.157C25.8347 169.912 25 171.013 25 172.279C25 173.545 25.8347 174.646 27.1399 175.4L116.232 226.888C118.307 228.088 121.316 228.3 123.71 227.606L123.504 226.02C123.425 226.019 123.349 226.011 123.28 225.999L123.217 225.989L123.153 225.988C122.709 225.984 122.371 225.813 122.124 225.502C121.865 225.173 121.662 224.623 121.66 223.805L121.644 212.507C121.642 211.345 122.053 210.002 122.757 208.776C123.026 208.309 123.332 207.87 123.662 207.473C124.571 206.383 123.662 205.222 120.753 205.353ZM116.234 205.868C117.848 206.793 120.03 207.128 122.051 206.902C121.798 207.244 121.564 207.604 121.352 207.971C120.543 209.377 120.021 210.998 120.023 212.509L120.039 223.807C120.041 224.813 120.276 225.704 120.761 226.383C119.395 226.373 118.047 226.068 117.044 225.488L27.9517 174C26.9429 173.418 26.6205 172.766 26.6205 172.279C26.6205 171.792 26.9429 171.141 27.9518 170.557L41.2573 162.868L116.234 205.868Z" fill="#181819"/>
<path d="M211 152.124C211.002 153.932 209.746 156.131 208.193 157.037L125.242 205.417C122.913 206.776 121.021 205.679 121.017 202.968L121 191.513C120.997 188.801 122.881 185.502 125.211 184.143L206.756 136.583C209.085 135.225 210.976 136.321 210.98 139.033L211 152.124Z" stroke="#181819" stroke-width="2"/>
<path fill-rule="evenodd" clip-rule="evenodd" d="M188.347 160.275C187.825 161.233 186.962 161.243 186.419 160.297C185.876 159.35 185.859 157.807 186.381 156.848C186.903 155.889 187.766 155.879 188.309 156.825C188.852 157.772 188.869 159.315 188.347 160.275ZM193.055 156.237C193.597 157.182 194.461 157.173 194.983 156.213C195.505 155.255 195.488 153.711 194.945 152.764C194.403 151.819 193.539 151.828 193.017 152.787C192.495 153.746 192.512 155.29 193.055 156.237ZM199.691 152.175C200.234 153.121 201.097 153.111 201.619 152.152C202.141 151.193 202.124 149.65 201.581 148.703C201.038 147.757 200.175 147.767 199.653 148.725C199.131 149.685 199.148 151.228 199.691 152.175Z" fill="#181819"/>
<path d="M134 191L176 166" stroke="#181819" stroke-width="2" stroke-linecap="round"/>
<path d="M134 212L176 187" stroke="#181819" stroke-width="2" stroke-linecap="round"/>
<path fill-rule="evenodd" clip-rule="evenodd" d="M188.347 181.275C187.825 182.233 186.962 182.243 186.419 181.297C185.876 180.351 185.859 178.807 186.381 177.848C186.903 176.889 187.766 176.879 188.309 177.825C188.852 178.772 188.869 180.315 188.347 181.275ZM193.055 177.236C193.597 178.182 194.461 178.173 194.983 177.214C195.505 176.255 195.488 174.711 194.945 173.764C194.403 172.818 193.539 172.828 193.017 173.787C192.495 174.746 192.512 176.29 193.055 177.236ZM199.691 173.175C200.234 174.121 201.097 174.111 201.619 173.152C202.141 172.194 202.124 170.649 201.581 169.703C201.038 168.757 200.175 168.767 199.653 169.726C199.131 170.684 199.148 172.229 199.691 173.175Z" fill="#181819"/>
<path fill-rule="evenodd" clip-rule="evenodd" d="M125.314 53.1543L126 53.5493L125.185 54.9541L124.499 54.5591L125.314 53.1543ZM122.566 51.576L123.94 52.3652L123.125 53.7699L121.752 52.9808L122.566 51.576ZM119.82 49.9969L121.193 50.7869L120.379 52.1916L119.005 51.4016L119.82 49.9969ZM117.073 48.4185L118.446 49.2077L117.631 50.6125L116.258 49.8233L117.073 48.4185ZM115.012 47.2344L115.699 47.6294L114.884 49.0341L114.606 48.8736L114.249 49.0796L113.432 47.6764L114.196 47.2352L114.604 47L115.012 47.2344ZM110.376 49.4413L111.904 48.5589L112.722 49.962L111.194 50.8444L110.376 49.4413ZM31.0899 95.2242L30.9217 95.3215L31.0208 95.4918C31.0435 95.4026 31.0666 95.3134 31.0899 95.2242ZM109.341 51.1697C109.361 51.4057 109.377 51.6441 109.391 51.885L109.666 51.7269L109.341 51.1697ZM27.8657 97.0864L29.3937 96.2039L30.2114 97.6071L28.6835 98.4895L27.8657 97.0864ZM24.8097 98.8512L26.3378 97.9688L27.1555 99.372L25.6275 100.254L24.8097 98.8512ZM21.7538 100.615L23.2818 99.7329L24.0995 101.136L22.5716 102.018L21.7538 100.615ZM18.6979 102.38L20.2259 101.498L21.0436 102.901L19.5156 103.783L18.6979 102.38ZM16.4059 103.704L17.1699 103.263L17.9877 104.666L17.6296 104.873V105.308H16V104.405V103.938L16.4059 103.704ZM16 108.921V107.115H17.6296V108.921H16ZM16 112.534V110.728H17.6296V112.534H16ZM16 116.147V114.341H17.6296V116.147H16ZM16 119.76V117.953H17.6296V119.76H16ZM16 123.373V121.567H17.6296V123.373H16ZM16 126.986V125.179H17.6296V126.986H16ZM16 130.599V128.792H17.6296V130.599H16ZM16 134.212V132.405H17.6296V134.212H16ZM16 137.824V136.018H17.6296V137.824H16ZM16 141.438V139.631H17.6296V141.438H16ZM16 145.05V143.244H17.6296V145.05H16ZM16 148.663V146.857H17.6296V148.663H16ZM16 152.276V150.47H17.6296V152.276H16ZM16 155.889V154.083H17.6296V155.889H16ZM16 159.503V157.695H17.6296V159.503H16ZM16 163.115V161.309H17.6296V163.115H16ZM16 166.728V164.921H17.6296V166.728H16ZM104.406 219.062L103.566 219.544L102.753 218.138L103.594 217.657L104.406 219.062ZM16 170.341V168.535H17.6296V170.341H16ZM101.886 220.507L100.205 221.47L99.3921 220.065L101.073 219.101L101.886 220.507ZM16 173.954V172.147H17.6296V173.954H16ZM98.5251 222.434L96.8441 223.396L96.031 221.991L97.7119 221.027L98.5251 222.434ZM16 177.567V175.76H17.6296V177.567H16ZM95.164 224.36L93.483 225.323L92.6698 223.917L94.3508 222.954L95.164 224.36ZM16 181.18V179.374H17.6296V181.18H16ZM91.8029 226.286L90.962 226.767L90.5562 227L90.1496 226.768L89.382 226.328L90.1936 224.922L90.5554 225.129L90.9897 224.88L91.8029 226.286ZM16 183.89V182.986H17.6296V183.42L17.989 183.625L17.1771 185.032L16.4089 184.593L16 184.358V183.89ZM87.8453 225.45L86.3093 224.571L87.1209 223.164L88.6577 224.044L87.8453 225.45ZM84.7726 223.692L83.2367 222.814L84.0482 221.408L85.585 222.286L84.7726 223.692ZM81.7007 221.935L80.164 221.057L80.9755 219.65L82.5123 220.529L81.7007 221.935ZM78.628 220.178L77.0913 219.299L77.9037 217.893L79.4396 218.772L78.628 220.178ZM75.5554 218.421L74.0186 217.542L74.831 216.136L76.3669 217.014L75.5554 218.421ZM72.4827 216.663L70.9468 215.785L71.7583 214.378L73.2942 215.257L72.4827 216.663ZM69.41 214.906L67.8741 214.027L68.6856 212.621L70.2224 213.5L69.41 214.906ZM66.3373 213.149L64.8014 212.27L65.6129 210.864L67.1497 211.742L66.3373 213.149ZM63.2655 211.391L61.7287 210.513L62.5411 209.106L64.077 209.985L63.2655 211.391ZM60.1928 209.634L58.656 208.755L59.4684 207.349L61.0043 208.228L60.1928 209.634ZM57.1201 207.877L55.5842 206.998L56.3957 205.592L57.9316 206.47L57.1201 207.877ZM54.0474 206.119L52.5115 205.241L53.323 203.834L54.8598 204.713L54.0474 206.119ZM50.9747 204.362L49.4388 203.483L50.2503 202.077L51.7871 202.956L50.9747 204.362ZM47.902 202.605L46.3661 201.726L47.1777 200.32L48.7144 201.198L47.902 202.605ZM44.8302 200.847L43.2934 199.969L44.1058 198.563L45.6417 199.441L44.8302 200.847ZM41.7575 199.091L40.2207 198.211L41.0331 196.805L42.569 197.684L41.7575 199.091ZM38.6848 197.333L37.1485 196.455L37.9604 195.048L39.4967 195.927L38.6848 197.333ZM35.6123 195.575L34.076 194.697L34.8879 193.291L36.4242 194.169L35.6123 195.575ZM32.5398 193.819L31.0034 192.939L31.8154 191.533L33.3517 192.412L32.5398 193.819ZM29.4672 192.061L27.9309 191.183L28.7428 189.776L30.2791 190.655L29.4672 192.061ZM26.3946 190.303L24.8584 189.425L25.6703 188.019L27.2065 188.897L26.3946 190.303ZM23.3221 188.547L21.7859 187.667L22.5978 186.261L24.134 187.14L23.3221 188.547ZM20.2496 186.789L18.7133 185.911L19.5252 184.504L21.0615 185.383L20.2496 186.789Z" fill="#181819"/>
<path d="M44.8959 116.198L44.887 116.203C44.8536 116.224 44.8244 116.24 44.7894 116.261C44.7691 116.272 44.7463 116.285 44.7187 116.301C36.7063 120.967 30.0012 115.734 30 104.135C29.9987 92.5371 36.7017 79.4954 44.7146 74.8291C45.4813 74.3829 46.1935 73.4068 46.4414 72.3815C49.7349 58.7468 57.8494 45.8708 67.2233 40.4121C73.4183 36.8042 79.0516 37.0742 83.1214 40.4974C84.471 41.6326 86.6043 41.2758 88.6677 39.8773C89.0791 39.5984 89.4945 39.3368 89.9124 39.0924C99.7863 33.3432 107.998 39.8068 108 54.005C108.002 68.0392 99.9773 83.8705 90.2571 89.7827C90.188 89.8246 90.1271 89.8598 90.0563 89.9009C90.0149 89.9238 89.9701 89.9501 89.9181 89.9796L44.8959 116.198Z" stroke="#181819" stroke-width="2"/>
<path d="M207.6 68.0214L207.594 124.167C207.594 125.965 206.34 126.693 204.794 125.795L202.305 124.348V125.976L204.794 127.423C207.113 128.771 208.994 127.678 208.994 124.98L209 68.8354C209 66.1378 207.12 62.8582 204.8 61.5093L158.426 34.5511C157.527 34.0284 156.652 33.1839 155.929 32.1418L154.605 30.2338C153.882 29.1917 153.007 28.3473 152.108 27.8245L136.201 18.5775C133.881 17.2289 132 18.3228 132 21.0206V32.1062L133.401 32.8932V21.8342C133.401 20.0357 134.654 19.3064 136.2 20.2055L152.108 29.4525C152.707 29.801 153.291 30.3641 153.773 31.0587L155.096 32.9668C156.06 34.3561 157.227 35.4821 158.426 36.1791L204.8 63.1374C206.347 64.036 207.6 66.2233 207.6 68.0214Z" fill="#181819"/>
<path d="M125 33.0239C125 30.3545 126.863 29.2483 129.185 30.5384L144.824 39.2269C145.761 39.7476 146.666 39.8951 147.399 39.6474L149.206 39.0378C149.958 38.7836 150.891 38.9457 151.851 39.4974L198.746 66.4377C201.096 67.788 203.001 71.0712 203 73.7717L202.994 129.976C202.993 132.677 201.089 133.772 198.739 132.422L129.255 92.5044C126.905 91.1541 125.001 87.8717 125.001 85.1712L125 33.0239Z" stroke="#181819" stroke-width="2"/>
<path d="M186.996 114.973L186.999 114.974C188.168 115.07 189.256 114.896 190.212 114.49C191.175 114.08 192.004 113.411 192.497 112.415C192.75 111.898 192.916 111.318 192.971 110.65C192.993 110.37 192.992 110.079 192.99 109.759C192.989 109.667 192.989 109.573 192.989 109.476V104.714L192.99 104.156L192.998 104.161C193.001 103.977 193.001 103.798 192.996 103.611C192.665 103.302 192.333 102.993 192.001 102.683L191.998 102.681V102.68C191.651 102.357 191.304 102.033 190.958 101.71L186.996 114.973ZM186.996 114.973C186.862 114.835 186.729 114.696 186.594 114.553C185.435 113.309 184.353 111.888 183.43 110.396L186.996 114.973ZM187.678 98.648V98.6472C187.582 98.5579 187.496 98.4751 187.413 98.397C187.271 98.2607 187.142 98.138 187.003 98.0152C187.002 98.0152 187 98.0144 186.998 98.0144C186.99 98.0129 186.981 98.0113 186.968 98.0089C186.905 97.9985 186.841 97.9882 186.781 97.977H186.78C186.717 97.9666 186.657 97.9563 186.597 97.9467L186.593 97.9459C186.069 97.8575 185.547 97.7682 185.024 97.6798H185.023C184.499 97.5913 183.976 97.5028 183.452 97.4136C183.042 97.3451 182.633 97.2757 182.224 97.2064C181.816 97.1379 181.409 97.0685 181.001 97L181.001 101.009C181.001 101.298 181.001 101.585 181.001 101.872C181 102.446 181 103.018 181.001 103.592L187.678 98.648ZM187.678 98.648C188.225 99.158 188.772 99.668 189.318 100.178L187.678 98.648ZM187.678 98.648L189.318 100.178L187.678 98.648ZM181.31 105.735V105.736C181.729 107.285 182.496 108.885 183.43 110.396L181.31 105.735ZM181.31 105.735C181.108 104.993 181.002 104.261 181.001 103.592L181.31 105.735ZM189.318 100.178L189.318 100.179L189.318 100.178ZM189.318 100.178L189.318 100.179L189.318 100.178ZM189.318 100.179C189.864 100.689 190.411 101.2 190.958 101.71L189.318 100.179Z" stroke="#181819" stroke-width="1.4"/>
</svg>
