<svg width="240" height="240" viewBox="0 0 240 240" fill="none" xmlns="http://www.w3.org/2000/svg">
<path d="M70.205 19.2978C70.205 17.7427 69.117 17.1121 67.7747 17.8896L6.14257 53.5908C4.80052 54.3686 3.71272 56.2591 3.71289 57.8146L3.72052 109.794C3.72075 111.349 4.80882 111.98 6.15087 111.202L67.7831 75.5004C69.1254 74.7232 70.2129 72.8321 70.2129 71.2772L70.205 19.2978Z" stroke="black" stroke-width="2"/>
<path d="M116.282 131.116L136.487 119.453C137.417 118.917 138.171 119.352 138.171 120.426L138.173 137.035C138.173 138.108 137.419 139.414 136.489 139.951L116.284 151.613C115.354 152.15 114.6 151.715 114.6 150.641L114.598 134.032C114.598 132.958 115.352 131.653 116.282 131.116Z" stroke="black" stroke-dasharray="2.2 2.2"/>
<path d="M88.2713 147.373L108.476 135.71C109.406 135.173 110.16 135.609 110.16 136.682L110.162 154.068C110.162 155.141 109.409 156.447 108.479 156.984L88.2736 168.646C87.3437 169.183 86.5897 168.748 86.5896 167.674L86.5877 150.289C86.5876 149.215 87.3414 147.909 88.2713 147.373Z" stroke="black" stroke-dasharray="2.2 2.2"/>
<path d="M88.4184 126.45L136.857 98.4904C137.787 97.9537 138.541 98.389 138.541 99.4627L138.542 109.071C138.542 110.145 137.789 111.451 136.859 111.987L88.4199 139.947C87.4899 140.483 86.736 140.048 86.7359 138.974L86.7349 129.366C86.7347 128.292 87.4885 126.986 88.4184 126.45Z" stroke="black" stroke-dasharray="2.2 2.2"/>
<path d="M222.639 174.226C223.218 174.573 223.738 175.151 222.581 176.077C220.73 177.581 218.705 178.217 218.589 178.217L218.474 178.275L223.044 180.937C223.738 181.342 223.738 181.978 223.044 182.325C222.697 182.499 222.292 182.614 221.829 182.614L221.308 182.556C221.482 182.904 221.366 183.309 220.903 183.54C220.556 183.714 220.151 183.829 219.688 183.829H219.11C219.284 184.176 219.168 184.581 218.705 184.813C218.358 184.986 217.895 185.102 217.49 185.102L216.969 185.044C217.143 185.391 217.027 185.796 216.564 186.028C216.217 186.201 215.754 186.317 215.35 186.317C214.887 186.317 214.482 186.201 214.135 186.028L204.589 180.532L212.11 176.135C212.341 176.193 216.333 177.35 221.598 174.052C221.771 173.936 222.118 173.879 222.35 173.994C222.408 174.11 222.523 174.168 222.639 174.226Z" stroke="black"/>
<path d="M210.43 175.267C210.719 175.44 210.719 175.672 210.43 175.845L203.892 179.664C203.603 179.837 203.14 179.837 202.909 179.664L199.958 177.986C199.669 177.812 199.669 177.581 199.958 177.407L206.496 173.589C206.785 173.416 207.248 173.416 207.479 173.589L210.43 175.267Z" stroke="black"/>
<path d="M27.0905 65.7425C27.264 65.6846 27.3797 65.6268 27.4954 65.6846C27.6111 65.7425 27.669 65.8582 27.669 66.0317V74.2468C27.669 74.4204 27.6111 74.594 27.4954 74.7675C27.3797 74.9411 27.264 75.0568 27.1483 75.1725C26.9747 75.2303 26.859 75.2882 26.8012 75.2303C26.6855 75.1725 26.6276 75.0568 26.6276 74.8832V71.3542L22.2308 73.8997V77.4288C22.2308 77.6023 22.173 77.7759 22.0572 77.9494C21.9415 78.123 21.8258 78.2387 21.7101 78.3544C21.5366 78.4123 21.4209 78.4701 21.363 78.4123C21.2473 78.3544 21.1895 78.2387 21.1895 78.0651V69.85C21.1895 69.6765 21.2473 69.5029 21.363 69.3293C21.4787 69.1558 21.5944 69.0401 21.7101 68.9244C21.8837 68.8665 21.9994 68.8087 22.1151 68.8665C22.2308 68.9244 22.2887 69.0401 22.2887 69.2136V72.7427L26.6855 70.1971V66.6681C26.6855 66.4946 26.7433 66.321 26.859 66.1474C26.8012 65.9739 26.9169 65.8003 27.0905 65.7425Z" fill="black"/>
<path d="M35.1319 61.1721C35.2476 61.1143 35.3633 61.0564 35.479 61.1143C35.5947 61.1721 35.6526 61.2879 35.6526 61.4614C35.6526 61.635 35.5947 61.8085 35.5369 61.9242C35.4212 62.0978 35.3055 62.2135 35.1898 62.2714L32.8178 63.602V71.2386C32.8178 71.4121 32.7599 71.5857 32.6442 71.7592C32.5285 71.9328 32.4128 72.0485 32.2393 72.1642C32.0657 72.2221 31.95 72.2799 31.8921 72.2221C31.7764 72.1642 31.7186 72.0485 31.7186 71.8749V64.2384L29.3466 65.6268C29.2309 65.6847 29.1152 65.7425 28.9995 65.6847C28.8838 65.6268 28.8838 65.5111 28.8838 65.3376C28.8838 65.164 28.9416 64.9904 28.9995 64.8747C29.1152 64.7012 29.2309 64.5855 29.3466 64.5276L35.1319 61.1721Z" fill="black"/>
<path d="M45.0825 55.3288C45.3139 55.2131 45.4875 55.2131 45.6032 55.2709C45.7768 55.3866 45.8346 55.5023 45.8346 55.7337V63.6596C45.8346 63.8331 45.7768 64.0067 45.6611 64.1803C45.5454 64.3538 45.4297 64.4695 45.3139 64.5852C45.1404 64.6431 45.0247 64.7009 44.909 64.6431C44.7933 64.5852 44.7354 64.4695 44.7354 64.296V56.7172L42.0742 65.858C42.0163 66.0894 41.9006 66.263 41.7849 66.4365C41.6692 66.6101 41.4957 66.7258 41.3221 66.8415C41.1485 66.9572 41.0328 66.9572 40.8593 66.9572C40.7436 66.9572 40.6279 66.8415 40.57 66.7258L37.8509 60.6512V68.23C37.8509 68.4035 37.7931 68.5771 37.6774 68.7506C37.5617 68.9242 37.446 69.0399 37.3302 69.1556C37.1567 69.2135 37.041 69.2713 36.9831 69.2135C36.8674 69.1556 36.8096 69.0399 36.8096 68.8663V60.9405C36.8096 60.7091 36.8674 60.4777 37.041 60.1884C37.2145 59.957 37.3881 59.7256 37.5617 59.6099L37.9666 59.3785C38.1402 59.2628 38.2559 59.2628 38.3716 59.3206C38.4873 59.3785 38.603 59.4363 38.6609 59.552L41.38 65.5687L43.9833 56.5437C44.0412 56.3701 44.1569 56.1387 44.2726 55.9651C44.3883 55.7916 44.5619 55.6759 44.6776 55.5602L45.0825 55.3288Z" fill="black"/>
<path d="M48.6132 53.3035C48.7868 53.2456 48.9025 53.1878 49.0182 53.2456C49.1339 53.3035 49.1917 53.4192 49.1917 53.5928V61.1136L52.9522 58.9152C53.1257 58.8574 53.2414 58.7995 53.3572 58.8574C53.4729 58.9152 53.5307 59.0309 53.5307 59.2045C53.5307 59.3781 53.4729 59.5516 53.3572 59.7252C53.2414 59.8987 53.1257 60.0144 53.01 60.1301L48.9025 62.5021C48.7289 62.6178 48.5554 62.6178 48.3818 62.56C48.2082 62.5021 48.1504 62.3286 48.1504 62.0971V54.1713C48.1504 53.9977 48.2082 53.8242 48.324 53.6506C48.324 53.5349 48.4397 53.3614 48.6132 53.3035Z" fill="black"/>
<path d="M134.898 177.579C136.98 176.364 138.542 173.587 138.542 171.215C138.542 168.785 136.575 167.397 134.261 168.727C132.178 169.942 130.616 172.777 130.616 174.975C130.616 175.033 130.616 175.091 130.616 175.149C130.559 177.752 132.641 178.909 134.898 177.579ZM134.84 169.826C136.344 169.016 137.212 169.711 137.212 171.041C137.212 171.099 137.212 171.157 137.212 171.215C137.212 173.124 135.823 175.496 134.145 176.479C130.674 178.62 131.195 171.909 134.84 169.826Z" fill="black"/>
<path d="M181.186 70.6489C181.476 70.8224 181.88 70.7067 182.054 70.4175L186.856 62.0866C187.029 61.7974 186.914 61.3924 186.624 61.2188L181.765 58.4419C181.476 58.2683 181.071 58.384 180.897 58.6733C180.723 58.9626 180.839 59.3675 181.128 59.5411L185.41 61.9709L180.897 69.7811C180.781 70.0703 180.897 70.4753 181.186 70.6489Z" fill="black"/>
<path d="M171.815 64.1694C171.525 63.9959 171.12 64.1116 170.947 64.4008L166.145 72.7317C165.971 73.0209 166.087 73.4259 166.376 73.5995L171.236 76.3764C171.525 76.55 171.93 76.4343 172.104 76.145C172.277 75.8557 172.162 75.4508 171.872 75.2772L167.591 72.8474L172.104 65.0372C172.22 64.748 172.162 64.343 171.815 64.1694Z" fill="black"/>
<path d="M174.359 77.418L179.855 57.748C179.971 57.4009 179.74 57.0538 179.392 56.9959C179.045 56.8802 178.698 57.1116 178.64 57.4587L173.144 77.1287C173.029 77.4759 173.26 77.823 173.607 77.8808C173.954 77.9387 174.301 77.7651 174.359 77.418Z" fill="black"/>
<path d="M14.4773 75.519C14.0145 76.1554 13.2624 76.7917 12.2789 77.5438C9.96476 79.3951 10.5433 82.982 12.9153 81.9985C13.4938 81.7671 15.1137 81.1886 15.2872 81.7671C15.5186 82.2878 15.3451 83.6184 15.4608 91.7757C15.4608 96.1146 17.8906 96.5774 21.5932 94.4369L22.056 94.2055C22.3453 94.0319 22.461 93.627 22.2874 93.3377C22.1139 93.0484 21.7089 92.9327 21.4196 93.1063C21.1882 93.222 18.9898 94.6683 17.6592 94.379C16.9071 94.2055 16.7914 92.7013 16.7914 91.7757V82.8663C16.7914 81.4778 16.56 80.4943 15.1715 80.2629C14.593 80.1472 13.7831 80.3208 12.5681 80.7836C12.3946 80.8415 12.2789 80.8415 12.2789 80.8993C12.0475 80.6679 12.0475 79.3951 13.1467 78.5273C14.4773 77.5438 16.2129 75.924 16.56 74.4198C16.9071 73.2627 16.6757 72.5106 16.7336 63.7748C16.7336 62.0393 17.1385 60.5351 17.9485 59.378C19.4526 57.2953 21.7089 56.1961 21.9982 56.0225C22.2874 55.849 22.4031 55.444 22.2296 55.1548C22.056 54.8655 21.6511 54.7498 21.3618 54.9233C21.0725 55.0969 18.5848 56.3118 16.9071 58.6259C15.9236 59.9565 15.4608 61.6921 15.4608 63.717C15.4608 72.742 15.5765 73.147 15.3451 74.0727C15.1715 74.4776 14.9401 74.9405 14.4773 75.519Z" fill="black"/>
<path d="M61.6272 54.0556C63.3628 52.725 63.4207 50.4109 62.6107 49.7745C61.6272 48.8489 60.1809 50.2373 59.0238 50.0638C58.2717 49.9481 58.4453 50.2952 58.4453 39.8238C58.4453 35.5427 56.0733 35.022 52.3129 37.2204L51.8501 37.4519C51.5608 37.6254 51.4451 38.0304 51.6187 38.3196C51.7922 38.6089 52.1972 38.7246 52.4864 38.5511C52.7179 38.4354 54.9741 36.9312 56.2469 37.2783C57.5197 37.5676 57.0568 41.0966 57.1725 48.7332C57.1725 49.4853 57.2304 50.0059 57.4039 50.2952C57.5775 50.8737 58.0403 51.2208 58.8503 51.3366C59.4867 51.4523 60.3544 51.2787 61.4537 50.8159C61.6851 50.758 61.8008 50.758 61.8008 50.758C61.8008 50.758 61.8586 50.8737 61.8586 51.2208C61.8586 53.0721 60.0073 53.3614 58.4453 55.3863C56.8254 57.5268 57.2882 57.5268 57.2882 67.8825C57.2882 71.4694 55.5527 73.6099 52.4864 75.4034L52.0236 75.6348C51.4451 75.9819 51.6765 76.7918 52.3129 76.7918C52.6022 76.7918 52.7179 76.6183 53.065 76.4447C57.1147 74.1306 58.5032 71.3537 58.5032 67.8246C58.5032 59.1467 58.3874 58.4525 58.6189 57.469C58.966 56.1962 60.5859 54.8077 61.6272 54.0556Z" fill="black"/>
<path d="M57.6444 113.451V147.201V217.701C57.6444 222.576 62.6713 223.598 66.8944 221.201C108.728 197.451 193.595 149.001 198.395 145.201C203.195 141.401 203.728 136.617 203.395 134.701C203.561 101.284 203.795 33.0005 203.395 27.2005C202.995 21.4005 197.895 23.1172 195.395 24.7005C155.728 47.5339 74.4944 94.4005 66.8944 99.2005C59.2944 104.001 57.5611 110.701 57.6444 113.451Z" stroke="black" stroke-width="2"/>
<path d="M159.642 65.2676V73.0634V89.3479C159.642 90.4739 160.803 90.7101 161.779 90.1563C171.442 84.6704 191.045 73.4792 192.153 72.6014C193.262 71.7237 193.385 70.6188 193.308 70.1761C193.347 62.4573 193.401 46.6849 193.308 45.3451C193.216 44.0054 192.038 44.402 191.46 44.7677C182.298 50.0418 163.534 60.8673 161.779 61.9761C160.023 63.0848 159.623 64.6324 159.642 65.2676Z" stroke="black"/>
<path d="M57.6152 208.723L203.615 124.223" stroke="black"/>
<path d="M137.924 217.144L121.924 208.394C119.549 206.581 118.549 202.956 118.549 202.956C118.549 202.956 116.61 196.324 117.609 192.512L151.174 173.199C151.174 173.199 150.197 181.443 151.174 184.519C152.15 187.594 156.174 189.644 156.174 189.644L171.174 198.394L137.924 217.144Z" stroke="black" stroke-width="2"/>
<path d="M39.5117 92.2441V146.192L57.8594 136.387" stroke="black" stroke-width="2" stroke-dasharray="2.2 2.2"/>
<path d="M235.288 180.012C235.288 183.072 232.957 186.073 228.676 188.367C224.437 190.639 218.512 192.074 211.913 192.074C205.314 192.074 199.389 190.639 195.15 188.367C190.869 186.073 188.538 183.072 188.538 180.012C188.538 176.951 190.869 173.951 195.15 171.657C199.389 169.385 205.314 167.949 211.913 167.949C218.512 167.949 224.437 169.385 228.676 171.657C232.957 173.951 235.288 176.951 235.288 180.012Z" stroke="black" stroke-width="2"/>
</svg>
