<svg width="240" height="240" viewBox="0 0 240 240" fill="none" xmlns="http://www.w3.org/2000/svg">
<path d="M171 133V146" stroke="#181819" stroke-width="2" stroke-dasharray="2.2 2.2"/>
<path d="M38 118L30 123" stroke="#181819" stroke-width="2"/>
<path d="M50 130H48V144H50V130Z" fill="#181819"/>
<path d="M20 86H19V101H20V86Z" fill="#181819"/>
<path d="M58 80.3326C58 79.1116 57.1599 78.6452 56.1247 79.29L39.8748 89.4174C38.8393 90.0629 38 91.5757 38 92.7967V134.668C38 135.889 38.8396 136.355 39.8752 135.71L56.1247 125.582C57.1607 124.937 58 123.425 58 122.204V80.3326Z" stroke="#181819" stroke-width="2"/>
<path d="M30 97.3258C30 96.1108 29.1604 95.6469 28.1248 96.2888L11.8748 106.361C10.8393 107.003 10 108.508 10 109.721V150.674C10 151.889 10.8396 152.353 11.8752 151.711L28.1252 141.639C29.1607 140.997 30 139.492 30 138.278V97.3258Z" stroke="#181819" stroke-width="2"/>
<path d="M12.9853 61.9784L54.2041 38.1871C55.9618 37.1726 57.3869 37.9953 57.3871 40.0248L57.3895 60.6034C57.3898 62.6329 55.965 65.1006 54.2073 66.1151L12.9886 89.9064C11.2309 90.921 9.80576 90.0982 9.80552 88.0687L9.80315 67.4901C9.80291 65.4606 11.2276 62.993 12.9853 61.9784Z" stroke="#181819" stroke-width="2"/>
<path d="M12.9883 164.871L54.207 141.08C55.9647 140.065 57.3898 140.888 57.3901 142.917L57.3924 163.496C57.3927 165.525 55.968 167.993 54.2102 169.008L12.9915 192.799C11.2338 193.814 9.80869 192.991 9.80846 190.961L9.80608 170.383C9.80585 168.353 11.2306 165.886 12.9883 164.871Z" stroke="#181819" stroke-width="2"/>
<path d="M146.759 131.705L187.972 155.506C189.73 156.521 189.73 158.167 187.972 159.182L84.6042 218.878C82.8467 219.893 79.9973 219.893 78.2398 218.878L37.0266 195.076C35.2691 194.062 35.2691 192.416 37.0266 191.401L140.394 131.705C142.152 130.69 145.001 130.69 146.759 131.705Z" stroke="#181819" stroke-width="2"/>
<path d="M62.9257 203.537C64.338 204.244 66.867 204.128 68.562 203.281C70.257 202.434 70.4867 201.169 69.0743 200.463C67.662 199.757 65.133 199.871 63.438 200.719C61.743 201.567 61.5133 202.831 62.9257 203.537Z" fill="#181819"/>
<path d="M151 15.2612C150.999 13.2417 152.424 12.4228 154.182 13.4322L194.816 36.773C196.573 37.782 197.997 40.2359 197.997 42.2544L198 63.7387C198 65.7579 196.576 66.5774 194.818 65.5678L154.183 42.227C152.427 41.218 151.002 38.7641 151.002 36.7456L151 15.2612Z" stroke="#181819" stroke-width="2"/>
<path d="M176.703 36.4984C176.861 36.2109 176.747 35.6439 176.448 35.2321C176.149 34.8202 175.778 34.7194 175.621 35.0069L171.501 42.5131C171.343 42.8006 171.458 43.3675 171.757 43.7794C172.056 44.1912 172.426 44.292 172.584 44.0045L176.703 36.4984Z" fill="#181819"/>
<path d="M169.108 31.0749C169.312 30.8665 169.643 31.1077 169.847 31.6137C170.051 32.1196 170.051 32.6986 169.847 32.907L166.892 35.9251C166.688 36.1335 166.357 35.8923 166.153 35.3864C165.949 34.8804 165.949 34.3014 166.153 34.093L169.108 31.0749Z" fill="#181819"/>
<path d="M166.153 35.3227C165.949 34.8335 165.949 34.2739 166.153 34.0724C166.357 33.871 166.688 34.1042 166.892 34.5933L169.847 41.6774C170.051 42.1664 170.051 42.7262 169.847 42.9276C169.643 43.129 169.312 42.8958 169.108 42.4068L166.153 35.3227Z" fill="#181819"/>
<path d="M179.115 36.5932C178.86 36.1042 178.447 35.871 178.192 36.0724C177.936 36.2738 177.936 36.8336 178.192 37.3226L181.885 44.4067C182.14 44.8958 182.553 45.129 182.809 44.9276C183.064 44.7261 183.064 44.1665 182.809 43.6773L179.115 36.5932Z" fill="#181819"/>
<path d="M182.809 44.907C183.064 44.6986 183.064 44.1196 182.809 43.6136C182.554 43.1077 182.14 42.8665 181.886 43.0749L178.191 46.0931C177.936 46.3015 177.936 46.8802 178.191 47.3861C178.446 47.8927 178.86 48.1332 179.114 47.9252L182.809 44.907Z" fill="#181819"/>
<path d="M151 55.261C150.999 53.2418 152.424 52.423 154.182 53.4319L194.816 76.7727C196.573 77.7815 197.997 80.2356 197.997 82.254L198 103.739C198 105.758 196.576 106.577 194.818 105.568L154.183 82.227C152.427 81.2182 151.002 78.764 151.002 76.7456L151 55.261Z" stroke="#181819" stroke-width="2"/>
<path d="M176.703 76.1834C176.861 75.8959 176.747 75.329 176.448 74.9171C176.149 74.5053 175.778 74.4045 175.621 74.692L171.501 82.1981C171.343 82.4856 171.458 83.0526 171.757 83.4644C172.056 83.8763 172.426 83.9771 172.584 83.6896L176.703 76.1834Z" fill="#181819"/>
<path d="M169.108 71.0746C169.312 70.8667 169.643 71.108 169.847 71.6138C170.051 72.1196 170.051 72.6984 169.847 72.9071L166.892 75.9249C166.688 76.1336 166.357 75.8923 166.153 75.3865C165.949 74.8799 165.949 74.3012 166.153 74.0933L169.108 71.0746Z" fill="#181819"/>
<path d="M166.153 75.3228C165.949 74.833 165.949 74.2736 166.153 74.0726C166.357 73.8708 166.688 74.1041 166.892 74.5931L169.847 81.6772C170.051 82.1662 170.051 82.7264 169.847 82.9274C169.643 83.1292 169.312 82.8959 169.108 82.4069L166.153 75.3228Z" fill="#181819"/>
<path d="M179.115 76.593C178.86 76.1041 178.447 75.8709 178.192 76.0726C177.936 76.2736 177.936 76.8338 178.192 77.3227L181.885 84.4066C182.14 84.8956 182.553 85.1288 182.809 84.9278C183.064 84.7261 183.064 84.1667 182.809 83.6777L179.115 76.593Z" fill="#181819"/>
<path d="M182.809 84.9075C183.064 84.6988 183.064 84.1201 182.809 83.6142C182.554 83.1077 182.14 82.8664 181.886 83.0751L178.191 86.0929C177.936 86.3015 177.936 86.8803 178.191 87.3861C178.446 87.8927 178.86 88.1332 179.114 87.9252L182.809 84.9075Z" fill="#181819"/>
<path d="M151 96.261C150.999 94.2418 152.424 93.423 154.182 94.4319L194.816 117.773C196.573 118.782 197.997 121.236 197.997 123.254L198 144.739C198 146.758 196.576 147.577 194.818 146.568L154.183 123.227C152.427 122.218 151.002 119.764 151.002 117.746L151 96.261Z" stroke="#181819" stroke-width="2"/>
<path d="M176.703 117.34C176.861 117.053 176.747 116.486 176.448 116.074C176.149 115.662 175.778 115.561 175.621 115.849L171.501 123.355C171.343 123.642 171.458 124.209 171.757 124.621C172.056 125.033 172.426 125.134 172.584 124.846L176.703 117.34Z" fill="#181819"/>
<path d="M169.108 112.075C169.312 111.867 169.643 112.108 169.847 112.614C170.051 113.12 170.051 113.698 169.847 113.907L166.892 116.925C166.688 117.134 166.357 116.892 166.153 116.387C165.949 115.88 165.949 115.301 166.153 115.093L169.108 112.075Z" fill="#181819"/>
<path d="M166.153 116.323C165.949 115.833 165.949 115.274 166.153 115.073C166.357 114.871 166.688 115.104 166.892 115.593L169.847 122.677C170.051 123.166 170.051 123.726 169.847 123.927C169.643 124.129 169.312 123.896 169.108 123.407L166.153 116.323Z" fill="#181819"/>
<path d="M179.115 117.593C178.86 117.104 178.447 116.871 178.192 117.073C177.936 117.274 177.936 117.834 178.192 118.323L181.885 125.407C182.14 125.896 182.553 126.129 182.809 125.928C183.064 125.726 183.064 125.167 182.809 124.678L179.115 117.593Z" fill="#181819"/>
<path d="M182.809 125.907C183.064 125.699 183.064 125.12 182.809 124.614C182.554 124.108 182.14 123.866 181.886 124.075L178.191 127.093C177.936 127.302 177.936 127.88 178.191 128.386C178.446 128.893 178.86 129.133 179.114 128.925L182.809 125.907Z" fill="#181819"/>
<path d="M101 208.6L127.454 224L216 173.033V102.633L197.262 92" stroke="#181819" stroke-width="2" stroke-dasharray="2.2 2.2"/>
<path d="M165 172.149L205.114 195L230 180.626V70.4278L198.057 52" stroke="#181819" stroke-width="2" stroke-dasharray="2.2 2.2"/>
<path d="M57 154L120.035 117.526V91L151 109.053" stroke="#181819" stroke-width="2" stroke-dasharray="2.2 2.2"/>
<path d="M57 113L128.425 72.2327V12L151 25.2218" stroke="#181819" stroke-width="2" stroke-dasharray="2.2 2.2"/>
<path d="M151 65L120.244 47.2267V13L58 48.6776" stroke="#181819" stroke-width="2" stroke-dasharray="2.2 2.2"/>
</svg>
