<svg width="242" height="241" viewBox="0 0 242 241" fill="none" xmlns="http://www.w3.org/2000/svg">
<path d="M56.9123 12.0662C56.9123 10.7585 55.9974 10.2283 54.8687 10.882L3.04308 40.9027C1.91457 41.5567 0.999858 43.1464 1 44.4544L1.00642 88.1631C1.00661 89.4706 1.92155 90.001 3.05007 89.347L54.8758 59.3262C56.0045 58.6727 56.9189 57.0825 56.9189 55.775L56.9123 12.0662Z" stroke="black" stroke-width="2"/>
<path d="M22.6041 52.287C22.2005 52.7914 21.6961 52.9427 21.4439 53.4976C21.2422 53.9515 21.1917 54.5568 21.5953 54.9603C22.0492 55.3639 22.5032 55.0108 22.9067 54.9099C22.9067 55.0612 22.9067 57.0284 22.9067 58.1381C22.9067 59.7522 23.8651 60.307 25.5296 59.3487L25.6809 59.2478C25.9332 59.0965 26.034 58.7434 25.8827 58.4912C25.7314 58.239 25.3783 58.1381 25.1261 58.2894L24.9748 58.3903C24.3695 58.7434 24.0668 58.7434 24.1173 58.7434C24.1173 58.7434 24.0164 58.6425 24.0164 58.1381C23.966 55.3134 24.0668 54.7081 23.9155 54.3551C23.7642 53.9515 23.3102 53.6489 22.5032 53.8506C22.705 53.6489 23.058 53.4976 23.512 52.8923C24.3191 51.8835 23.8651 51.5304 24.0164 48.3022C24.0164 47.3942 24.3191 46.6881 25.5296 45.9819L25.6809 45.881C25.9332 45.7297 26.034 45.3766 25.8827 45.1244C25.7314 44.8722 25.3783 44.7713 25.1261 44.9227L24.9748 45.0235C23.6633 45.7801 22.9067 46.789 22.9067 48.3022C22.8563 51.9843 22.9572 51.833 22.6041 52.287Z" fill="#2F2F2F"/>
<path d="M35.0119 42.0475C35.0119 40.2821 33.9527 39.929 32.389 40.837L32.2377 40.9378C31.9855 41.0892 31.8846 41.4422 32.0359 41.6944C32.1873 41.9467 32.5403 42.0475 32.7926 41.8962L32.9439 41.7953C33.5996 41.3918 33.8014 41.4422 33.8014 41.4422C33.8014 41.4422 33.9022 41.5431 33.9022 42.0475V45.1749C33.9022 45.4775 33.9022 45.6793 34.0031 45.8306C34.104 46.2341 34.6084 46.5872 35.4155 46.335C35.365 46.3854 34.7597 46.789 34.4067 47.2934C34.2049 47.596 34.0536 47.7978 34.0031 48.05C33.8518 48.5039 33.9527 49.0588 33.9527 51.8835C33.9527 52.8418 33.5996 53.548 32.4395 54.2037L32.2881 54.3046C32.0359 54.4559 31.9351 54.809 32.0864 55.0612C32.1873 55.2125 32.389 55.3639 32.5908 55.3639C32.7926 55.3639 32.7926 55.3134 33.0448 55.2125C34.558 54.355 35.1128 53.2958 35.1128 51.9339C35.1128 48.2517 34.9615 48.5544 35.365 48.05C35.819 47.4447 36.7269 47.2429 36.7269 46.1332C36.7269 45.4775 36.273 45.0235 35.5163 45.2757C35.3146 45.3766 35.1633 45.3766 35.1128 45.4271C35.0624 45.074 35.0119 41.8458 35.0119 42.0475Z" fill="#2F2F2F"/>
<path d="M22.7044 68.0754C22.553 67.8232 22.2 67.7223 21.9477 67.8736L18.6187 69.7904C17.6603 70.3452 17.1054 69.9417 17.1054 68.9329L17.055 45.6797C17.055 44.4187 17.9629 42.8046 19.0726 42.1489L39.2993 30.4467C40.2073 29.9423 40.8125 30.2449 40.8125 31.3042V37.4579C40.8125 37.7606 41.0647 38.0128 41.3674 38.0128C41.67 38.0128 41.9222 37.7606 41.9222 37.4579V31.3042C41.9222 29.3874 40.409 28.5299 38.7949 29.4883L18.5178 41.1905C17.055 42.048 15.9453 44.0152 15.9453 45.6797L15.9958 68.9329C15.9958 70.7992 17.4585 71.7071 19.1231 70.7487L22.4522 68.832C22.7548 68.6807 22.8557 68.3276 22.7044 68.0754Z" fill="#2F2F2F"/>
<path d="M26.0347 66.7639L39.4015 59.0465C40.8643 58.189 41.974 56.2218 41.974 54.5573L41.9235 42.048C41.9235 41.7454 41.6713 41.4932 41.3687 41.4932C41.066 41.4932 40.8138 41.7454 40.8138 42.048L40.8643 54.5573C40.8643 55.8183 39.9563 57.4324 38.8467 58.0881L25.4799 65.8055C25.2277 65.9569 25.1268 66.31 25.2781 66.5622C25.4295 66.8144 25.7321 66.9152 26.0347 66.7639Z" fill="#2F2F2F"/>
<path d="M31.7236 72.1348V147.399L52.2236 136.399" stroke="black" stroke-width="2" stroke-dasharray="2 2"/>
<path d="M52.2265 91.2767V125.027V195.527C52.2265 200.402 57.2534 201.424 61.4765 199.027C103.31 175.277 188.177 126.827 192.977 123.027C197.777 119.227 198.31 114.444 197.977 112.527C198.143 79.1101 198.377 10.8267 197.977 5.02669C197.577 -0.77331 192.477 0.943357 189.977 2.52669C150.31 25.36 69.0765 72.2267 61.4765 77.0267C53.8765 81.8267 52.1431 88.5267 52.2265 91.2767Z" stroke="black" stroke-width="2"/>
<path d="M66.5794 86.7083C64.7636 87.7676 63.3008 90.2392 63.3008 92.3072C63.3512 94.5771 65.0158 95.4346 66.8821 94.3249C68.6979 93.2656 70.1607 90.8445 70.1607 88.726C70.1103 86.4561 68.3953 85.5986 66.5794 86.7083ZM64.4105 92.3072C64.4105 90.6427 65.621 88.4737 67.1343 87.6163C68.244 87.011 68.9501 87.2632 69.051 88.6755C69.051 92.3072 64.4105 95.6868 64.4105 92.3072Z" fill="black"/>
<path d="M75.6585 81.4118C73.8427 82.471 72.3799 84.9426 72.3799 87.0107C72.4303 89.2805 74.0949 90.138 75.9612 89.0787C77.777 88.0195 79.2398 85.5479 79.2398 83.4798C79.1894 81.4118 77.777 80.2516 75.6585 81.4118ZM73.4896 87.0611C73.4896 83.5807 78.1301 80.0499 78.1301 83.4798C78.1301 86.8089 73.6913 90.5415 73.4896 87.0611Z" fill="black"/>
<path d="M86.3019 75.7119C85.7975 75.7119 85.2931 75.8632 84.7383 76.1659C82.9224 77.2251 81.4596 79.6967 81.5101 81.7648C81.5101 84.0346 83.225 84.8417 85.0913 83.7824C88.6726 81.7648 89.5806 75.7119 86.3019 75.7119ZM82.6197 81.8152C82.5693 78.2844 87.2098 74.804 87.2098 78.2339C87.2098 81.7648 82.6197 85.1947 82.6197 81.8152Z" fill="black"/>
<path d="M52.9727 109.635L197.533 24.8994" stroke="black" stroke-width="2"/>
<path d="M77.7832 139.458H76.7832V154.458H77.7832V139.458Z" fill="#181819"/>
<path d="M115.783 133.79C115.783 132.569 114.943 132.103 113.908 132.747L97.658 142.875C96.6225 143.52 95.7832 145.033 95.7832 146.254V166.125C95.7832 167.346 96.6228 167.813 97.6584 167.167L113.908 157.04C114.944 156.395 115.783 154.882 115.783 153.661V133.79Z" stroke="#181819" stroke-width="2"/>
<path d="M87.7832 150.783C87.7832 149.568 86.9436 149.104 85.908 149.746L69.658 159.819C68.6225 160.461 67.7832 161.965 67.7832 163.179V181.132C67.7832 182.346 68.6228 182.811 69.6584 182.169L85.9084 172.097C86.9439 171.455 87.7832 169.95 87.7832 168.736V150.783Z" stroke="#181819" stroke-width="2"/>
<path d="M70.7686 115.436L111.987 91.6446C113.745 90.6301 115.17 91.4529 115.17 93.4824L115.173 114.061C115.173 116.09 113.748 118.558 111.991 119.573L70.7718 143.364C69.0141 144.378 67.589 143.556 67.5887 141.526L67.5863 120.948C67.5861 118.918 69.0108 116.45 70.7686 115.436Z" stroke="#181819" stroke-width="2"/>
<path d="M197.954 152.36L239.167 176.161C240.925 177.176 240.925 178.821 239.167 179.836L135.8 239.532C134.042 240.547 131.193 240.547 129.435 239.532L88.2219 215.731C86.4644 214.716 86.4644 213.071 88.2219 212.056L191.59 152.36C193.347 151.345 196.197 151.345 197.954 152.36Z" stroke="#181819" stroke-width="2"/>
<path d="M114.121 224.192C115.533 224.898 118.062 224.783 119.757 223.935C121.452 223.088 121.682 221.824 120.27 221.118C118.857 220.411 116.328 220.526 114.633 221.374C112.938 222.221 112.709 223.486 114.121 224.192Z" fill="#181819"/>
<path d="M121.945 163.87V174.87L138.945 182.87" stroke="black" stroke-width="2" stroke-dasharray="2 2"/>
</svg>
