<svg width="240" height="240" viewBox="0 0 240 240" fill="none" xmlns="http://www.w3.org/2000/svg">
<path d="M141.314 132.574L206.839 170.371C215.054 175.109 215.054 182.792 206.839 187.531L144.576 223.446C136.361 228.185 123.042 228.185 114.827 223.446L34.1612 176.915C25.9463 172.177 25.9463 164.494 34.1612 159.756L96.4244 123.84C96.943 123.541 97.4814 123.261 98.0376 123" stroke="#181819" stroke-width="2"/>
<path d="M141.25 140.482C145.253 141.86 149.027 143.549 152.466 145.552L168.449 154.855C190.517 167.699 190.517 188.523 168.449 201.367C146.382 214.211 110.602 214.211 88.534 201.367L72.551 192.064C50.483 179.22 50.483 158.396 72.551 145.552C79.8883 141.282 88.7408 138.431 98.1012 137" stroke="#181819" stroke-dasharray="2.2 2.2"/>
<path d="M49.0475 151.163L48.4756 151.493L159.411 215.56L159.983 215.23L49.0475 151.163Z" fill="#181819"/>
<path d="M81.3112 132.531L80.7393 132.861L97.4909 142.536L98.0629 142.205L81.3112 132.531Z" fill="#181819"/>
<path d="M141.419 167.244L140.847 167.575L191.674 196.928L192.246 196.598L141.419 167.244Z" fill="#181819"/>
<path d="M144.725 134.522L144.153 134.192L140.863 136.092L141.435 136.422L144.725 134.522Z" fill="#181819"/>
<path d="M99.4147 160.69L98.8428 160.359L51.7072 187.581L52.2792 187.911L99.4147 160.69Z" fill="#181819"/>
<path d="M27.9474 166.077L28.0361 166.732L119.652 173.51L119.563 172.856L27.9474 166.077Z" fill="#181819"/>
<path d="M141.215 174.456L141.304 175.111L213.083 180.422L212.994 179.767L141.215 174.456Z" fill="#181819"/>
<path d="M121.259 174.397L120.93 174.38L129.314 227.34L129.644 227.357L121.259 174.397Z" fill="#181819" stroke="#181819" stroke-width="0.382042" stroke-dasharray="1.03 1.03"/>
<path d="M186.741 158.863L186.169 158.532L93.7226 211.921L94.2945 212.251L186.741 158.863Z" fill="#181819"/>
<path d="M100.065 162C99.8503 162.112 99.6382 162.226 99.43 162.344C90.8567 167.17 90.8567 174.996 99.43 179.824L107.523 184.38C116.097 189.207 129.996 189.207 138.57 184.38C138.692 184.311 138.812 184.243 138.93 184.173C146.106 179.942 146.919 173.548 141.369 168.827" stroke="#181819" stroke-dasharray="2.2 2.2"/>
<path d="M98.0052 110.036L98 156.675C97.9993 158.853 99.5243 161.501 101.405 162.59L137.582 183.534C139.463 184.623 140.988 183.739 140.988 181.562L141 76.3248C141 74.1472 139.476 71.499 137.595 70.4099L101.418 49.4663C99.5374 48.3775 98.0124 49.2605 98.0118 51.4385L98.0111 57.8984" stroke="#181819" stroke-width="2"/>
<path d="M119.499 168.731C118.121 167.989 116.999 165.935 117 164.154C117 162.373 118.122 161.527 119.5 162.269C120.879 163.011 122 165.064 122 166.846C121.999 168.627 120.877 169.473 119.499 168.731Z" fill="#181819"/>
<path d="M184 61.0578L183.997 87.4856M157.106 97.6698L164.73 102L157.106 97.6698ZM156 95.3313L156.006 45.3901L156 95.3313ZM157.106 44L182.783 58.5823L157.106 44Z" stroke="#181819" stroke-width="2"/>
<path d="M155 98.6331L155.001 95L157 96.3669V100L155 98.6331Z" stroke="#181819" stroke-width="2"/>
<path d="M155 44.6331V41L157 42.3669L156.999 46L155 44.6331Z" stroke="#181819" stroke-width="2"/>
<path d="M182 59.6331L182.001 56L185 57.3669V61L182 59.6331Z" stroke="#181819" stroke-width="2"/>
<path d="M192 94.8313L191.996 127.594M165.964 114.24L190.714 129L165.964 114.24ZM165 111.378L165.003 78.9465L165 111.378ZM165.964 77L190.714 91.7602L165.964 77Z" stroke="#181819" stroke-width="2"/>
<path d="M163 114.633L163.001 111L165 112.367V116L163 114.633Z" stroke="#181819" stroke-width="2"/>
<path d="M163 78.6331L163.001 75L165 76.3669V80L163 78.6331Z" stroke="#181819" stroke-width="2"/>
<path d="M191 130.633L191.001 127L193 128.367V132L191 130.633Z" stroke="#181819" stroke-width="2"/>
<path d="M191 94.6331L191.001 91L193 92.3669V96L191 94.6331Z" stroke="#181819" stroke-width="2"/>
<path d="M123 61.771V5.45105C123 3.26197 121.463 2.3743 119.567 3.46858L23.4319 58.9566C21.5363 60.051 19.9998 62.7123 20 64.9012L20.0086 150.549C20.0088 152.74 21.5479 153.627 23.4449 152.529L97.0667 109.949" stroke="#181819" stroke-width="2"/>
<path d="M65.5123 63.9191L84.1988 53.1331C84.9886 52.6772 85.629 53.0469 85.6291 53.9588L85.6356 114.974C85.6357 115.886 84.9956 116.995 84.2058 117.451L65.5192 128.237C64.7294 128.693 64.0891 128.323 64.089 127.411L64.0824 66.3957C64.0823 65.4838 64.7225 64.3749 65.5123 63.9191Z" stroke="#181819" stroke-dasharray="2.2 2.2"/>
<path d="M116 58L115.997 37.2404C115.997 36.1325 115.234 35.6833 114.292 36.2372L96.7054 46.5777C95.7634 47.1315 95 48.4787 95 49.5866L95.0007 56.3283" stroke="#181819" stroke-dasharray="2.2 2.2"/>
<path d="M31.9748 83.4175L50.8854 72.5022C51.6752 72.0463 52.3155 72.416 52.3156 73.3279L52.3222 134.532C52.3223 135.443 51.6821 136.552 50.8923 137.008L31.9817 147.923C31.1919 148.379 30.5516 148.01 30.5515 147.098L30.5449 85.8942C30.5448 84.9822 31.185 83.8734 31.9748 83.4175Z" stroke="#181819" stroke-dasharray="2.2 2.2"/>
<path d="M20.4793 80.3508L123.389 20.9521L123.389 22.2465L20.4794 81.6451L20.4793 80.3508Z" fill="#181819"/>
<path d="M41.5003 61.8462C42.3272 61.4223 43.0001 60.2484 43 59.2309C42.9999 58.2128 42.3267 57.7298 41.4998 58.1538C40.6728 58.5777 39.9999 59.751 40 60.7691C40.0001 61.7872 40.6733 62.2702 41.5003 61.8462Z" fill="#181819"/>
<path d="M34.0002 65.8463C34.5515 65.4224 35.0001 64.2486 35 63.2311C34.9999 62.2131 34.5511 61.7295 33.9999 62.154C33.4485 62.578 32.9999 63.7511 33 64.7692C33.0001 65.7867 33.4489 66.2703 34.0002 65.8463Z" fill="#181819"/>
<path d="M26.5002 70.8075C27.3272 70.2776 28.0001 68.8111 28 67.5385C27.9999 66.2667 27.3267 65.6622 26.4997 66.1921C25.6728 66.722 24.9999 68.1893 25 69.4611C25.0001 70.7337 25.6732 71.3382 26.5002 70.8075Z" fill="#181819"/>
<path d="M133 128.874V79.4577M93.3114 55L132.267 77.6287L93.3114 55ZM92 56.0674V104.825V56.0674ZM92.8963 107.131L132.267 130L92.8963 107.131Z" stroke="#181819" stroke-width="2"/>
<path d="M91 107.633L91.0006 104L93 105.367V109L91 107.633Z" stroke="#181819" stroke-width="2"/>
<path d="M91 54.6331V51L93 52.3669L92.9994 56L91 54.6331Z" stroke="#181819" stroke-width="2"/>
<path d="M132 131.633L132.001 128L134 129.367V133L132 131.633Z" stroke="#181819" stroke-width="2"/>
<path d="M132 78.633V75L134 76.3664L133.999 80L132 78.633Z" stroke="#181819" stroke-width="2"/>
<path fill-rule="evenodd" clip-rule="evenodd" d="M118.952 102.657V100.674L132.5 108.455C140.272 112.919 146.332 124.528 147.421 136.951L147.443 137.211L147.276 137.21C146.568 137.205 146.067 137.864 146.066 138.978C146.066 140.453 146.944 142.156 148.02 142.774C149.097 143.392 149.975 142.698 149.975 141.223C149.975 140.043 149.414 138.72 148.638 137.92L148.496 137.774L148.478 137.559C147.934 131.023 146.095 124.632 143.127 119.031C141.912 116.738 140.545 114.659 139.075 112.849L139.176 112.29L146.047 116.236L146.047 118.22L149.999 120.489L150 115.084L146.048 112.814L146.047 114.798L133.42 107.545C125.648 103.081 119.587 91.471 118.499 79.0485L118.477 78.7885L118.644 78.7899C119.352 78.7958 119.853 78.1359 119.854 77.0217C119.854 75.546 118.976 73.8447 117.899 73.2259C116.823 72.6078 115.945 73.3015 115.945 74.7766C115.944 75.9572 116.506 77.2803 117.282 78.0809L117.423 78.2268L117.441 78.4417C117.986 84.9772 119.825 91.3682 122.793 96.97C124.007 99.2628 125.375 101.341 126.845 103.151L126.744 103.71L118.953 99.2356V97.2525L115.001 94.9829L115 100.387L118.952 102.657Z" fill="#181819"/>
</svg>
