<svg width="240" height="241" viewBox="0 0 240 241" fill="none" xmlns="http://www.w3.org/2000/svg">
<path d="M6.94533 48.3699V95.87L18.9453 75.37L67.9453 48.3699C67.9453 48.3699 72.5356 45.4084 74.1953 42.8699C75.8551 40.3315 76.4453 35.3699 76.4453 35.3699V12.2448C76.4453 12.2448 77.4453 3.74486 74.6953 1.49487C72.7526 -0.0946048 67.9453 3.74496 67.9453 3.74496L13.4453 35.3699C13.4453 35.3699 9.46453 37.3315 8.19533 39.8699C6.92613 42.4084 6.94533 48.3699 6.94533 48.3699Z" stroke="black" stroke-width="2"/>
<path d="M229.016 66.1115L143.606 16.8133C141.746 15.7399 140.238 16.6105 140.238 18.7579L140.225 123.724C140.225 125.871 141.733 128.482 143.593 129.556L229.003 178.854C230.863 179.928 232.37 179.057 232.371 176.91L232.383 71.9435C232.383 69.7961 230.876 67.185 229.016 66.1115Z" stroke="black" stroke-width="2"/>
<path d="M233.054 90.5241L139.562 36.561L139.561 38.085L233.054 92.0481L233.054 90.5241Z" fill="black"/>
<path d="M210.668 124.821L178.34 106.161C177.968 105.947 177.666 106.121 177.666 106.55C177.666 106.98 177.967 107.502 178.339 107.716L210.668 126.376C211.04 126.591 211.341 126.417 211.341 125.987C211.341 125.558 211.04 125.036 210.668 124.821Z" fill="black"/>
<path d="M210.668 134.151L178.34 115.491C177.968 115.277 177.666 115.451 177.666 115.88C177.666 116.31 177.967 116.832 178.339 117.047L210.668 135.706C211.04 135.921 211.341 135.747 211.341 135.317C211.341 134.888 211.04 134.366 210.668 134.151Z" fill="black"/>
<path d="M170.661 101.492L161.232 96.0494C160.86 95.8347 160.559 96.0088 160.559 96.4383C160.558 96.8678 160.86 97.39 161.232 97.6047L170.661 103.047C171.033 103.262 171.335 103.088 171.335 102.658C171.335 102.229 171.033 101.706 170.661 101.492Z" fill="black"/>
<path d="M170.661 110.826L161.232 105.384C160.86 105.169 160.559 105.343 160.559 105.773C160.558 106.202 160.86 106.724 161.232 106.939L170.661 112.382C171.033 112.596 171.335 112.422 171.335 111.993C171.335 111.563 171.033 111.041 170.661 110.826Z" fill="black"/>
<path d="M169.024 79.2615L169.024 79.2615C168.708 78.8194 168.316 78.7107 168.149 79.0189L163.79 87.0788C163.623 87.3869 163.744 87.9951 164.061 88.4372L164.061 88.4372C164.377 88.8794 164.769 88.988 164.936 88.6799L169.295 80.62C169.462 80.3118 169.34 79.7036 169.024 79.2615Z" fill="black"/>
<path d="M161.58 74.9444C161.836 74.7364 162.249 74.9773 162.504 75.4835C162.759 75.9897 162.759 76.5685 162.504 76.7765L158.81 79.7946C158.555 80.0033 158.141 79.7617 157.886 79.2562C157.632 78.75 157.632 78.1712 157.886 77.9625L161.58 74.9444Z" fill="black"/>
<path d="M157.886 79.3395C157.632 78.7958 157.632 78.1741 157.886 77.9499C158.141 77.7265 158.555 77.9852 158.81 78.5289L162.504 86.4002C162.759 86.9431 162.759 87.5656 162.504 87.789C162.249 88.0132 161.836 87.7537 161.581 87.2108L157.886 79.3395Z" fill="black"/>
<path d="M171.587 80.5943C171.383 79.9972 171.053 79.7117 170.848 79.9583C170.644 80.2041 170.644 80.8888 170.848 81.486L173.803 90.1444C174.007 90.7425 174.338 91.0271 174.542 90.7813C174.746 90.5347 174.747 89.8508 174.542 89.2527L171.587 80.5943Z" fill="black"/>
<path d="M174.542 89.7768C174.746 89.5681 174.747 88.9892 174.542 88.483C174.338 87.9776 174.007 87.736 173.804 87.9447L170.849 90.9628C170.644 91.1708 170.644 91.7496 170.849 92.2558C171.052 92.762 171.383 93.0029 171.587 92.7949L174.542 89.7768Z" fill="black"/>
<path d="M149.195 34.6774C148.368 34.1474 147.695 32.6805 147.695 31.4082C147.695 30.1359 148.368 29.5318 149.196 30.0618C150.022 30.5918 150.695 32.0587 150.695 33.331C150.695 34.6033 150.022 35.2075 149.195 34.6774Z" fill="black"/>
<path d="M159.196 38.7159C158.368 38.2919 157.695 37.1183 157.695 36.1005C157.695 35.0827 158.369 34.5994 159.196 35.0234C160.023 35.4474 160.696 36.6209 160.695 37.6388C160.695 38.6566 160.022 39.1399 159.196 38.7159Z" fill="black"/>
<path d="M167.695 45.6774C166.592 45.1474 165.695 43.6805 165.695 42.4082C165.695 41.1359 166.593 40.5318 167.696 41.0618C168.798 41.5918 169.695 43.0587 169.695 44.331C169.695 45.6033 168.798 46.2075 167.695 45.6774Z" fill="black"/>
<path d="M112.684 42.2784C112.684 40.127 111.179 39.2547 109.322 40.3302L24.0567 89.7214C22.2 90.7974 20.6951 93.4129 20.6953 95.5648L20.7059 185.461C20.7062 187.612 22.2115 188.485 24.0682 187.409L109.334 138.017C111.191 136.942 112.695 134.326 112.695 132.175L112.684 42.2784Z" stroke="black" stroke-width="2"/>
<path d="M21.1191 106.809L113.39 53.5513L113.39 55.0752L21.1193 108.333L21.1191 106.809Z" fill="black"/>
<path d="M146.954 150.36L188.167 174.161C189.925 175.176 189.925 176.821 188.167 177.836L84.7995 237.532C83.042 238.547 80.1926 238.547 78.4351 237.532L37.2219 213.731C35.4644 212.716 35.4644 211.071 37.2219 210.056L140.59 150.36C142.347 149.345 145.197 149.345 146.954 150.36Z" stroke="#181819" stroke-width="2"/>
<path d="M63.121 222.192C64.5333 222.898 67.0624 222.783 68.7573 221.935C70.4523 221.088 70.682 219.824 69.2697 219.118C67.8573 218.411 65.3283 218.526 63.6333 219.374C61.9383 220.221 61.7086 221.486 63.121 222.192Z" fill="#181819"/>
<path d="M49.3257 46.2894C49.6822 46.5034 50.1814 46.3607 50.3953 46.0042L57.7404 33.3107C57.9544 32.9541 57.8118 32.455 57.4552 32.241L50.1101 28.0336C49.7535 27.8197 49.2544 27.9623 49.0404 28.3189C48.7552 28.6754 48.8978 29.1746 49.2543 29.3885L55.9577 33.2394L49.0404 45.2911C48.8265 45.5763 48.9691 46.0755 49.3257 46.2894Z" fill="black"/>
<path d="M34.9206 36.7328C34.564 36.5189 34.0648 36.6615 33.8509 37.0181L26.5771 49.7116C26.3631 50.0681 26.5058 50.5673 26.8623 50.7813L34.2074 54.9887C34.564 55.2026 35.0632 55.06 35.2771 54.7034C35.491 54.3468 35.3484 53.8477 34.9919 53.6337L28.2886 49.7829L35.2058 37.8025C35.4197 37.446 35.2771 36.9468 34.9206 36.7328Z" fill="black"/>
<path d="M45.5446 26.3931L37.2012 56.2727C37.0585 56.7006 37.3438 57.1285 37.7717 57.1998C38.1995 57.3424 38.6274 57.0571 38.6987 56.6293L47.0422 26.7496C47.1848 26.3218 46.8996 25.8939 46.4717 25.8226C46.1151 25.7513 45.6873 25.9652 45.5446 26.3931Z" fill="black"/>
<path d="M95.6949 110.653C96.2949 110.153 96.6949 109.253 96.6949 108.553V103.253C96.6949 102.653 96.4949 102.253 96.0949 101.853C95.7949 101.553 95.2949 101.453 94.6949 101.553L90.3949 102.453C89.9949 101.153 89.3949 100.053 88.7949 99.0529L91.1949 92.4529C91.4949 91.4529 91.2949 90.5529 90.4949 90.0529L87.1949 88.2529C86.6949 87.9529 86.0949 87.9529 85.4949 88.3529C85.1949 88.4529 84.9949 88.6529 84.7949 88.9529L80.2949 94.3529C78.9949 94.3529 77.7949 94.3529 76.4949 94.6529L75.0949 90.4529C74.8949 89.9529 74.5949 89.6529 74.0949 89.4529C73.6949 89.2529 73.0949 89.3529 72.5949 89.6529L67.9949 92.3529C67.2949 92.7529 66.7949 93.4529 66.5949 94.2529L64.8949 101.353C64.7949 101.953 65.0949 102.553 65.6949 102.653C66.2949 102.753 66.8949 102.453 66.9949 101.853L68.6949 94.7529C68.6949 94.5529 68.8949 94.2529 68.9949 94.2529L73.0949 91.8529L74.4949 96.3529C74.6949 96.8529 75.1949 97.2529 75.7949 97.0529C77.4949 96.5529 78.9949 96.4529 80.3949 96.5529C80.6949 96.5529 81.0949 96.4529 81.2949 96.1529L86.1949 90.3529L88.7949 91.8529L86.1949 98.9529C86.0949 99.2529 86.1949 99.6529 86.3949 99.9529C87.1949 101.153 87.8949 102.553 88.2949 104.153C88.4949 104.753 88.9949 105.053 89.5949 104.953L94.1949 103.953V108.653C94.1949 108.753 94.0949 109.053 93.8949 109.153L88.5949 114.153C88.3949 114.353 88.2949 114.553 88.2949 114.753C87.8949 116.953 87.1949 119.253 86.2949 121.553C86.1949 121.853 86.1949 122.253 86.3949 122.553L88.8949 126.553C88.8949 126.553 88.8949 126.753 88.7949 126.853L85.4949 132.453C85.4949 132.553 85.3949 132.653 85.3949 132.653L80.4949 132.553C80.0949 132.553 79.7949 132.753 79.5949 132.953C78.0949 134.853 76.3949 136.653 74.6949 138.153C74.4949 138.253 74.3949 138.453 74.3949 138.753L72.7949 145.753C72.6949 146.053 72.4949 146.253 72.4949 146.253L68.3949 148.653L66.8949 144.153C66.6949 143.553 66.0949 143.253 65.4949 143.453C63.8949 143.853 62.3949 144.053 60.8949 143.853C60.5949 143.853 60.1949 143.953 59.8949 144.253L54.9949 150.053L52.3949 148.653L54.8949 141.553C55.0949 140.953 54.7949 140.353 54.1949 140.153C53.5949 139.953 52.9949 140.253 52.7949 140.853L50.1949 147.953C49.8949 148.953 50.0949 149.953 50.8949 150.353L54.0949 152.153C54.2949 152.253 54.5949 152.353 54.8949 152.353C55.1949 152.353 55.5949 152.253 55.8949 152.053C56.0949 151.953 56.3949 151.753 56.5949 151.453L61.0949 146.053C62.2949 146.153 63.5949 146.053 64.8949 145.753L66.2949 149.853C66.3949 150.353 66.7949 150.753 67.1949 150.853C67.6949 151.053 68.1949 150.953 68.6949 150.653L73.2949 147.953C73.9949 147.653 74.4949 146.853 74.6949 146.053L76.2949 139.353C77.8949 137.953 79.3949 136.353 80.7949 134.553L85.1949 134.653C85.4949 134.653 85.8949 134.553 86.1949 134.353C86.5949 134.153 86.9949 133.753 87.1949 133.353L90.4949 127.753C90.9949 126.953 90.9949 126.053 90.5949 125.353L88.2949 121.653C89.0949 119.553 89.6949 117.453 90.0949 115.353L95.6949 110.653Z" fill="black"/>
<path d="M45.8953 138.353C46.1953 138.553 46.4953 138.653 46.7953 138.653C46.8953 138.653 47.0953 138.653 47.1953 138.553L52.4953 137.453C53.0953 137.353 53.4953 136.753 53.2953 136.153C53.1953 135.553 52.5953 135.153 51.9953 135.353L47.3953 136.353V131.653C47.3953 131.553 47.4953 131.353 47.6953 131.153L52.9953 126.153C53.1953 126.053 53.2953 125.853 53.2953 125.553C53.6953 123.253 54.3953 121.053 55.2953 118.753C55.3953 118.453 55.3953 118.053 55.1953 117.753L52.6953 113.753C52.6953 113.753 52.6953 113.653 52.7953 113.453L55.9953 107.853C56.0953 107.753 56.1953 107.653 55.9953 107.653L60.9953 107.753C61.5953 107.753 62.0953 107.253 62.0953 106.653C62.0953 106.053 61.6953 105.553 61.0953 105.553L56.0953 105.453C55.7953 105.453 55.4953 105.553 55.1953 105.753C54.7953 105.953 54.4953 106.353 54.1953 106.753L50.8953 112.353C50.3953 113.253 50.3953 114.053 50.7953 114.753L53.0953 118.453C52.2953 120.553 51.6953 122.653 51.2953 124.753L46.1953 129.553C45.5953 130.153 45.1953 130.953 45.1953 131.653V136.953C45.2953 137.553 45.4953 138.053 45.8953 138.353Z" fill="black"/>
<path d="M75.2957 128.953C75.4957 129.153 75.7957 129.253 75.9957 129.253C76.2957 129.253 76.5957 129.153 76.7957 128.853C80.4957 124.453 82.7957 118.753 82.6957 113.953C82.6957 108.653 79.8957 105.253 75.6957 105.253C75.0957 105.253 74.5957 105.753 74.5957 106.353C74.5957 106.953 75.0957 107.453 75.6957 107.453C78.6957 107.453 80.4957 109.853 80.4957 113.953C80.4957 118.253 78.3957 123.453 75.0957 127.453C74.7957 127.853 74.7957 128.553 75.2957 128.953Z" fill="black"/>
<path d="M70.3953 109.353C70.8953 109.053 70.9953 108.353 70.6953 107.853C70.3953 107.353 69.6953 107.253 69.1953 107.553C63.4953 111.553 59.1953 119.553 59.1953 126.153C59.1953 129.853 60.4953 132.653 62.8953 133.953C63.8953 134.553 64.9953 134.853 66.1953 134.853C67.8953 134.853 69.6953 134.353 71.5953 133.253C72.0953 132.953 72.2953 132.253 71.9953 131.753C71.6953 131.253 70.9953 131.053 70.4953 131.353C67.9953 132.853 65.6953 133.053 63.9953 132.153C62.2953 131.153 61.3953 129.053 61.3953 126.253C61.3953 120.353 65.2953 112.953 70.3953 109.353Z" fill="black"/>
<path d="M174.695 165.87L180.592 160.637V150.87" stroke="black" stroke-width="2" stroke-dasharray="2.2 2.2"/>
<path d="M70.9453 161.87V172.87L87.9453 180.87" stroke="black" stroke-width="2" stroke-dasharray="2 2"/>
</svg>
