<svg width="240" height="240" viewBox="0 0 240 240" fill="none" xmlns="http://www.w3.org/2000/svg">
<path d="M220.065 178.316L134.117 128.681C132.257 127.607 129.243 127.607 127.383 128.681L34.5064 182.317C32.6468 183.391 32.6468 185.133 34.5064 186.206L120.455 235.842C122.314 236.916 125.329 236.916 127.189 235.842L220.065 182.205C221.925 181.132 221.925 179.39 220.065 178.316Z" stroke="black" stroke-width="2"/>
<path d="M129.241 184.442L130.063 184.982L130.33 182.42C130.355 182.182 130.747 181.998 131.207 182.01C131.67 182.023 132.026 182.228 131.999 182.469L131.597 186.113L131.639 186.513L130.838 186.512L123.726 186.397C123.288 186.391 122.942 186.201 122.954 185.973C122.964 185.742 123.337 185.561 123.782 185.57L128.716 185.668L128.176 185.245C127.343 184.592 126.286 184.042 124.941 183.639L124.94 183.638C119.697 182.077 113.047 183.057 110.106 185.745C107.029 188.434 108.777 191.885 114.019 193.445L114.021 193.446C118.795 194.853 124.816 194.19 128.088 191.944C128.408 191.724 128.954 191.658 129.35 191.772C129.789 191.898 129.892 192.17 129.633 192.346C127.85 193.554 125.368 194.363 122.68 194.772C119.525 195.205 116.132 195.036 113.259 194.141L113.25 194.139C107.223 192.345 105.233 188.383 108.703 185.246C112.171 182.181 119.81 181.08 125.771 182.842C127.123 183.276 128.274 183.809 129.241 184.442Z" fill="black"/>
<path d="M166.718 182.693L120.92 156.259C120.548 156.044 120.246 156.218 120.246 156.648C120.246 157.077 120.547 157.599 120.919 157.814L166.718 184.249C167.09 184.463 167.392 184.289 167.392 183.86C167.392 183.43 167.09 182.908 166.718 182.693Z" fill="black"/>
<path d="M153.237 185.028L120.909 166.368C120.537 166.154 120.235 166.328 120.235 166.757C120.235 167.187 120.537 167.709 120.909 167.924L153.237 186.583C153.609 186.798 153.911 186.624 153.911 186.194C153.911 185.765 153.609 185.243 153.237 185.028Z" fill="black"/>
<path d="M106 31.0726L105.998 7.89847C105.997 5.30961 104.222 4.26006 102.034 5.55422L18.9624 54.6745C16.7737 55.9683 14.9997 59.1159 15 61.705L15.0103 151.101C15.0106 153.69 16.7851 154.74 18.9738 153.446L31.2602 146.181" stroke="black" stroke-width="2"/>
<path d="M13.6405 69.6452L107.133 15.6821L107.133 17.2061L13.6407 71.1692L13.6405 69.6452Z" fill="black"/>
<path d="M222.321 55.2419L136.911 5.94372C135.051 4.87023 133.543 5.74082 133.543 7.88823L133.53 112.854C133.53 115.002 135.037 117.613 136.897 118.686L222.307 167.984C224.167 169.058 225.675 168.187 225.675 166.04L225.688 61.0739C225.688 58.9265 224.181 56.3154 222.321 55.2419Z" stroke="black" stroke-width="2"/>
<path d="M226.358 79.6545L132.866 25.6914L132.866 27.2154L226.358 81.1785L226.358 79.6545Z" fill="black"/>
<path d="M203.973 113.951L171.644 95.2916C171.272 95.0769 170.971 95.251 170.971 95.6805C170.971 96.11 171.272 96.6322 171.644 96.8469L203.972 115.507C204.344 115.721 204.646 115.547 204.646 115.118C204.646 114.688 204.345 114.166 203.973 113.951Z" fill="black"/>
<path d="M203.973 123.281L171.644 104.622C171.272 104.407 170.971 104.581 170.971 105.011C170.971 105.44 171.272 105.962 171.644 106.177L203.972 124.837C204.344 125.051 204.646 124.877 204.646 124.448C204.646 124.018 204.345 123.496 203.973 123.281Z" fill="black"/>
<path d="M163.966 90.6222L154.537 85.1798C154.165 84.9651 153.863 85.1392 153.863 85.5687C153.863 85.9981 154.165 86.5204 154.537 86.7351L163.966 92.1775C164.338 92.3922 164.639 92.218 164.639 91.7886C164.639 91.3591 164.338 90.8369 163.966 90.6222Z" fill="black"/>
<path d="M163.966 99.9567L154.537 94.5142C154.165 94.2995 153.863 94.4737 153.863 94.9031C153.863 95.3326 154.165 95.8548 154.537 96.0695L163.966 101.512C164.338 101.727 164.639 101.553 164.639 101.123C164.639 100.694 164.338 100.171 163.966 99.9567Z" fill="black"/>
<path d="M162.329 68.3919L162.329 68.3919C162.012 67.9497 161.621 67.8411 161.454 68.1492L157.094 76.2091C156.928 76.5173 157.049 77.1255 157.366 77.5676L157.366 77.5676C157.682 78.0097 158.074 78.1184 158.24 77.8102L162.6 69.7503C162.767 69.4422 162.645 68.834 162.329 68.3919Z" fill="black"/>
<path d="M154.885 64.0747C155.141 63.8668 155.553 64.1076 155.809 64.6138C156.064 65.12 156.064 65.6989 155.808 65.9069L152.114 68.9249C151.86 69.1337 151.446 68.892 151.191 68.3866C150.936 67.8804 150.936 67.3016 151.191 67.0928L154.885 64.0747Z" fill="black"/>
<path d="M151.191 68.4699C150.936 67.9262 150.936 67.3045 151.191 67.0803C151.446 66.8569 151.86 67.1156 152.115 67.6593L155.809 75.5306C156.064 76.0734 156.064 76.696 155.809 76.9194C155.554 77.1436 155.14 76.8841 154.885 76.3412L151.191 68.4699Z" fill="black"/>
<path d="M164.892 69.7247C164.688 69.1275 164.357 68.8421 164.153 69.0887C163.949 69.3344 163.949 70.0192 164.153 70.6164L167.108 79.2748C167.312 79.8728 167.643 80.1574 167.847 79.9117C168.051 79.6651 168.051 78.9812 167.847 78.3831L164.892 69.7247Z" fill="black"/>
<path d="M167.847 78.9072C168.051 78.6984 168.051 78.1196 167.847 77.6134C167.643 77.108 167.312 76.8663 167.108 77.0751L164.153 80.0931C163.949 80.3011 163.949 80.88 164.153 81.3862C164.357 81.8924 164.687 82.1332 164.892 81.9253L167.847 78.9072Z" fill="black"/>
<path d="M142.5 23.8078C141.672 23.2778 141 21.8109 141 20.5386C141 19.2663 141.673 18.6622 142.5 19.1922C143.327 19.7222 144 21.189 144 22.4614C144 23.7337 143.327 24.3378 142.5 23.8078Z" fill="black"/>
<path d="M152.5 27.8463C151.673 27.4222 151 26.2487 151 25.2309C151 24.213 151.674 23.7297 152.5 24.1537C153.328 24.5778 154.001 25.7512 154 26.7691C154 27.787 153.327 28.2703 152.5 27.8463Z" fill="black"/>
<path d="M161 34.8078C159.897 34.2777 159 32.8109 159 31.5386C159 30.2663 159.897 29.6622 161 30.1922C162.103 30.7222 163 32.189 163 33.4614C163 34.7337 162.103 35.3378 161 34.8078Z" fill="black"/>
<path d="M121.989 25.4088C121.989 23.2573 120.484 22.385 118.627 23.4606L33.3614 72.8518C31.5047 73.9278 29.9998 76.5433 30 78.6952L30.0106 168.591C30.0109 170.743 31.5162 171.615 33.3728 170.539L118.638 121.148C120.495 120.073 122 117.456 122 115.305L121.989 25.4088Z" stroke="black" stroke-width="2"/>
<path d="M30.4238 89.9396L122.694 36.6816L122.695 38.2056L30.424 91.4636L30.4238 89.9396Z" fill="black"/>
<path d="M79.6961 98.13L99.9012 86.4675C100.831 85.9307 101.585 86.366 101.585 87.4397L101.587 104.049C101.587 105.122 100.833 106.428 99.9034 106.965L79.6983 118.627C78.7684 119.164 78.0144 118.729 78.0143 117.655L78.0125 101.046C78.0124 99.9723 78.7662 98.6668 79.6961 98.13Z" stroke="black" stroke-dasharray="2.2 2.2"/>
<path d="M51.6854 114.387L71.8905 102.724C72.8204 102.188 73.5743 102.623 73.5744 103.697L73.5763 121.082C73.5764 122.156 72.8227 123.461 71.8927 123.998L51.6876 135.66C50.7577 136.197 50.0038 135.762 50.0037 134.688L50.0018 117.303C50.0017 116.229 50.7554 114.924 51.6854 114.387Z" stroke="black" stroke-dasharray="2.2 2.2"/>
<path d="M51.8325 93.4643L100.271 65.5051C101.201 64.9683 101.955 65.4036 101.955 66.4773L101.956 76.0861C101.956 77.1598 101.203 78.4653 100.273 79.0021L51.8339 106.961C50.904 107.498 50.1501 107.063 50.1499 105.989L50.1489 96.3803C50.1488 95.3066 50.9025 94.0011 51.8325 93.4643Z" stroke="black" stroke-dasharray="2.2 2.2"/>
</svg>
