<svg width="64" height="64" viewBox="0 0 64 64" fill="none" xmlns="http://www.w3.org/2000/svg">
<path fill-rule="evenodd" clip-rule="evenodd" d="M8.85084 29.9517L29.9524 8.85448C31.0825 7.72461 32.9155 7.71563 34.0546 8.8253C36.4667 11.2357 38.1693 12.9374 39.1625 13.9303L39.1545 13.9241L42.9013 17.6701C43.9172 18.6859 43.9172 20.3328 42.9013 21.3486C41.8853 22.3643 40.238 22.3643 39.222 21.3486L32.5147 14.6427C32.2574 14.3853 31.8785 14.3626 31.5997 14.5744C31.573 14.5979 31.547 14.6207 31.5215 14.6427L14.6704 31.4903C14.388 31.7726 14.388 32.2011 14.6704 32.4834L31.5215 49.331C31.8038 49.6133 32.2324 49.6133 32.5147 49.331L39.222 42.6251C40.238 41.6093 41.8853 41.6093 42.9013 42.6251C43.9172 43.6409 43.9172 45.2878 42.9013 46.3036L34.0537 55.1493C32.9192 56.2836 31.0869 56.2836 29.9524 55.1493L8.85084 34.0521C7.71639 32.9179 7.71639 31.0859 8.85084 29.9517ZM44.9435 40.6631C45.9595 41.6788 47.6067 41.6788 48.6227 40.6631L55.1491 34.138C56.2836 33.0038 56.2836 31.1718 55.1493 30.0377L48.566 23.4791C47.5476 22.4645 45.8998 22.466 44.8832 23.4824C43.8672 24.4982 43.8672 26.1451 44.8832 27.1608L49.3296 31.6063C49.612 31.8886 49.612 32.3171 49.3296 32.5994L44.9435 36.9846C43.9275 38.0004 43.9275 39.6473 44.9435 40.6631ZM37.8057 32.1075C37.8057 35.2535 35.2549 37.8038 32.1083 37.8038C28.9617 37.8038 26.4109 35.2535 26.4109 32.1075C26.4109 28.9616 28.9617 26.4113 32.1083 26.4113C35.2549 26.4113 37.8057 28.9616 37.8057 32.1075Z" fill="black"/>
</svg>
