<svg width="64" height="64" viewBox="0 0 64 64" fill="none" xmlns="http://www.w3.org/2000/svg">
<path d="M46.2288 41.364H41.0379L35.0755 24.4465L31.7274 33.7004H36.8805L38.2962 37.728H30.4698L29.1154 41.3687H23.9246L32.2064 19.8738H37.9423L46.2288 41.364ZM55.6809 47.888C55.4917 47.8878 55.3053 47.9332 55.1373 48.0203C54.9694 48.1074 54.8248 48.2335 54.7158 48.3882C54.7158 48.3882 53.6847 49.5679 53.1279 50.1224C49.6233 53.632 45.1763 56.0504 40.3255 57.0845C35.4747 58.1186 30.4281 57.7241 25.7969 55.9489C21.1656 54.1737 17.1484 51.0938 14.2317 47.0823C11.3149 43.0707 9.6238 38.2996 9.36307 33.3466C9.10234 28.3937 10.2832 23.4713 12.7626 19.1757C15.2421 14.8801 18.9137 11.3955 23.333 9.14384C27.7522 6.89218 32.7295 5.97007 37.6621 6.48917C42.5947 7.00828 47.271 8.94633 51.1247 12.0686C50.9094 12.694 50.9152 13.3743 51.1409 13.996C51.3667 14.6176 51.7988 15.1431 52.3652 15.4846C52.9316 15.8261 53.598 15.9631 54.2531 15.8726C54.9083 15.7821 55.5126 15.4696 55.9652 14.9874C56.4179 14.5051 56.6914 13.8822 56.7402 13.2226C56.789 12.563 56.6101 11.9067 56.2334 11.3631C55.8566 10.8194 55.3049 10.4215 54.6701 10.2356C54.0354 10.0496 53.3561 10.087 52.7457 10.3415C48.4691 6.83757 43.251 4.6781 37.7491 4.1353C32.2471 3.59249 26.7076 4.69065 21.8288 7.29133C16.95 9.89202 12.9503 13.8788 10.3339 18.7492C7.71752 23.6196 6.60151 29.1555 7.12658 34.6592C7.65165 40.1629 9.79428 45.3879 13.2844 49.6757C16.7745 53.9635 21.4559 57.1222 26.7384 58.7534C32.021 60.3847 37.6682 60.4156 42.9683 58.8423C48.2683 57.2689 52.984 54.1617 56.5208 49.9124C56.688 49.7475 56.8022 49.5365 56.8488 49.3063C56.8954 49.0762 56.8722 48.8374 56.7822 48.6204C56.6923 48.4035 56.5396 48.2184 56.3438 48.0888C56.1481 47.9591 55.918 47.8908 55.6832 47.8927L55.6809 47.888Z" fill="black"/>
</svg>
