<svg width="64" height="64" viewBox="0 0 64 64" fill="none" xmlns="http://www.w3.org/2000/svg">
<path d="M32 18C26.7 18 22 20 22 22V41.04C22 44 26.54 45.52 32 45.52C37.46 45.52 43 43.98 44 41.04V22C43 19.26 37.3 18 32 18ZM24 22C24.16 21.44 27.16 20 33 20C38.84 20 41.8 21.44 42 22C41.8 22.56 38.8 24 33 24C27.2 24 24.16 22.54 24 22ZM42 41.02C42 41.76 38.94 43.5 33 43.5C27.06 43.5 24 41.78 24 41.04V37.7C26.8267 38.9648 29.9051 39.5668 33 39.46C36.0949 39.5668 39.1733 38.9648 42 37.7V41.02ZM42 35.14C41.54 36.04 38.24 37.44 33 37.44C27.76 37.44 24.46 36 24 35.16V30.8C26.8267 32.0648 29.9051 32.6668 33 32.56C36.0949 32.6668 39.1733 32.0648 42 30.8V35.14ZM42 28.24C41.54 29.14 38.24 30.54 33 30.54C27.76 30.54 24.46 29.14 24 28.24V24.42C26.8552 25.5748 29.9222 26.1132 33 26C36.0778 26.1132 39.1448 25.5748 42 24.42V28.24Z" fill="black"/>
<path d="M16.52 22.78L15.84 20.78C9.23998 23.16 5.47998 26.78 5.47998 30.78C5.47998 34.78 9.23998 38.32 15.84 40.78L16.52 38.9C10.86 36.9 7.47998 33.86 7.47998 30.9C7.47998 27.94 10.86 24.82 16.52 22.78Z" fill="black"/>
<path d="M47.8 39.04L48.44 40.94C55.44 38.58 59.46 34.94 59.46 30.8C59.46 26.66 55.46 23.02 48.44 20.66L47.8 22.56C53.8 24.56 57.46 27.68 57.46 30.8C57.46 33.92 53.84 37 47.8 39.04Z" fill="black"/>
<path d="M6 7.76L14.3 15.76L15.7 14.32L7.06 6H14V4H5C4.73478 4 4.48043 4.10536 4.29289 4.29289C4.10536 4.48043 4 4.73478 4 5V14H6V7.76Z" fill="black"/>
<path d="M59 4H50V6H56.5801L48.3 14.3L49.7001 15.7L58 7.42V14H60V5C60 4.73478 59.8947 4.48043 59.7072 4.29289C59.5196 4.10536 59.2653 4 59 4Z" fill="black"/>
<path d="M58 56.5801L49.7001 48.3L48.3 49.7001L56.5801 58H50V60H59C59.2653 60 59.5196 59.8947 59.7072 59.7072C59.8947 59.5196 60 59.2653 60 59V50H58V56.5801Z" fill="black"/>
<path d="M14.3 48.3L6 56.5801V50H4V59C4 59.2653 4.10536 59.5196 4.29289 59.7072C4.48043 59.8947 4.73478 60 5 60H14V58H7.42L15.7 49.7001L14.3 48.3Z" fill="black"/>
</svg>
