<svg width="64" height="64" viewBox="0 0 64 64" fill="none" xmlns="http://www.w3.org/2000/svg">
<path fill-rule="evenodd" clip-rule="evenodd" d="M19.7815 27.1622C19.7815 27.8512 19.856 28.41 19.9864 28.8198C20.1354 29.2295 20.3216 29.6765 20.5824 30.1607C20.6755 30.3097 20.7127 30.4587 20.7127 30.5891C20.7127 30.7754 20.601 30.9616 20.3589 31.1479L19.1855 31.9301C19.0179 32.0419 18.8503 32.0977 18.7013 32.0977C18.515 32.0977 18.3288 32.0046 18.1425 31.837C17.8817 31.5576 17.6583 31.2597 17.472 30.9616C17.2858 30.645 17.0995 30.2911 16.8947 29.8628C15.4418 31.5762 13.6166 32.433 11.4189 32.433C9.85439 32.433 8.60651 31.986 7.69389 31.092C6.78126 30.198 6.31564 29.006 6.31564 27.516C6.31564 25.9329 6.87438 24.6477 8.01052 23.6793C9.14664 22.7108 10.6553 22.2265 12.5736 22.2265C13.2069 22.2265 13.8588 22.2824 14.5479 22.3755C15.237 22.4686 15.9447 22.6176 16.6898 22.7852V21.4256C16.6898 20.0101 16.3918 19.023 15.8144 18.4456C15.2184 17.8682 14.2127 17.5889 12.7785 17.5889C12.1266 17.5889 11.4561 17.6634 10.767 17.831C10.0779 17.9986 9.40739 18.2035 8.75552 18.4643C8.45751 18.5946 8.23401 18.6691 8.10364 18.7064C7.97326 18.7436 7.88014 18.7623 7.80564 18.7623C7.54489 18.7623 7.41451 18.576 7.41451 18.1849V17.2723C7.41451 16.9743 7.45176 16.7507 7.54489 16.6204C7.63802 16.49 7.80564 16.3596 8.06639 16.2293C8.71827 15.894 9.50051 15.6146 10.4131 15.3911C11.3258 15.149 12.2943 15.0372 13.3186 15.0372C15.535 15.0372 17.1554 15.5401 18.1984 16.5459C19.2228 17.5516 19.7443 19.0789 19.7443 21.1276V27.1622H19.7815ZM12.2198 29.9932C12.8344 29.9932 13.4676 29.8814 14.1381 29.6579C14.8086 29.4343 15.4046 29.0246 15.9075 28.4659C16.2055 28.112 16.429 27.7209 16.5408 27.2739C16.6525 26.8269 16.727 26.2868 16.727 25.6535V24.8713C16.1869 24.7409 15.6095 24.6291 15.0135 24.5546C14.4175 24.4801 13.8401 24.4429 13.2627 24.4429C12.0149 24.4429 11.1023 24.685 10.4876 25.1878C9.87301 25.6907 9.57501 26.3985 9.57501 27.3297C9.57501 28.2051 9.79851 28.857 10.2641 29.304C10.7111 29.7696 11.363 29.9932 12.2198 29.9932ZM27.1757 32.0046C26.8404 32.0046 26.6169 31.9488 26.4679 31.8184C26.3189 31.7066 26.1885 31.4459 26.0768 31.092L21.6999 16.6949C21.5881 16.3224 21.5323 16.0802 21.5323 15.9499C21.5323 15.6519 21.6813 15.4843 21.9792 15.4843H23.8045C24.1584 15.4843 24.4005 15.5401 24.5309 15.6705C24.6799 15.7822 24.7916 16.043 24.9034 16.3969L28.0324 28.7266L30.9379 16.3969C31.031 16.0244 31.1427 15.7822 31.2918 15.6705C31.4408 15.5588 31.7015 15.4843 32.0367 15.4843H33.5268C33.8807 15.4843 34.1228 15.5401 34.2718 15.6705C34.4208 15.7822 34.5511 16.043 34.6256 16.3969L37.5683 28.8756L40.7905 16.3969C40.9022 16.0244 41.0326 15.7822 41.163 15.6705C41.312 15.5588 41.5541 15.4843 41.8894 15.4843H43.6215C43.9195 15.4843 44.0871 15.6333 44.0871 15.9499C44.0871 16.0294 44.0735 16.109 44.058 16.2001L44.0499 16.2479C44.0313 16.3596 43.994 16.5086 43.9195 16.7135L39.4309 31.1106C39.3191 31.4831 39.1888 31.7252 39.0398 31.837C38.8908 31.9488 38.6487 32.0232 38.332 32.0232H36.7303C36.3764 32.0232 36.1342 31.9674 35.9853 31.837C35.8363 31.7066 35.7059 31.4645 35.6314 31.092L32.7445 19.0789L29.8763 31.0734C29.7832 31.4459 29.6714 31.688 29.5224 31.8184C29.3734 31.9488 29.1127 32.0046 28.7774 32.0046H27.1757ZM51.1087 32.5075C50.1403 32.5075 49.1717 32.3957 48.2405 32.1723C47.3093 31.9488 46.5828 31.7066 46.0987 31.4273C45.8006 31.2596 45.5958 31.0734 45.5212 30.9058C45.4468 30.7381 45.4095 30.5519 45.4095 30.3843V29.4343C45.4095 29.0432 45.5585 28.857 45.8379 28.857C45.9496 28.857 46.0614 28.8756 46.1731 28.9128C46.2451 28.9369 46.3404 28.9764 46.4488 29.0213L46.4489 29.0213L46.449 29.0214C46.5088 29.0462 46.5726 29.0726 46.6388 29.0991C47.272 29.3785 47.9611 29.602 48.6875 29.751C49.4325 29.9 50.1589 29.9745 50.9039 29.9745C52.0772 29.9745 52.9899 29.7696 53.6231 29.3599C54.2564 28.9502 54.5917 28.3541 54.5917 27.5905C54.5917 27.069 54.424 26.6407 54.0888 26.2868C53.7535 25.9329 53.1202 25.6163 52.2076 25.3182L49.507 24.4801C48.1474 24.0518 47.1417 23.4185 46.527 22.5804C45.9124 21.7609 45.5958 20.8483 45.5958 19.8798C45.5958 19.0975 45.7634 18.4084 46.0987 17.8124C46.4339 17.2164 46.8809 16.6949 47.4396 16.2851C47.9983 15.8568 48.6316 15.5401 49.3766 15.3166C50.1216 15.0931 50.9039 15 51.7234 15C52.1331 15 52.5615 15.0186 52.9713 15.0745C53.3996 15.1304 53.7907 15.2049 54.1818 15.2794C54.5544 15.3725 54.9082 15.4656 55.2435 15.5774C55.5787 15.6891 55.8395 15.8009 56.0258 15.9126C56.2865 16.0616 56.4727 16.2106 56.5845 16.3783C56.6963 16.5272 56.7521 16.7321 56.7521 16.9929V17.8682C56.7521 18.2594 56.6031 18.4643 56.3238 18.4643C56.1748 18.4643 55.9326 18.3898 55.616 18.2407C54.5543 17.7565 53.3624 17.5144 52.04 17.5144C50.9784 17.5144 50.1403 17.682 49.5629 18.0359C48.9855 18.3898 48.6875 18.9299 48.6875 19.6935C48.6875 20.215 48.8737 20.662 49.2463 21.0159C49.6188 21.3697 50.3079 21.7236 51.295 22.0402L53.9398 22.8784C55.2808 23.3068 56.2492 23.9027 56.8266 24.6663C57.404 25.43 57.6834 26.3054 57.6834 27.2739C57.6834 28.0748 57.5157 28.8011 57.1991 29.4343C56.8639 30.0676 56.4169 30.6264 55.8395 31.0734C55.2622 31.539 54.573 31.8742 53.7721 32.1164C52.934 32.3771 52.0586 32.5075 51.1087 32.5075ZM54.6287 41.5599C48.5011 46.0857 39.5984 48.4884 31.9434 48.4884C21.2155 48.4884 11.5491 44.5212 4.24809 37.928C3.67071 37.4065 4.19221 36.6988 4.88134 37.1085C12.7783 41.6902 22.5192 44.4654 32.5953 44.4654C39.3934 44.4654 46.8621 43.0499 53.7347 40.1444C54.7591 39.6788 55.6344 40.8149 54.6287 41.5599ZM50.0098 38.412C52.0026 38.1698 56.3981 37.6483 57.1803 38.6541C57.9626 39.6413 56.305 43.7946 55.56 45.6385C55.3365 46.1973 55.8207 46.4207 56.3236 45.9924C59.6016 43.2359 60.4584 37.4808 59.7879 36.6426C59.1173 35.8231 53.3622 35.1154 49.8608 37.5739C49.3206 37.965 49.4137 38.4865 50.0098 38.412Z" fill="black"/>
</svg>
