<svg width="64" height="64" viewBox="0 0 64 64" fill="none" xmlns="http://www.w3.org/2000/svg">
<path d="M6.38892 32.4531C6.57642 35.4766 9.09595 37.4102 12.8459 37.4102C16.8538 37.4102 19.3616 35.3828 19.3616 32.1484C19.3616 29.6055 17.9319 28.1992 14.4631 27.3906L12.5999 26.9336C10.3967 26.418 9.5061 25.7266 9.5061 24.5195C9.5061 22.9961 10.8889 22 12.9631 22C14.9319 22 16.2913 22.9727 16.5374 24.5312H19.092C18.9397 21.6836 16.4319 19.6797 12.9983 19.6797C9.30688 19.6797 6.84595 21.6836 6.84595 24.6953C6.84595 27.1797 8.24048 28.6562 11.2991 29.3711L13.4788 29.8984C15.717 30.4258 16.7014 31.1992 16.7014 32.4883C16.7014 33.9883 15.1545 35.0781 13.0452 35.0781C10.7834 35.0781 9.21313 34.0586 8.99048 32.4531H6.38892Z" fill="black"/>
<path d="M37.4628 24.2383H34.9433L32.6699 33.9766H32.4706L29.8456 24.2383H27.4316L24.8066 33.9766H24.6191L22.3339 24.2383H19.7792L23.2949 37H25.8847L28.5097 27.6016H28.7089L31.3456 37H33.9589L37.4628 24.2383Z" fill="black"/>
<path d="M38.6713 37H41.1791V24.2383H38.6713V37ZM39.9252 22C40.8627 22 41.5541 21.332 41.5541 20.4648C41.5541 19.5859 40.8627 18.918 39.9252 18.918C38.9877 18.918 38.2963 19.5859 38.2963 20.4648C38.2963 21.332 38.9877 22 39.9252 22Z" fill="black"/>
<path d="M45.3045 37H47.8241V26.418H50.6366V24.2969H47.7889V23.0781C47.7889 21.8125 48.3631 21.1797 49.7694 21.1797C50.1678 21.1797 50.5077 21.2031 50.742 21.25V19.2695C50.3084 19.1875 49.8163 19.1406 49.242 19.1406C46.5936 19.1406 45.3045 20.3945 45.3045 22.9258V24.2969H43.2069V26.418H45.3045V37Z" fill="black"/>
<path d="M52.5134 21.0625V24.2969H50.4861V26.418H52.5134V33.625C52.5134 36.0859 53.6267 37.0703 56.4275 37.0703C56.9197 37.0703 57.3884 37.0117 57.7986 36.9414V34.8438C57.447 34.8789 57.2244 34.9023 56.8377 34.9023C55.5838 34.9023 55.033 34.3164 55.033 32.9805V26.418H57.7986V24.2969H55.033V21.0625H52.5134Z" fill="black"/>
<path d="M15.1118 49.1758C16.7378 49.1758 17.9292 48.2041 18.0952 46.7637H16.855C16.6841 47.5547 16.0054 48.0527 15.1118 48.0527C13.9106 48.0527 13.1636 47.0664 13.1636 45.4746C13.1636 43.8877 13.9106 42.9014 15.1069 42.9014C15.9956 42.9014 16.6743 43.4482 16.8501 44.293H18.0903C17.9438 42.8232 16.7085 41.7783 15.1069 41.7783C13.1099 41.7783 11.8745 43.1895 11.8745 45.4795C11.8745 47.7598 13.1147 49.1758 15.1118 49.1758Z" fill="black"/>
<path d="M21.4743 49.1074C23.071 49.1074 24.0427 48.0625 24.0427 46.3291C24.0427 44.6006 23.0661 43.5508 21.4743 43.5508C19.8874 43.5508 18.906 44.6055 18.906 46.3291C18.906 48.0625 19.8728 49.1074 21.4743 49.1074ZM21.4743 48.0918C20.6296 48.0918 20.1462 47.4473 20.1462 46.3291C20.1462 45.2158 20.6296 44.5664 21.4743 44.5664C22.3142 44.5664 22.7976 45.2158 22.7976 46.3291C22.7976 47.4473 22.319 48.0918 21.4743 48.0918Z" fill="black"/>
<path d="M25.0634 49H26.2743V45.7529C26.2743 45.0986 26.7187 44.6055 27.3192 44.6055C27.9149 44.6055 28.286 44.9619 28.286 45.5479V49H29.4628V45.6748C29.4628 45.0645 29.8778 44.6055 30.5077 44.6055C31.1571 44.6055 31.4843 44.9473 31.4843 45.6357V49H32.6903V45.3281C32.6903 44.2197 32.0458 43.5508 30.9765 43.5508C30.2343 43.5508 29.619 43.9365 29.3554 44.5225H29.2724C29.0478 43.9219 28.5351 43.5508 27.7978 43.5508C27.0897 43.5508 26.5429 43.9121 26.3134 44.5225H26.2304V43.6582H25.0634V49Z" fill="black"/>
<path d="M36.8946 49.0879C38.2423 49.0879 39.087 48.0283 39.087 46.3291C39.087 44.6201 38.2472 43.5703 36.8946 43.5703C36.1622 43.5703 35.547 43.9268 35.2687 44.5078H35.1856V41.5928H33.9747V49H35.1417V48.1553H35.2247C35.5274 48.7412 36.1476 49.0879 36.8946 49.0879ZM36.5138 44.6006C37.339 44.6006 37.8419 45.2549 37.8419 46.3291C37.8419 47.4033 37.3438 48.0576 36.5138 48.0576C35.6837 48.0576 35.1661 47.3936 35.1661 46.3291C35.1661 45.2646 35.6886 44.6006 36.5138 44.6006Z" fill="black"/>
<path d="M40.1175 49H41.3235V43.6582H40.1175V49ZM40.7181 42.7891C41.1624 42.7891 41.4651 42.5059 41.4651 42.1201C41.4651 41.7344 41.1624 41.4512 40.7181 41.4512C40.2786 41.4512 39.971 41.7344 39.971 42.1201C39.971 42.5059 40.2786 42.7891 40.7181 42.7891Z" fill="black"/>
<path d="M42.6274 49H43.8384V45.8896C43.8384 45.1035 44.2925 44.6055 45.0151 44.6055C45.7524 44.6055 46.0942 45.0156 46.0942 45.8311V49H47.3052V45.543C47.3052 44.2686 46.6558 43.5508 45.4644 43.5508C44.6685 43.5508 44.1313 43.917 43.8774 44.5127H43.7944V43.6582H42.6274V49Z" fill="black"/>
<path d="M50.7819 44.5127C51.5095 44.5127 51.988 45.0205 52.0124 45.8115H49.4978C49.5515 45.0303 50.0593 44.5127 50.7819 44.5127ZM52.0222 47.5303C51.8464 47.9258 51.4314 48.1455 50.8308 48.1455C50.0349 48.1455 49.5222 47.5889 49.4929 46.7002V46.6367H53.2233V46.2461C53.2233 44.5615 52.3103 43.5508 50.7868 43.5508C49.239 43.5508 48.2771 44.6299 48.2771 46.3486C48.2771 48.0674 49.2243 49.1074 50.7966 49.1074C52.0564 49.1074 52.9401 48.502 53.1696 47.5303H52.0222Z" fill="black"/>
</svg>
