<svg width="64" height="64" viewBox="0 0 64 64" fill="none" xmlns="http://www.w3.org/2000/svg">
<path fill-rule="evenodd" clip-rule="evenodd" d="M32.2422 8C14.2217 8 8.81563 14.0614 10.2081 18.4027L32.2422 15.6997L39.5323 25.7747V46.4164C39.5323 46.4164 38.3037 47.727 28.8839 47.5631C19.4641 47.3993 12.4197 39.1263 12.4197 39.1263L12.7507 43.0073C13.1153 47.2839 15.1743 51.3243 19.083 53.0974C22.3651 54.5863 26.8905 56 32.2422 56C40.1212 56 44.8929 53.2779 47.0331 51.2192C47.7842 50.4967 48.1447 49.499 48.3338 48.4741C48.9353 45.214 49.6949 41.2646 50.464 37.2662L50.4642 37.265L50.4643 37.2646C52.2627 27.914 54.1126 18.296 54.1126 16.6007C54.1126 14.7527 50.2627 8 32.2422 8ZM25.0339 27.1672C20.9056 26.5775 15.5049 24.1365 13.3206 22.9897L14.9194 36.113C15.1559 38.0543 16.0868 39.8601 17.7234 40.9306C19.4926 42.0878 22.086 43.5008 25.0339 44.2048C28.0798 44.9321 31.4789 44.8521 33.901 44.6369C35.8038 44.4678 37.1568 42.8279 37.1568 40.9176V27.5768C34.8359 27.686 29.1622 27.757 25.0339 27.1672ZM29.3955 18.0009L13.3206 20.2867C14.6585 21.4881 18.8086 24.0874 24.7063 24.8738C30.6039 25.6601 35.1909 25.5291 36.7472 25.3652L32.2395 19.2003C31.5856 18.306 30.4922 17.8449 29.3955 18.0009Z" fill="black"/>
</svg>
