<svg width="64" height="64" viewBox="0 0 64 64" fill="none" xmlns="http://www.w3.org/2000/svg">
<path d="M11.4863 32.5965L16.7905 21.546L17.9061 42.7419L12.1708 37.0066C11.4439 36.2559 11 35.2029 11 34.2084C11 34.0658 11.0474 33.8027 11.153 33.4609C11.2526 33.1388 11.3804 32.8209 11.4863 32.5965Z" stroke="black" stroke-width="2"/>
<path d="M44.9999 19.0417L37.4166 11.4583C36.7545 10.7933 35.3749 10 34.2083 10C33.2049 10 32.222 10.2013 31.5833 10.5833L17.5833 17.5833L44.9999 19.0417Z" fill="black"/>
<path d="M28.0833 54.3334H46.4583V46.4584L32.7499 42.0834L20.2083 46.4584L28.0833 54.3334Z" fill="black"/>
<path d="M17.5833 41.2084C17.5833 43.5475 17.8778 44.1221 19.0416 45.2917L20.2083 46.4584H46.4583L33.6249 31.875L17.5833 17.5834V41.2084Z" fill="black"/>
<path d="M53.3333 28.7893V45.4584H46.8725L19.9975 18.5834H40.9166C41.7052 18.5834 42.2725 18.6215 42.7781 18.7758C43.2576 18.922 43.7376 19.1912 44.2912 19.7472L44.2928 19.7488L53.3333 28.7893Z" stroke="black" stroke-width="2"/>
<path opacity="0.2" d="M54.0417 28.0834V46.1667H46.1667L46.4584 46.4584H54.3334V28.375L54.0417 28.0834Z" fill="black"/>
</svg>
