<svg width="64" height="64" viewBox="0 0 64 64" fill="none" xmlns="http://www.w3.org/2000/svg">
<path fill-rule="evenodd" clip-rule="evenodd" d="M32.1469 46.7054V56C47.9197 56 60.1939 40.8321 55.0319 24.353C52.7377 17.1682 47.0019 11.409 39.7752 9.18517C23.2567 4.05321 8 16.3129 8 31.9938H17.349C17.349 22.1861 27.1569 14.5452 37.5956 18.3086C41.4384 19.6772 44.5356 22.7563 45.9122 26.5767C49.6978 36.9548 42.0694 46.7054 32.1469 46.7054ZM22.8535 46.7623H32.1452V37.5247H22.8535V46.7623ZM22.8541 53.89H15.6846V46.7625V46.7623H22.8541V53.89ZM9.66406 46.7625H15.6291V40.8323H9.66406V46.7625Z" fill="black"/>
</svg>
