<svg width="64" height="64" viewBox="0 0 64 64" fill="none" xmlns="http://www.w3.org/2000/svg">
<g clip-path="url(#clip0_1886_25674)">
<path d="M15.2406 44.2302C13.6472 44.2302 12.1987 42.9353 12.1987 41.3525C12.1987 39.7698 13.5023 38.4748 15.2406 38.4748C16.9788 38.4748 18.2825 39.7698 18.2825 41.3525C18.2825 42.9353 16.8339 44.2302 15.2406 44.2302ZM52.6125 28.5468C52.3228 26.2446 50.8743 24.3741 48.9912 22.9353L48.2669 22.3597L47.6875 23.0791C46.5287 24.3741 46.0942 26.6763 46.239 28.4029C46.3839 29.6978 46.8184 30.9928 47.5427 32C46.9633 32.2878 46.239 32.5755 45.6596 32.8633C44.3559 33.295 43.0522 33.4389 41.7486 33.4389H4.23176L4.08691 34.3022C3.79721 37.036 4.23176 39.9137 5.39058 42.5036L5.96999 43.5108V43.6547C9.44646 49.4101 15.6751 52 22.4832 52C35.5199 52 46.239 46.3885 51.3088 34.3022C54.6405 34.446 57.9721 33.5827 59.5654 30.4173L60 29.6978L59.2757 29.2662C57.3927 28.1151 54.7853 27.9712 52.6125 28.5468ZM33.9265 26.2446H28.2773V31.8561H33.9265V26.2446ZM33.9265 19.1942H28.2773V24.8058H33.9265V19.1942ZM33.9265 12H28.2773V17.6115H33.9265V12ZM40.8795 26.2446H35.2302V31.8561H40.8795V26.2446ZM19.8758 26.2446H14.2266V31.8561H19.8758V26.2446ZM26.9736 26.2446H21.3244V31.8561H26.9736V26.2446ZM12.9229 26.2446H7.27367V31.8561H12.9229V26.2446ZM26.9736 19.1942H21.3244V24.8058H26.9736V19.1942ZM19.8758 19.1942H14.2266V24.8058H19.8758V19.1942Z" fill="black"/>
</g>
<defs>
<clipPath id="clip0_1886_25674">
<rect width="56" height="40" fill="white" transform="translate(4 12)"/>
</clipPath>
</defs>
</svg>
