<svg width="64" height="64" viewBox="0 0 64 64" fill="none" xmlns="http://www.w3.org/2000/svg">
<path fill-rule="evenodd" clip-rule="evenodd" d="M62.2367 33.4391C62.2423 30.9949 61.4924 28.6086 60.0888 26.6073C58.6856 24.606 56.6976 23.0876 54.3977 22.2601C54.6071 21.1933 54.7125 20.1087 54.7128 19.0215C54.7149 15.4231 53.5757 11.9166 51.4592 9.00635C49.3428 6.09608 46.3581 3.93187 42.934 2.82491C39.5103 1.71795 35.8233 1.72525 32.4037 2.84575C28.9842 3.96625 26.0079 6.14226 23.903 9.06086C22.3501 7.85749 20.4473 7.19294 18.4828 7.16798C16.5184 7.14302 14.5993 7.75894 13.0163 8.92243C11.4332 10.086 10.2725 11.7337 9.70995 13.6161C9.14739 15.4984 9.2136 17.5128 9.89856 19.3541C7.59318 20.1945 5.60044 21.7206 4.18835 23.7273C2.77626 25.734 2.01259 28.125 2.00004 30.5787C1.99364 33.0315 2.74774 35.4259 4.1585 37.4322C5.56925 39.4387 7.5673 40.9585 9.87755 41.7823C9.67305 42.8488 9.56872 43.9316 9.56595 45.0173C9.56252 48.6116 10.7007 52.1141 12.8162 55.02C14.9319 57.9256 17.9156 60.0844 21.3373 61.1852C24.7589 62.2856 28.4417 62.2712 31.8546 61.1435C35.2675 60.0161 38.2341 57.8339 40.3267 54.9115C41.8753 56.118 43.7746 56.7864 45.7374 56.8158C47.7001 56.8452 49.6187 56.2335 51.2023 55.074C52.7862 53.914 53.9485 52.2696 54.5129 50.3898C55.0777 48.5097 55.0139 46.4973 54.3312 44.6567C56.6377 43.8179 58.632 42.2921 60.0447 40.2852C61.4577 38.2784 62.2213 35.8865 62.2332 33.4321L62.2367 33.4391ZM25.6816 27.8446L38.8633 33.863L52.1675 22.2113C52.359 21.2499 52.4543 20.2717 52.4511 19.2913C52.4504 16.1176 51.4341 13.0273 49.5505 10.4728C47.6672 7.9183 45.0158 6.03362 41.9838 5.09454C38.9522 4.15546 35.6997 4.21129 32.7021 5.25386C29.7044 6.29644 27.1191 8.271 25.3245 10.8887L23.1083 22.3513L25.6816 27.8446ZM11.7471 44.7686C11.7459 43.7728 11.8433 42.7796 12.0377 41.8031L25.0093 30.0814L38.24 36.1103L41.1704 41.7121L38.9752 53.1502C37.183 55.7855 34.5931 57.777 31.5859 58.8318C28.5786 59.8871 25.3123 59.9505 22.2664 59.0129C19.2204 58.0753 16.5553 56.1861 14.662 53.6222C12.7688 51.0587 11.7471 47.9556 11.7471 44.7686ZM11.9572 18.9934L20.9901 21.1256L22.9682 10.8533C21.7396 9.92173 20.2423 9.41316 18.7005 9.40377C17.1586 9.39436 15.6552 9.88469 14.4154 10.8013C13.1755 11.7178 12.2659 13.0114 11.8228 14.4882C11.3796 15.965 11.4268 17.5457 11.9572 18.9934ZM6.24006 24.7761C7.46678 23.0819 9.19101 21.8121 11.1729 21.1433L21.0986 23.4856L23.4268 28.4572L10.7528 39.9128C8.86278 39.1958 7.23584 37.9203 6.08828 36.2561C4.94068 34.5919 4.32679 32.6179 4.32822 30.5964C4.34506 28.5047 5.01332 26.4704 6.24006 24.7761ZM41.293 53.1501C42.5198 54.0768 44.0134 54.5824 45.5507 54.5904C47.0881 54.5985 48.5869 54.1094 49.8232 53.1956C51.0597 52.2818 51.9672 50.9923 52.4108 49.5201C52.8541 48.0483 52.8093 46.472 52.283 45.0275L43.2572 42.9268L41.293 53.1501ZM53.0638 42.8711L43.1276 40.5498L40.4913 35.5048L53.4874 24.1261C55.3738 24.8411 56.998 26.1128 58.145 27.7723C59.2916 29.4319 59.9067 31.4009 59.9085 33.4181C59.8938 35.5102 59.2265 37.5455 57.9993 39.2401C56.7722 40.935 55.0468 42.2041 53.0638 42.8711Z" fill="black"/>
</svg>
