<svg width="64" height="64" viewBox="0 0 64 64" fill="none" xmlns="http://www.w3.org/2000/svg">
<path d="M39.5346 21.4103H41.2426L46.1104 16.5425L46.3495 14.4758C43.5609 12.0144 40.1909 10.3046 36.5578 9.50789C32.9246 8.71113 29.1483 8.85373 25.5856 9.92219C22.0229 10.9907 18.7914 12.9497 16.1964 15.6143C13.6013 18.279 11.7284 21.5611 10.7545 25.1509C11.2968 24.9286 11.8975 24.8925 12.4625 25.0484L22.1982 23.4428C22.1982 23.4428 22.6935 22.623 22.9497 22.6742C25.0358 20.3832 27.9187 18.9762 31.0082 18.7412C34.0977 18.5063 37.1602 19.4611 39.5687 21.4103H39.5346Z" fill="black"/>
<path d="M53.0448 25.149C51.9259 21.0286 49.6286 17.3245 46.4348 14.491L39.6027 21.323C41.0266 22.4865 42.1677 23.958 42.9399 25.6268C43.7121 27.2955 44.0954 29.1178 44.0606 30.9562V32.1689C44.8591 32.1689 45.6498 32.3262 46.3876 32.6318C47.1253 32.9373 47.7956 33.3852 48.3602 33.9499C48.9249 34.5145 49.3727 35.1848 49.6783 35.9225C49.9839 36.6603 50.1412 37.4509 50.1412 38.2495C50.1412 39.048 49.9839 39.8386 49.6783 40.5764C49.3727 41.3141 48.9249 41.9844 48.3602 42.549C47.7956 43.1137 47.1253 43.5616 46.3876 43.8671C45.6498 44.1727 44.8591 44.33 44.0606 44.33H31.8996L30.6869 45.5597V52.853L31.8996 54.0657H44.0606C47.4566 54.0921 50.7708 53.0248 53.5132 51.0216C56.2555 49.0184 58.2802 46.1857 59.2878 42.9426C60.2954 39.6995 60.2324 36.2182 59.1081 33.0137C57.9837 29.8091 55.8578 27.0516 53.0448 25.149Z" fill="black"/>
<path d="M19.7218 53.9997H31.8829V44.264H19.7218C18.8554 44.2638 17.9992 44.0774 17.2111 43.7174L15.503 44.2469L10.601 49.1147L10.174 50.8227C12.923 52.8985 16.2773 54.0146 19.7218 53.9997Z" fill="black"/>
<path d="M19.7217 22.4173C16.4267 22.437 13.22 23.4854 10.5497 25.4159C7.87935 27.3465 5.87866 30.0629 4.82706 33.1857C3.77546 36.3085 3.72547 39.6818 4.68406 42.8344C5.64266 45.987 7.56198 48.7615 10.1739 50.7704L17.228 43.7163C16.3316 43.3113 15.5468 42.6948 14.941 41.9199C14.3352 41.1449 13.9264 40.2345 13.7498 39.2668C13.5732 38.2991 13.634 37.303 13.927 36.364C14.22 35.4249 14.7364 34.571 15.432 33.8755C16.1275 33.1799 16.9815 32.6635 17.9205 32.3705C18.8595 32.0775 19.8556 32.0167 20.8233 32.1933C21.791 32.3699 22.7014 32.7787 23.4764 33.3845C24.2513 33.9903 24.8678 34.7751 25.2728 35.6715L32.3269 28.6174C30.8463 26.6818 28.938 25.115 26.7513 24.0394C24.5646 22.9638 22.1587 22.4086 19.7217 22.4173Z" fill="black"/>
</svg>
