<svg width="64" height="64" viewBox="0 0 64 64" fill="none" xmlns="http://www.w3.org/2000/svg">
<path fill-rule="evenodd" clip-rule="evenodd" d="M30.6612 14.425C31.086 14.5476 31.5352 14.6132 31.9999 14.6132C32.4662 14.6132 32.9169 14.5471 33.343 14.4237L47.8581 39.5639C47.5332 39.8737 47.2468 40.2346 47.0118 40.6434C46.7783 41.0497 46.6104 41.4763 46.5051 41.9105H17.4951C17.3898 41.4765 17.2219 41.0501 16.9882 40.6434C16.7523 40.2373 16.4666 39.8784 16.1433 39.57L30.6612 14.425ZM28.5424 13.1483C28.5872 13.1947 28.633 13.2402 28.6797 13.2847L14.1613 38.4305C14.0985 38.4123 14.0354 38.3954 13.972 38.3797V25.5515C15.1953 25.2474 16.2976 24.4671 16.9742 23.29C17.65 22.1145 17.7753 20.7734 17.4292 19.5647L28.5424 13.1483ZM36.608 11.1805C36.7372 10.7453 36.8065 10.2842 36.8065 9.80661C36.8065 7.14852 34.658 5 31.9999 5C29.3418 5 27.1933 7.14852 27.1933 9.80661C27.1933 10.2818 27.2619 10.7406 27.3899 11.1739L16.2972 17.5784C15.986 17.2498 15.6229 16.9596 15.2113 16.7205C12.9113 15.3984 9.96397 16.1834 8.64181 18.4834C7.31965 20.7834 8.10468 23.7307 10.4047 25.0529C10.8154 25.289 11.2467 25.4579 11.6857 25.563V38.3735C11.2518 38.4788 10.8253 38.6467 10.4187 38.8805C8.11865 40.2164 7.33361 43.15 8.65578 45.45C9.97794 47.75 12.9115 48.5351 15.2253 47.2129C15.6325 46.9764 15.9922 46.6898 16.3011 46.3655L27.3878 52.7666C27.2612 53.1977 27.1933 53.6541 27.1933 54.1266C27.1933 56.7847 29.3418 58.9332 31.9999 58.9332C34.658 58.9332 36.8065 56.771 36.8065 54.1266C36.8065 53.5971 36.7213 53.0878 36.5637 52.6116L47.5858 46.2479C47.9189 46.622 48.3168 46.9497 48.7747 47.2129C51.0747 48.5351 54.0221 47.75 55.3442 45.45C56.6802 43.15 55.8951 40.2164 53.5814 38.8805C53.1751 38.647 52.7487 38.4792 52.3146 38.3739V25.5629C52.7535 25.4578 53.1847 25.2889 53.5953 25.0529C55.8953 23.717 56.6804 20.7834 55.3582 18.4834C54.0223 16.1834 51.0887 15.3984 48.7887 16.7205C48.375 16.9608 48.0103 17.2528 47.698 17.5835L36.608 11.1805ZM35.3234 13.2816C35.3673 13.2397 35.4104 13.1969 35.4526 13.1533L46.5689 19.5715C46.2252 20.7784 46.3513 22.1167 47.0258 23.29C47.7025 24.4672 48.8049 25.2475 50.0284 25.5516V38.3784C49.966 38.3937 49.9039 38.4102 49.8422 38.428L35.3234 13.2816ZM46.5986 44.5119L35.5545 50.8884C34.676 49.9243 33.4096 49.32 31.9999 49.32C30.6386 49.32 29.411 49.8835 28.5371 50.7904L17.4391 44.3827C17.457 44.321 17.4736 44.259 17.489 44.1967H46.5098C46.5358 44.3027 46.5654 44.4079 46.5986 44.5119Z" fill="black"/>
</svg>
