<svg width="64" height="64" viewBox="0 0 64 64" fill="none" xmlns="http://www.w3.org/2000/svg">
<g clip-path="url(#clip0_2586_25027)">
<path d="M61.4001 32.9811C61.9826 32.8805 62.5314 32.6382 62.9982 32.2756C63.2111 32.0528 63.374 31.7871 63.4762 31.4963C63.5784 31.2056 63.6175 30.8964 63.5908 30.5894C63.5925 30.0838 63.4532 29.5879 63.1887 29.1571C62.9964 28.8293 62.7254 28.5547 62.4001 28.3581C62.0748 28.1616 61.7056 28.0494 61.326 28.0317H60.9415L60.0419 28H55.9709C55.724 28 55.6182 28.1023 55.6182 28.3528V35.4858C55.6182 35.7328 55.7205 35.8386 55.9709 35.8386H57.0293C57.2762 35.8386 57.382 35.7363 57.382 35.4858V33.1223H58.6767C58.9614 33.1371 59.2321 33.2506 59.4422 33.4433L61.4954 35.507C61.6825 35.6984 61.9338 35.814 62.2009 35.8316H63.7778C64.0247 35.8316 64.0847 35.6869 63.9118 35.5105L61.4001 32.9811ZM61.132 31.4642H57.375V29.6651H61.132C61.3162 29.6877 61.4855 29.7777 61.6073 29.9178C61.7291 30.0578 61.7948 30.238 61.7917 30.4235V30.7022C61.7949 30.8882 61.7294 31.0688 61.6076 31.2094C61.4859 31.3501 61.3165 31.4408 61.132 31.4642Z" fill="black"/>
<path d="M53.9741 34.1806H48.1428V32.7095H52.7958C53.0428 32.7095 53.1486 32.6072 53.1486 32.3567V31.4995C53.1486 31.2526 53.0463 31.1467 52.7958 31.1467H48.1393V29.6792H53.9741C54.221 29.6792 54.3269 29.5769 54.3269 29.3264V28.3528C54.3269 28.1058 54.2246 28 53.9741 28H46.6999C46.453 28 46.3472 28.1023 46.3472 28.3528V35.4929C46.3472 35.7398 46.4495 35.8457 46.6999 35.8457H53.9741C54.221 35.8457 54.3269 35.7434 54.3269 35.4929V34.5298C54.3269 34.2829 54.2105 34.1806 53.9741 34.1806Z" fill="black"/>
<path d="M45.0596 30.5752C45.0673 30.0761 44.9288 29.5855 44.661 29.1641C44.4675 28.8282 44.1932 28.5458 43.863 28.3426C43.5329 28.1393 43.1573 28.0216 42.7701 28H37.4221C37.1716 28 37.0693 28.1023 37.0693 28.3528V35.4858C37.0693 35.7328 37.1716 35.8386 37.4221 35.8386H38.5721C38.8191 35.8386 38.9249 35.7398 38.9249 35.4858V29.6686H42.0223C42.6819 29.6686 43.324 30.1061 43.324 30.7657V35.4929C43.324 35.7398 43.4263 35.8457 43.6768 35.8457H44.7174C44.9679 35.8457 45.0702 35.7434 45.0702 35.4929L45.0596 30.5752Z" fill="black"/>
<path d="M35.443 34.1347H30.416L35.4536 29.7074C35.5547 29.6301 35.6383 29.5323 35.6991 29.4204C35.7599 29.3086 35.7964 29.1852 35.8064 29.0583V28.3528C35.8064 28.1058 35.7006 28 35.4536 28H28.1618C27.9149 28 27.809 28.1023 27.809 28.3528V29.33C27.809 29.5769 27.9113 29.6827 28.1618 29.6827H32.836L28.1477 34.0818C28.0474 34.1599 27.9643 34.2579 27.9036 34.3696C27.8429 34.4813 27.8059 34.6043 27.7949 34.7309V35.4964C27.7949 35.7434 27.8972 35.8492 28.1477 35.8492H35.4324C35.6794 35.8492 35.7852 35.7469 35.7852 35.4964V34.484C35.7923 34.237 35.69 34.1347 35.443 34.1347Z" fill="black"/>
<path d="M26.1721 28H18.8909C18.6404 28 18.5381 28.0988 18.5381 28.3528V29.3264C18.5381 29.5734 18.6369 29.6792 18.8909 29.6792H21.6354V35.4929C21.6354 35.7398 21.7377 35.8457 21.9882 35.8457H23.1524C23.3993 35.8457 23.5051 35.7434 23.5051 35.4929V29.6757H26.1756C26.4226 29.6757 26.5284 29.5734 26.5284 29.3229V28.3528C26.5213 28.1129 26.419 28 26.1721 28Z" fill="black"/>
<path d="M16.9014 34.1806H11.0807V32.7095H15.7337C15.9807 32.7095 16.0865 32.6072 16.0865 32.3567V31.4995C16.0865 31.2526 15.9877 31.1467 15.7337 31.1467H11.0807V29.6792H16.9014C17.1483 29.6792 17.2542 29.5769 17.2542 29.3264V28.3528C17.2542 28.1058 17.1519 28 16.9014 28H9.64135C9.39441 28 9.28857 28.1023 9.28857 28.3528V35.4929C9.28857 35.7398 9.39088 35.8457 9.64135 35.8457H16.9014C17.1483 35.8457 17.2542 35.7434 17.2542 35.4929V34.5298C17.2507 34.2829 17.1483 34.1806 16.9014 34.1806Z" fill="black"/>
<path d="M7.63047 28H6.53335C6.28641 28 6.18058 28.1023 6.18058 28.3528V31.1291H1.80972V28.3528C1.80972 28.1058 1.70742 28 1.45695 28H0.352773C0.102304 28 0 28.1023 0 28.3528V35.4964C0 35.7469 0.102304 35.8492 0.352773 35.8492H1.45695C1.70389 35.8492 1.80972 35.7504 1.80972 35.4964V32.6742H6.1841V35.4964C6.1841 35.7434 6.28641 35.8492 6.53688 35.8492H7.634C7.88094 35.8492 7.98677 35.7469 7.98677 35.4964V28.3528C7.97972 28.1129 7.87741 28 7.63047 28Z" fill="black"/>
</g>
<defs>
<clipPath id="clip0_2586_25027">
<rect width="64" height="7.84566" fill="white" transform="translate(0 28)"/>
</clipPath>
</defs>
</svg>
