<svg width="64" height="64" viewBox="0 0 64 64" fill="none" xmlns="http://www.w3.org/2000/svg">
<path d="M50.592 21.392H50.56L38.144 14.16L25.888 21.296L13.312 14L0 21.744V35.824L25.696 50.8L37.984 43.696L50.592 50.992L64 43.248V29.168L50.592 21.392ZM50.528 35.824L40 29.712L50.624 23.504L61.152 29.68L50.528 35.824ZM25.6 23.408L36.224 29.552L25.728 35.664L15.136 29.488L25.6 23.408ZM48.704 22.448L38.304 28.496L27.712 22.352L38.144 16.272L48.704 22.448ZM23.904 22.256L21.76 23.504L13.088 28.4L2.752 22.256L13.344 16.112L23.904 22.256ZM1.856 23.792L12.256 30.064V41.136L1.856 34.8V23.792ZM14.336 31.152L24.736 37.328V48.368L14.336 42.192V31.152ZM39.072 31.28L49.664 37.52V48.464L39.072 42.16V31.28Z" fill="black"/>
</svg>
