<svg width="64" height="64" viewBox="0 0 64 64" fill="none" xmlns="http://www.w3.org/2000/svg">
<path d="M24.3488 47.2938C24.3488 47.2938 22.1962 48.6028 25.845 48.9773C30.2376 49.5373 32.5773 49.4445 37.4389 48.51C38.416 49.1084 39.4493 49.6095 40.5242 50.0063C29.5866 54.6823 15.7439 49.7263 24.347 47.2938H24.3488ZM22.9487 41.2159C22.9487 41.2159 20.6107 42.9922 24.2578 43.3685C29.0266 43.8357 32.7664 43.9285 39.2204 42.6212C39.8481 43.2578 40.6166 43.7379 41.4639 44.023C28.2793 47.95 13.5056 44.3975 22.9487 41.2177V41.2159ZM48.7563 51.8736C48.7563 51.8736 50.3453 53.1826 46.98 54.2116C40.7149 56.0841 20.7052 56.6441 15.0947 54.2116C13.1311 53.3716 16.8709 52.1553 18.0697 51.9681C19.286 51.688 19.9422 51.688 19.9422 51.688C17.7897 50.1918 5.6358 54.7733 13.7716 56.0806C36.1194 59.7276 54.5401 54.4916 48.7423 51.8736H48.7563ZM25.3603 34.8564C25.3603 34.8564 15.1682 37.2889 21.7132 38.1289C24.5185 38.5034 30.0346 38.4089 35.1779 38.0362C39.3849 37.6616 43.5955 36.9161 43.5955 36.9161C43.5955 36.9161 42.0992 37.5706 41.0702 38.2252C30.6926 40.9377 10.7739 39.7214 16.4789 36.9161C21.3405 34.5781 25.362 34.8599 25.362 34.8599L25.3603 34.8564ZM43.5955 45.0485C54.0676 39.6234 49.206 34.3909 45.839 35.0436C44.999 35.2309 44.6227 35.4181 44.6227 35.4181C44.6227 35.4181 44.9027 34.8581 45.5572 34.6709C52.1968 32.3328 57.4329 41.6832 43.4047 45.3285C43.4047 45.3285 43.4975 45.2357 43.592 45.0485H43.5955ZM26.3928 59.8221C36.4904 60.4766 51.9203 59.4476 52.2931 54.6771C52.2931 54.6771 51.5458 56.5496 43.9717 57.9496C35.3686 59.5386 24.7093 59.3496 18.4442 58.3241C18.4442 58.3241 19.7532 59.4441 26.3928 59.8204V59.8221Z" fill="black"/>
<path d="M37.2533 4C37.2533 4 43.0512 9.89056 31.7373 18.7737C22.6669 25.9732 29.681 30.0875 31.7373 34.7636C26.4067 29.9948 22.5742 25.786 25.1922 21.8607C29.0248 16.0611 39.5914 13.2734 37.2533 4ZM34.2783 30.8365C36.9908 33.9218 33.531 36.7271 33.531 36.7271C33.531 36.7271 40.4506 33.1746 37.2708 28.7785C34.3728 24.5715 32.1258 22.5135 44.2832 15.5011C44.2832 15.5011 25.1152 20.2699 34.2783 30.8365Z" fill="black"/>
</svg>
