<svg width="64" height="64" viewBox="0 0 64 64" fill="none" xmlns="http://www.w3.org/2000/svg">
<g clip-path="url(#clip0_1886_25678)">
<path d="M32.0542 5.74777C32.5613 5.74777 33.0682 5.85921 33.5389 6.08233L51.8609 15.0438C52.8023 15.5272 53.5264 16.4197 53.7437 17.461L58.2698 37.6521C58.5233 38.7305 58.2698 39.8461 57.5819 40.7011L44.9087 56.8766C44.2569 57.7317 43.2429 58.2151 42.193 58.2151H21.8795C20.8293 58.2151 19.8156 57.7317 19.1638 56.8766L6.4906 40.7011C5.83881 39.8461 5.58515 38.7305 5.80264 37.6521L10.3288 17.461C10.5822 16.3825 11.2702 15.4901 12.2116 15.0438L30.5338 6.04541C31.0045 5.85944 31.5473 5.74777 32.0542 5.74777ZM32.0542 4C31.2939 4 30.5336 4.18597 29.8092 4.52053L11.4874 13.5194C10.0389 14.2259 9.02519 15.5272 8.66301 17.1262L4.13688 37.3175C3.77492 38.9164 4.13688 40.5525 5.15085 41.8541L17.824 58.0293C18.8018 59.2935 20.2863 60 21.8433 60H42.1566C43.7136 60 45.1983 59.2935 46.1759 58.0293L58.8493 41.8539C59.863 40.5897 60.2252 38.9164 59.863 37.3173L55.3369 17.1262C54.9749 15.5272 53.961 14.2259 52.5127 13.5194L34.263 4.5203C33.5751 4.18597 32.8147 4 32.0542 4Z" fill="black"/>
<path d="M50.3932 36.0468C50.357 36.0468 50.357 36.0468 50.3932 36.0468H50.357C50.3209 36.0468 50.2848 36.0468 50.2848 36.0096C50.2125 36.0096 50.1403 35.9724 50.0678 35.9724C49.8147 35.9353 49.5977 35.8981 49.3807 35.8981C49.2721 35.8981 49.1637 35.8981 49.0189 35.8607H48.9828C48.2234 35.7863 47.6086 35.712 47.0299 35.5259C46.7768 35.4141 46.7045 35.2654 46.632 35.1165C46.632 35.0793 46.5959 35.0793 46.5959 35.0422L46.1258 34.8935C46.3479 33.143 46.2621 31.3657 45.8727 29.6464C45.4778 27.9129 44.7925 26.2633 43.8475 24.7718L44.2092 24.437V24.3626C44.2092 24.1765 44.2453 23.9904 44.3898 23.8043C44.8238 23.395 45.3664 23.0602 46.0174 22.6508C46.1258 22.5764 46.2342 22.5393 46.3428 22.4647C46.5598 22.3532 46.7406 22.2416 46.9576 22.0927C46.9937 22.0555 47.066 22.0184 47.1385 21.944C47.1746 21.9066 47.2107 21.9066 47.2107 21.8694C47.717 21.4229 47.8256 20.6787 47.4639 20.1948C47.283 19.9343 46.9576 19.7856 46.632 19.7856C46.343 19.7856 46.0896 19.8972 45.8365 20.0832L45.7643 20.1576C45.692 20.1948 45.6557 20.2693 45.5834 20.3065C45.4025 20.4926 45.2578 20.6413 45.1133 20.8274C45.041 20.9018 44.9688 21.0135 44.8602 21.0879C44.3537 21.6462 43.8836 22.0927 43.4135 22.4275C43.3051 22.5019 43.1967 22.5393 43.0881 22.5393C43.0158 22.5393 42.9434 22.5393 42.8711 22.5019H42.7988L42.3646 22.7997C41.8945 22.2788 41.3883 21.8323 40.882 21.3857C38.7021 19.6324 36.0786 18.5604 33.3236 18.2971L33.2875 17.8133L33.2152 17.739C33.1066 17.6272 32.9621 17.5157 32.9257 17.2553C32.8896 16.6598 32.9621 15.99 33.0344 15.2458V15.2086C33.0344 15.0969 33.0705 14.9482 33.1066 14.8364C33.1427 14.6134 33.1789 14.3899 33.2152 14.1294V13.7947C33.2152 13.1248 32.7087 12.5668 32.0941 12.5668C31.8046 12.5668 31.5154 12.7155 31.2984 12.9387C31.0816 13.162 30.973 13.4596 30.973 13.7947V14.0922C30.973 14.3527 31.0092 14.576 31.0814 14.7992C31.1175 14.911 31.1175 15.0225 31.1537 15.1714V15.2086C31.2259 15.9528 31.3345 16.6226 31.2623 17.2181C31.2261 17.4785 31.0814 17.5901 30.973 17.7018L30.9008 17.7762L30.8644 18.2599C30.2134 18.3342 29.5625 18.4086 28.9115 18.5575C26.1269 19.1902 23.6677 20.6415 21.7511 22.7251L21.3894 22.4647H21.3171C21.2449 22.4647 21.1724 22.5019 21.1002 22.5019C20.9915 22.5019 20.8832 22.4647 20.7746 22.3903C20.3044 22.0555 19.8343 21.5716 19.3281 21.0135C19.2558 20.9392 19.1836 20.8274 19.075 20.7531C18.9302 20.567 18.7855 20.418 18.6046 20.2322C18.5685 20.1948 18.4962 20.1578 18.424 20.0832C18.3878 20.0461 18.3517 20.0461 18.3517 20.0089C18.1277 19.8184 17.8466 19.7132 17.556 19.711C17.2304 19.711 16.905 19.86 16.7242 20.1204C16.3624 20.6041 16.471 21.3483 16.9773 21.7949C17.0134 21.7949 17.0134 21.8323 17.0495 21.8323C17.1218 21.8694 17.1581 21.9438 17.2304 21.981C17.4474 22.1297 17.6283 22.2414 17.8453 22.3532C17.9539 22.3903 18.0622 22.4647 18.1709 22.5393C18.8216 22.9484 19.3642 23.2834 19.7982 23.6928C19.9791 23.8787 19.9791 24.0648 19.9791 24.2509V24.3252L20.3406 24.6603C20.2683 24.7718 20.1961 24.8464 20.1597 24.9579C18.3515 27.8976 17.6644 31.3583 18.1345 34.7817L17.6644 34.9304C17.6644 34.9678 17.6283 34.9678 17.6283 35.0048C17.556 35.1537 17.4474 35.3026 17.2304 35.4141C16.688 35.6002 16.037 35.6748 15.2777 35.7492H15.2413C15.1329 35.7492 14.9882 35.7492 14.8798 35.7863C14.6628 35.7863 14.4458 35.8235 14.1927 35.8607C14.1205 35.8607 14.0482 35.8981 13.9757 35.8981C13.9396 35.8981 13.9035 35.8981 13.8671 35.9353C13.2162 36.084 12.8183 36.7166 12.9269 37.3119C13.0355 37.833 13.5056 38.168 14.0841 38.168C14.1927 38.168 14.265 38.168 14.3736 38.1306C14.4097 38.1306 14.4458 38.1306 14.4458 38.0934C14.5181 38.0934 14.5904 38.0563 14.6626 38.0563C14.916 37.9819 15.0968 37.9076 15.3138 37.7958C15.4222 37.7586 15.5306 37.6841 15.6392 37.6471H15.6753C16.3624 37.3864 16.9773 37.1632 17.556 37.0888H17.6283C17.8453 37.0888 17.99 37.2003 18.0984 37.2749C18.1345 37.2749 18.1345 37.3121 18.1706 37.3121L18.6771 37.2377C19.5451 39.9911 21.2085 42.4472 23.4146 44.2334C23.9209 44.6425 24.4271 44.9775 24.9697 45.3126L24.7527 45.7961C24.7527 45.8334 24.7888 45.8334 24.7888 45.8704C24.8611 46.0193 24.9333 46.2054 24.8611 46.4659C24.6443 47.0242 24.3187 47.5822 23.9208 48.2149V48.2521C23.8486 48.3638 23.7763 48.4382 23.7041 48.5497C23.5593 48.7358 23.4507 48.9219 23.306 49.1452C23.2699 49.1823 23.2337 49.2567 23.1976 49.3313C23.1976 49.3684 23.1615 49.4056 23.1615 49.4056C22.8722 50.0383 23.0892 50.7452 23.6316 51.0057C23.7761 51.08 23.9209 51.1175 24.0656 51.1175C24.4996 51.1175 24.9336 50.8196 25.1506 50.4102C25.1506 50.3731 25.1867 50.3359 25.1867 50.3359C25.2228 50.2615 25.2589 50.1872 25.2951 50.1498C25.4037 49.8893 25.4398 49.7032 25.5121 49.48L25.6207 49.1452C25.8738 48.401 26.0547 47.8055 26.38 47.2846C26.5246 47.0613 26.7056 47.0242 26.8501 46.9496C26.8863 46.9496 26.8863 46.9496 26.9224 46.9124L27.1758 46.4287C28.767 47.0613 30.5029 47.3961 32.2386 47.3961C33.2875 47.3961 34.3724 47.2846 35.3851 47.0242C36.0224 46.8775 36.6504 46.6911 37.2656 46.4659L37.4824 46.8752C37.5187 46.8752 37.5187 46.8752 37.5549 46.9124C37.7357 46.9496 37.8802 47.0242 38.025 47.2474C38.3142 47.7683 38.5312 48.401 38.7843 49.108V49.1452L38.893 49.48C38.9652 49.7032 39.0013 49.9265 39.1097 50.1498C39.1461 50.2241 39.1822 50.2615 39.2183 50.3359C39.2183 50.3731 39.2547 50.4102 39.2547 50.4102C39.4715 50.8568 39.9054 51.1175 40.3394 51.1175C40.4842 51.1175 40.6289 51.08 40.7734 51.0057C41.0265 50.857 41.2435 50.6335 41.316 50.3359C41.3883 50.0383 41.3883 49.7032 41.2438 49.4056C41.2438 49.3684 41.2074 49.3684 41.2074 49.3313C41.1713 49.2569 41.1351 49.1826 41.099 49.1452C40.9904 48.9219 40.8459 48.7358 40.7012 48.5497C40.6289 48.4382 40.5566 48.3638 40.4844 48.2523V48.2149C40.0863 47.5822 39.7246 47.0242 39.5439 46.4659C39.4717 46.2054 39.5439 46.0567 39.5801 45.8706C39.5801 45.8334 39.6162 45.8335 39.6162 45.7963L39.4353 45.3497C41.3521 44.1962 42.9795 42.5587 44.2092 40.5494C44.8602 39.5074 45.3664 38.3539 45.7279 37.2003L46.1619 37.2747C46.1982 37.2747 46.1982 37.2375 46.2342 37.2375C46.3789 37.1632 46.4875 37.0516 46.7045 37.0516H46.7768C47.3555 37.126 47.9701 37.349 48.6574 37.6097H48.6936C48.802 37.6469 48.9103 37.7212 49.0189 37.7584C49.2359 37.8702 49.4168 37.9445 49.6699 38.0191C49.7422 38.0191 49.8144 38.0563 49.8869 38.0563C49.923 38.0563 49.9592 38.0563 49.9953 38.0934C50.1039 38.1306 50.1762 38.1306 50.2848 38.1306C50.8271 38.1306 51.2973 37.7586 51.442 37.2749C51.442 36.8284 51.0441 36.2327 50.3932 36.0468ZM33.649 34.2234L32.0578 35.005L30.4666 34.2234L30.0689 32.4746L31.1537 31.0606H32.9257L34.0107 32.4746L33.649 34.2234ZM43.0881 30.3536C43.3686 31.5841 43.4541 32.8531 43.3412 34.1117L37.808 32.4746C37.3017 32.3259 37.0125 31.8048 37.1209 31.2839C37.157 31.135 37.2295 30.9861 37.3379 30.8745L41.7139 26.8184C42.3285 27.8604 42.7986 29.0514 43.0881 30.3536ZM39.9779 24.5859L35.2404 28.0465C34.8426 28.307 34.3 28.2324 33.9746 27.8233C33.8662 27.7115 33.8301 27.5626 33.7937 27.4139L33.4683 21.3483C35.9313 21.6401 38.2257 22.7813 39.9779 24.5859ZM29.4902 21.5342C29.8881 21.4598 30.2496 21.3855 30.6474 21.3111L30.322 27.2647C30.2859 27.7856 29.8881 28.2322 29.3455 28.2322C29.201 28.2322 29.0201 28.195 28.9115 28.1207L24.1017 24.5859C25.5845 23.0602 27.4289 22.0179 29.4902 21.5342ZM22.3658 26.8182L26.6693 30.7626C27.0671 31.0976 27.1033 31.73 26.7779 32.1394C26.6693 32.2881 26.5248 32.3998 26.3439 32.4372L20.7384 34.1117C20.5214 31.5813 21.0638 29.0138 22.3658 26.8182ZM21.3892 36.9025L27.1396 35.8976C27.6097 35.8605 28.0437 36.1955 28.1521 36.6792C28.1882 36.9023 28.1882 37.0886 28.116 37.2747L25.9099 42.7446C23.8847 41.4049 22.2572 39.3583 21.3892 36.9025ZM34.5894 44.3075C33.7576 44.4936 32.9257 44.6051 32.0578 44.6051C30.7922 44.6051 29.5625 44.3821 28.4055 44.0099L31.2623 38.6887C31.5515 38.3537 32.0216 38.205 32.4195 38.4282C32.5884 38.5347 32.7357 38.6736 32.8535 38.8374L35.6381 44.0099C35.3127 44.1214 34.9512 44.196 34.5894 44.3075ZM41.6414 39.1352C40.7373 40.6236 39.5437 41.8143 38.1697 42.7446L35.8914 37.1255C35.7828 36.6792 35.9637 36.1955 36.3976 35.972C36.5422 35.8976 36.723 35.8605 36.9039 35.8605L42.6902 36.8653C42.4732 37.6838 42.1115 38.4282 41.6414 39.1352Z" fill="black"/>
</g>
<defs>
<clipPath id="clip0_1886_25678">
<rect width="56" height="56" fill="white" transform="translate(4 4)"/>
</clipPath>
</defs>
</svg>
