<svg width="64" height="64" viewBox="0 0 64 64" fill="none" xmlns="http://www.w3.org/2000/svg">
<path fill-rule="evenodd" clip-rule="evenodd" d="M55.6005 18.8588C55.6178 18.9228 55.6266 18.9888 55.6268 19.0551V29.3582C55.6268 29.4904 55.5919 29.6203 55.5256 29.7348C55.4593 29.8492 55.364 29.9441 55.2493 30.0099L46.6017 34.9886V44.8569C46.6017 45.1255 46.459 45.3734 46.2261 45.5087L28.1751 55.9C28.1337 55.9234 28.0887 55.9385 28.0436 55.9544C28.0267 55.9601 28.0108 55.9704 27.9929 55.9751C27.8667 56.0083 27.7341 56.0083 27.6079 55.9751C27.5873 55.9695 27.5685 55.9582 27.5487 55.9507C27.5074 55.9356 27.4642 55.9226 27.4248 55.9L9.37749 45.5087C9.26284 45.4428 9.16758 45.3479 9.10131 45.2334C9.03503 45.119 9.00009 44.9892 9 44.8569V13.9477C9 13.8801 9.00939 13.8144 9.02629 13.7505C9.03193 13.7289 9.04507 13.7092 9.05259 13.6876C9.06667 13.6482 9.07982 13.6078 9.10048 13.5712C9.11456 13.5467 9.13522 13.527 9.15212 13.5045C9.17372 13.4744 9.19344 13.4435 9.2188 13.4172C9.24039 13.3956 9.26856 13.3796 9.29298 13.3608C9.32021 13.3383 9.34463 13.3139 9.37561 13.296H9.37655L18.4007 8.10036C18.5149 8.03461 18.6445 8 18.7763 8C18.9081 8 19.0376 8.03461 19.1519 8.10036L28.176 13.296H28.1779C28.2079 13.3148 28.2333 13.3383 28.2605 13.3599C28.2849 13.3787 28.3122 13.3956 28.3338 13.4162C28.36 13.4435 28.3788 13.4744 28.4014 13.5045C28.4174 13.527 28.4389 13.5467 28.4521 13.5712C28.4737 13.6087 28.4859 13.6482 28.5009 13.6876C28.5084 13.7092 28.5215 13.7289 28.5272 13.7515C28.5445 13.8155 28.5534 13.8814 28.5535 13.9477V33.2533L36.0733 28.9234V19.0542C36.0733 18.9885 36.0827 18.9218 36.0995 18.8588C36.1061 18.8364 36.1183 18.8166 36.1259 18.795C36.1409 18.7556 36.154 18.7152 36.1747 18.6785C36.1888 18.6541 36.2094 18.6345 36.2254 18.6119C36.248 18.5819 36.2668 18.5509 36.293 18.5246C36.3146 18.503 36.3418 18.487 36.3663 18.4682C36.3945 18.4457 36.4189 18.4213 36.4489 18.4034H36.4499L45.4749 13.2078C45.5891 13.1419 45.7186 13.1073 45.8505 13.1073C45.9823 13.1073 46.1119 13.1419 46.2261 13.2078L55.2502 18.4034C55.2822 18.4222 55.3066 18.4457 55.3348 18.4673C55.3582 18.486 55.3854 18.503 55.4071 18.5236C55.4333 18.5509 55.4521 18.5819 55.4747 18.6119C55.4915 18.6345 55.5122 18.6541 55.5254 18.6785C55.547 18.7152 55.5592 18.7556 55.5742 18.795C55.5826 18.8166 55.5948 18.8364 55.6005 18.8588ZM54.1225 28.9234V20.3557L50.9645 22.1736L46.6017 24.6856V33.2533L54.1234 28.9234H54.1225ZM45.0984 44.4222V35.8488L40.807 38.2997L28.5525 45.2936V53.9478L45.0984 44.4222ZM10.5043 15.2483V44.4222L27.0482 53.9468V45.2945L18.4053 40.4031L18.4025 40.4012L18.3988 40.3994C18.3697 40.3825 18.3453 40.3581 18.318 40.3374C18.2945 40.3186 18.2673 40.3035 18.2467 40.2829L18.2448 40.2801C18.2204 40.2566 18.2034 40.2275 18.1828 40.2012C18.164 40.1758 18.1415 40.1542 18.1265 40.128L18.1255 40.1252C18.1086 40.097 18.0983 40.0632 18.0861 40.0313C18.0739 40.0031 18.0579 39.9768 18.0504 39.9467V39.9458C18.041 39.9101 18.0391 39.8726 18.0354 39.836C18.0317 39.8078 18.0241 39.7796 18.0241 39.7514V39.7495V19.5782L13.6623 17.0653L10.5043 15.2492V15.2483ZM18.7772 9.61971L11.2584 13.9477L18.7753 18.2757L26.2933 13.9468L18.7753 9.61971H18.7772ZM22.6873 36.6301L27.0492 34.1191V15.2483L23.8912 17.0663L19.5284 19.5782V38.449L22.6873 36.6301ZM45.8505 14.7271L38.3326 19.0551L45.8505 23.3831L53.3675 19.0542L45.8505 14.7271ZM45.0984 24.6856L40.7356 22.1736L37.5776 20.3557V28.9234L41.9394 31.4344L45.0984 33.2533V24.6856ZM27.7995 43.9931L38.8265 37.6977L44.3387 34.552L36.8264 30.2268L28.1769 35.2065L20.2937 39.7448L27.7995 43.9931Z" fill="black"/>
</svg>
