<svg width="64" height="64" viewBox="0 0 64 64" fill="none" xmlns="http://www.w3.org/2000/svg">
<path fill-rule="evenodd" clip-rule="evenodd" d="M48.456 39.3318C48.6588 39.2153 48.8274 39.0476 48.9449 38.8454C49.0624 38.6432 49.1246 38.4136 49.1253 38.1798L49.1493 30.4638C49.1501 30.2299 49.2123 30.0004 49.3298 29.7982C49.4473 29.596 49.6159 29.4282 49.8187 29.3118L54.0013 26.9091C54.204 26.7927 54.4338 26.7316 54.6676 26.732C54.9013 26.7324 55.1309 26.7942 55.3332 26.9113C55.5356 27.0284 55.7035 27.1967 55.8203 27.3992C55.9371 27.6017 55.9986 27.8313 55.9987 28.0651V42.0931C55.9986 42.3276 55.9367 42.558 55.8192 42.761C55.7017 42.9639 55.5327 43.1323 55.3293 43.2491L39.544 52.3158C39.3424 52.4315 39.114 52.4925 38.8815 52.4928C38.649 52.493 38.4205 52.4324 38.2187 52.3171L25.8307 45.2318C25.6266 45.1152 25.457 44.9468 25.3389 44.7435C25.2209 44.5403 25.1587 44.3095 25.1587 44.0744V37.0011C25.1587 36.9931 25.168 36.9878 25.176 36.9918C25.1827 36.9958 25.192 36.9918 25.192 36.9824V36.9744C25.192 36.9691 25.1947 36.9638 25.2 36.9611L35.4027 31.0998C35.412 31.0944 35.408 31.0798 35.3973 31.0798C35.3945 31.0798 35.3918 31.0786 35.3898 31.0766C35.3878 31.0746 35.3867 31.0719 35.3867 31.0691L35.4067 24.1344C35.4076 23.8999 35.3467 23.6693 35.23 23.4659C35.1134 23.2625 34.9452 23.0934 34.7423 22.9758C34.5395 22.8581 34.3092 22.796 34.0747 22.7958C33.8402 22.7956 33.6097 22.8572 33.4067 22.9744L25.824 27.3438C25.6216 27.4603 25.3922 27.5216 25.1587 27.5216C24.9251 27.5216 24.6957 27.4603 24.4933 27.3438L16.8867 22.9638C16.684 22.8471 16.4542 22.7857 16.2204 22.7859C15.9865 22.7861 15.7568 22.8477 15.5543 22.9647C15.3519 23.0817 15.1837 23.2499 15.0667 23.4524C14.9498 23.6549 14.8881 23.8846 14.888 24.1184V36.6518C14.8882 36.8854 14.8269 37.1149 14.7105 37.3174C14.594 37.5199 14.4264 37.6883 14.2244 37.8056C14.0224 37.9229 13.7931 37.9851 13.5595 37.986C13.3259 37.9868 13.0962 37.9263 12.8933 37.8104L8.672 35.3971C8.46754 35.2803 8.29765 35.1114 8.17961 34.9077C8.06158 34.7039 7.99961 34.4726 8 34.2371L8.03734 12.3304C8.03784 12.0969 8.09968 11.8676 8.21667 11.6654C8.33365 11.4633 8.50168 11.2955 8.70392 11.1787C8.90617 11.0619 9.13554 11.0003 9.36909 11C9.60263 10.9997 9.83215 11.0608 10.0347 11.1771L24.4947 19.4824C24.6967 19.5985 24.9257 19.6595 25.1587 19.6595C25.3917 19.6595 25.6206 19.5985 25.8227 19.4824L40.2787 11.1771C40.4815 11.0606 40.7114 10.9996 40.9452 11C41.1791 11.0005 41.4088 11.0624 41.6111 11.1797C41.8135 11.2969 41.9815 11.4654 42.0982 11.668C42.2149 11.8707 42.2762 12.1006 42.276 12.3344V34.2464C42.2761 34.4808 42.2144 34.7111 42.0971 34.9141C41.9798 35.117 41.8111 35.2855 41.608 35.4024L34.0373 39.7624C33.834 39.8797 33.6652 40.0485 33.548 40.2519C33.4308 40.4552 33.3694 40.6859 33.3699 40.9206C33.3705 41.1554 33.4329 41.3858 33.5511 41.5886C33.6692 41.7914 33.8388 41.9595 34.0427 42.0758L38.2187 44.4531C38.4205 44.568 38.6488 44.6282 38.881 44.6277C39.1132 44.6273 39.3413 44.5661 39.5427 44.4504L48.456 39.3318ZM49.332 19.6758C49.3322 19.9116 49.3949 20.1431 49.5137 20.3467C49.6326 20.5504 49.8033 20.7189 50.0085 20.835C50.2137 20.9512 50.4461 21.0109 50.6818 21.0079C50.9176 21.005 51.1484 20.9396 51.3507 20.8184L55.3507 18.4184C55.5481 18.3001 55.7116 18.1327 55.8251 17.9324C55.9387 17.7322 55.9985 17.506 55.9987 17.2758V12.3851C55.9982 12.1494 55.9354 11.9181 55.8164 11.7146C55.6975 11.5111 55.5267 11.3428 55.3216 11.2268C55.1164 11.1108 54.8842 11.0513 54.6485 11.0543C54.4128 11.0572 54.1822 11.1226 53.98 11.2438L49.98 13.6438C49.7825 13.7621 49.6191 13.9295 49.5055 14.1298C49.392 14.33 49.3322 14.5562 49.332 14.7864V19.6771V19.6758Z" fill="black"/>
</svg>
