<svg width="64" height="64" viewBox="0 0 64 64" fill="none" xmlns="http://www.w3.org/2000/svg">
<path d="M29.7575 52.9916C37.4661 51.6298 43.833 50.503 43.9061 50.4875L44.039 50.4593L36.7614 41.8027C32.7586 37.0416 29.4837 33.1277 29.4837 33.1051C29.4837 33.0624 36.9985 12.3682 37.0407 12.2946C37.0549 12.27 42.1689 21.0993 49.4376 33.6974C56.2426 45.4919 61.853 55.2166 61.9052 55.3077L62 55.4734L38.8709 55.4705L15.7418 55.4675L29.7575 52.9916ZM2 50.3517C2 50.3396 5.42921 44.3867 9.62047 37.1232L17.2409 23.9168L26.1217 16.4641C31.0061 12.365 35.0156 9.00629 35.0317 9.00017C35.0478 8.99404 34.9835 9.15576 34.8889 9.35954C34.7943 9.56333 30.4548 18.871 25.2456 30.0433L15.7744 50.3566L8.8872 50.3652C5.09924 50.37 2 50.3639 2 50.3517Z" fill="black"/>
</svg>
