<svg width="64" height="64" viewBox="0 0 64 64" fill="none" xmlns="http://www.w3.org/2000/svg">
<path d="M37.5006 7.13324C34.8146 3.94631 32.5016 0.709591 32.029 0.0373469C31.9793 -0.012449 31.9047 -0.012449 31.8549 0.0373469C31.3824 0.709591 29.0694 3.94631 26.3833 7.13324C3.32793 36.5375 30.0145 56.3813 30.0145 56.3813L30.2383 56.5307C30.4373 59.593 30.9347 64 30.9347 64H31.9295H32.9244C32.9244 64 33.4218 59.6179 33.6208 56.5307L33.8446 56.3564C33.8695 56.3813 60.5561 36.5375 37.5006 7.13324ZM31.9295 55.933C31.9295 55.933 30.7357 54.9123 30.4124 54.3895V54.3395L31.8549 22.321C31.8549 22.2213 32.0042 22.2213 32.0042 22.321L33.4467 54.3395V54.3895C33.1233 54.9123 31.9295 55.933 31.9295 55.933Z" fill="black"/>
</svg>
