<svg width="64" height="64" viewBox="0 0 64 64" fill="none" xmlns="http://www.w3.org/2000/svg">
<path d="M13.9496 34.248L14.0936 29.4H13.8776L10.6376 38.016L7.3976 29.4H7.1816L7.3256 34.248V42H4.5896V25.248H8.3336L10.6616 31.416H10.8296L13.1816 25.248H16.6856V42H13.9496V34.248Z" fill="black"/>
<path d="M22.8202 42L18.2362 25.248H21.6922L23.7802 33.72L25.0042 39H25.1722L26.4202 33.72L28.5322 25.248H31.8202L27.2362 42H22.8202Z" fill="black"/>
<path d="M37.2108 42L32.6269 25.248H36.0828L38.1708 33.72L39.3949 39H39.5629L40.8108 33.72L42.9228 25.248H46.2108L41.6269 42H37.2108Z" fill="black"/>
<path d="M57.1215 34.248L57.2655 29.4H57.0495L53.8095 38.016L50.5695 29.4H50.3535L50.4975 34.248V42H47.7615V25.248H51.5055L53.8335 31.416H54.0015L56.3535 25.248H59.8575V42H57.1215V34.248Z" fill="black"/>
</svg>
