<svg width="64" height="64" viewBox="0 0 64 64" fill="none" xmlns="http://www.w3.org/2000/svg">
<path d="M56 38.7792V53.93C55.834 53.9253 55.6679 53.9162 55.5019 53.9162C50.7719 53.9154 46.0418 53.9119 41.3118 53.9233C40.9872 53.9241 40.7672 53.8255 40.5455 53.5995C39.5222 52.5564 38.483 51.5295 37.4502 50.4959C36.4587 49.5033 35.4685 48.5098 34.4403 47.479H44.5089C41.1742 44.186 37.9191 40.9715 34.6509 37.7448C34.5322 37.8576 34.4384 37.9428 34.3489 38.0323C29.1613 43.2127 23.9723 48.3919 18.7915 53.5798C18.5438 53.8279 18.2969 53.9241 17.9499 53.9225C14.7965 53.9103 11.6432 53.9154 8.4898 53.9154C8.35414 53.9154 8.21848 53.9154 8 53.9154C15.1866 46.7305 22.3132 39.6054 29.4934 32.4264C22.3439 25.2789 15.2355 18.172 8.06823 11.0063C8.27014 11.0063 8.40502 11.0063 8.53989 11.0063C11.6806 11.0063 14.821 11.0107 17.9617 11C18.2808 10.9988 18.5052 11.0883 18.7331 11.3171C23.9206 16.516 29.1164 21.7067 34.3067 26.9029C34.4135 27.0097 34.475 27.162 34.5074 27.2128C37.8378 23.8832 41.0842 20.6376 44.3425 17.3801H34.4853C34.5701 17.2795 34.6001 17.2385 34.6356 17.203C36.6382 15.2 38.6388 13.1947 40.6516 11.2015C40.7691 11.0852 40.9853 11.0162 41.156 11.0146C42.6172 11 44.0787 11.0055 45.5398 11.0063C49.0264 11.0087 52.513 11.0122 55.9996 11.0154V26.1666C55.8931 26.2541 55.7788 26.3338 55.6817 26.4308C53.7706 28.338 51.8619 30.2471 49.9528 32.1558C49.8633 32.2454 49.7777 32.3392 49.6846 32.4366C49.7201 32.4899 49.7422 32.5372 49.7769 32.5719C51.8505 34.6415 53.9248 36.7104 55.9996 38.7792H56ZM40.0013 32.4836C43.1448 35.6685 46.3065 38.8711 49.5166 42.1239V22.9702C46.338 26.1484 43.1874 29.2983 40.0013 32.484V32.4836Z" fill="black"/>
</svg>
