<svg width="64" height="64" viewBox="0 0 64 64" fill="none" xmlns="http://www.w3.org/2000/svg">
<g clip-path="url(#clip0_1886_25465)">
<path d="M58.8264 49.0985C55.3603 49.0121 52.6739 49.359 50.4208 50.312C49.7709 50.5717 48.731 50.5721 48.6442 51.3951C48.991 51.742 49.0343 52.3051 49.3376 52.7817C49.8579 53.6479 50.7673 54.818 51.5907 55.4248C52.5005 56.1179 53.4105 56.811 54.3635 57.4177C56.0533 58.4577 57.9598 59.064 59.6062 60.104C60.5597 60.7102 61.5125 61.4906 62.4657 62.1405C62.9425 62.4868 63.2456 63.0502 63.8523 63.2668V63.137C63.5489 62.7469 63.4622 62.1837 63.1591 61.7504C62.7262 61.3171 62.2925 60.9272 61.8592 60.4939C60.6027 58.8042 59.043 57.331 57.3532 56.1179C55.967 55.1647 52.9338 53.8648 52.3705 52.2617L52.2839 52.1753C53.2371 52.0885 54.3635 51.742 55.2735 51.4818C56.7468 51.0918 58.0899 51.1785 59.6062 50.7887C60.2994 50.6153 60.9928 50.3986 61.6858 50.182V49.7922C60.9063 49.0121 60.3428 47.9724 59.5196 47.2358C57.31 45.329 54.8834 43.4662 52.3705 41.9065C51.0272 41.04 49.2941 40.4765 47.8644 39.7402C47.3447 39.4798 46.4778 39.3502 46.1749 38.9169C45.3947 37.9636 44.9614 36.7073 44.3982 35.5806C43.1421 33.1974 41.9286 30.5548 40.8453 28.0419C40.0657 26.352 39.589 24.6621 38.6357 23.1025C34.173 15.7368 29.3203 11.2741 21.8681 6.89791C20.2649 5.9881 18.3586 5.59803 16.3221 5.12163C15.2394 5.07807 14.1559 4.99164 13.0727 4.94819C12.3795 4.64489 11.6861 3.82174 11.0794 3.43166C8.61027 1.8718 2.24083 -1.50746 0.420992 2.95526C-0.748906 5.77157 2.15417 8.54432 3.15052 9.97431C3.88747 10.9708 4.84049 12.0972 5.36045 13.2239C5.66375 13.96 5.75019 14.7403 6.05361 15.5202C6.74699 17.4261 7.3966 19.5496 8.30663 21.3261C8.78337 22.2359 9.3031 23.1891 9.90982 24.0122C10.2563 24.4887 10.8627 24.7056 10.9931 25.4854C10.3866 26.352 10.3431 27.6519 9.99625 28.735C8.43662 33.631 9.04323 39.6967 11.2528 43.2928C11.946 44.3757 13.5926 46.7593 15.8022 45.8493C17.752 45.0694 17.3187 42.5997 17.8818 40.4333C18.0121 39.9131 17.9253 39.5667 18.1853 39.2203V39.3069C18.7919 40.52 19.3983 41.69 19.9615 42.9031C21.3048 45.0259 23.6444 47.2358 25.5941 48.709C26.6344 49.4886 27.4574 50.8319 28.7572 51.3087V51.1785H28.6705C28.4103 50.7884 28.0206 50.6153 27.674 50.3119C26.8941 49.5322 26.0273 48.5788 25.4209 47.7123C23.6014 45.2858 21.998 42.5997 20.5682 39.8267C19.8751 38.4836 19.2683 37.0104 18.7053 35.6674C18.4451 35.1471 18.4451 34.3675 18.0118 34.1076C17.3618 35.0607 16.4089 35.884 15.9322 37.0538C15.1094 38.9169 15.0224 41.2132 14.7191 43.5961C14.5459 43.6397 14.6323 43.5961 14.5456 43.6829C13.1593 43.336 12.6827 41.9066 12.1625 40.6932C10.8627 37.6171 10.6462 32.6776 11.7728 29.1251C12.0762 28.215 13.376 25.3555 12.856 24.4889C12.5961 23.6657 11.7293 23.1891 11.2528 22.5392C10.6896 21.7159 10.0829 20.6763 9.69317 19.7662C8.65315 17.34 8.1332 14.6536 7.00686 12.2271C6.4869 11.1004 5.57709 9.93087 4.84038 8.89118C4.01746 7.72129 3.10742 6.89791 2.45748 5.51137C2.24106 5.03485 1.93752 4.25503 2.28405 3.73508C2.37071 3.38856 2.54391 3.25857 2.89078 3.17191C3.45383 2.69506 5.05714 3.30178 5.62031 3.56165C7.22339 4.21125 8.56649 4.81821 9.90982 5.72813C10.5162 6.16131 11.1662 6.98457 11.946 7.20122H12.856C14.2426 7.5043 15.8022 7.28799 17.1021 7.67773C19.3985 8.41411 21.4779 9.49757 23.3413 10.6675C29.0173 14.2636 33.6964 19.3764 36.8594 25.4854C37.3794 26.4817 37.5958 27.392 38.0724 28.4316C38.9826 30.5548 40.1089 32.7212 41.0186 34.8008C41.9286 36.8369 42.795 38.9169 44.0948 40.6067C44.7451 41.5162 47.3444 41.993 48.5143 42.4698C49.3809 42.8596 50.7241 43.2064 51.5039 43.6829C52.9769 44.5924 54.4501 45.6327 55.8367 46.6291C56.5302 47.1488 58.6962 48.2323 58.8264 49.0985Z" fill="black"/>
<path d="M14.6322 11.447C13.8955 11.447 13.3757 11.534 12.8558 11.664V11.7507H12.9426C13.2893 12.4438 13.8955 12.9206 14.3288 13.527C14.6756 14.2201 14.9787 14.9135 15.3256 15.6069L15.412 15.5202C16.019 15.0867 16.322 14.3935 16.322 13.3539C16.0618 13.0506 16.0186 12.7471 15.802 12.4438C15.5421 12.0103 14.9787 11.7939 14.6321 11.447H14.6322Z" fill="black"/>
</g>
<defs>
<clipPath id="clip0_1886_25465">
<rect width="64" height="64" fill="white"/>
</clipPath>
</defs>
</svg>
