<svg width="64" height="64" viewBox="0 0 64 64" fill="none" xmlns="http://www.w3.org/2000/svg">
<path fill-rule="evenodd" clip-rule="evenodd" d="M32 56C45.2548 56 56 45.2548 56 32C56 18.7452 45.2548 8 32 8C18.7452 8 8 18.7452 8 32C8 45.2548 18.7452 56 32 56ZM27.59 45.05C27.0485 45.3122 26.4513 45.4384 25.85 45.4175C25.4505 45.4355 25.0517 45.3678 24.6804 45.2191C24.3092 45.0703 23.9741 44.8439 23.6975 44.555C23.1465 43.9381 22.8561 43.1316 22.8875 42.305C22.8674 41.8574 22.9373 41.4104 23.0932 40.9904C23.249 40.5704 23.4878 40.186 23.795 39.86C24.0945 39.5533 24.4545 39.3121 24.8522 39.152C25.2499 38.9919 25.6766 38.9163 26.105 38.93C26.6178 38.9125 27.1287 39.0018 27.605 39.1925V39.9425C27.1464 39.6886 26.6292 39.5593 26.105 39.5675C25.7746 39.5582 25.446 39.6204 25.1418 39.7498C24.8376 39.8793 24.565 40.0729 24.3425 40.3175C23.8748 40.8503 23.6327 41.5443 23.6676 42.2524C23.6325 42.9234 23.8582 43.5817 24.2975 44.09C24.5082 44.3165 24.7655 44.4949 25.0515 44.6127C25.3377 44.7305 25.6459 44.785 25.955 44.7724C26.5309 44.7875 27.0995 44.6422 27.5975 44.3525L27.59 45.05ZM29.7862 45.2574C30.0618 45.3726 30.359 45.4272 30.6575 45.4175C30.9618 45.4267 31.2645 45.3705 31.5453 45.2528C31.826 45.1351 32.0782 44.9585 32.2851 44.7351C32.7059 44.2619 32.924 43.6424 32.8926 43.01C32.9297 42.3869 32.7287 41.773 32.33 41.2925C32.1291 41.0818 31.8851 40.9171 31.6144 40.8097C31.3438 40.7022 31.0532 40.6546 30.7625 40.67C30.455 40.6562 30.1478 40.7057 29.8601 40.8153C29.5725 40.925 29.3103 41.0925 29.09 41.3075C28.8741 41.5466 28.7079 41.8262 28.601 42.13C28.4942 42.4339 28.4488 42.7559 28.4675 43.0775C28.437 43.6914 28.6499 44.2924 29.0601 44.75C29.2629 44.9692 29.5106 45.1423 29.7862 45.2574ZM30.1086 41.4262C30.2981 41.3443 30.5038 41.3063 30.71 41.315C30.9126 41.3044 31.1148 41.3409 31.3009 41.4215C31.487 41.5022 31.6518 41.6249 31.7825 41.78C32.0546 42.1558 32.1872 42.6146 32.1575 43.0775C32.188 43.5383 32.0552 43.9949 31.7825 44.3676C31.65 44.5195 31.4844 44.6391 31.2985 44.717C31.1126 44.795 30.9113 44.8294 30.71 44.8175C30.5044 44.8261 30.2995 44.7888 30.1102 44.7084C29.9208 44.6279 29.7517 44.5064 29.615 44.3526C29.3282 43.9975 29.1838 43.5483 29.21 43.0925C29.1825 42.6228 29.3264 42.1591 29.615 41.7875C29.7502 41.6315 29.9189 41.5079 30.1086 41.4262ZM36.395 41.5399C36.233 41.4338 36.0407 41.3838 35.8475 41.3975C35.6964 41.4029 35.5491 41.4455 35.4183 41.5213C35.2875 41.5972 35.1774 41.7041 35.0975 41.8325C34.8743 42.1859 34.7668 42.6001 34.7901 43.0175V45.3125H34.04V40.8125H34.7901V41.75C34.8725 41.4599 35.0365 41.1996 35.2626 41C35.4581 40.8302 35.7086 40.737 35.9675 40.7375C36.1125 40.7309 36.2574 40.7513 36.395 40.7975V41.5399ZM13.142 35.8587C13.2711 35.9128 13.41 35.9397 13.55 35.9375C13.6898 35.9384 13.8283 35.9109 13.9572 35.8568C14.0861 35.8027 14.2027 35.7229 14.3 35.6226C14.4008 35.5255 14.4807 35.409 14.5349 35.28C14.589 35.1511 14.6163 35.0124 14.615 34.8725C14.6154 34.7328 14.5878 34.5943 14.5337 34.4655C14.4796 34.3367 14.4001 34.22 14.3 34.1225C14.2036 34.0204 14.0874 33.939 13.9584 33.8836C13.8294 33.8281 13.6904 33.7997 13.55 33.8C13.4094 33.7983 13.27 33.8261 13.1408 33.8817C13.0116 33.9373 12.8955 34.0193 12.8 34.1225C12.7016 34.221 12.6237 34.3379 12.5709 34.4667C12.5182 34.5954 12.4915 34.7334 12.4925 34.8725C12.4906 35.0118 12.5169 35.15 12.5698 35.2789C12.6226 35.4077 12.7009 35.5246 12.8 35.6226C12.8964 35.724 13.0129 35.8045 13.142 35.8587ZM28.4526 35.7501H26.4876L19.4601 24.845C19.2851 24.5763 19.1392 24.2898 19.0251 23.9901H18.9652C19.0319 24.6126 19.0569 25.2391 19.0401 25.865V35.7501H17.4426V22.0776H19.5201L26.3601 32.7875C26.6451 33.2325 26.8302 33.5375 26.9151 33.7026H26.9526C26.8735 33.0356 26.8409 32.3639 26.8552 31.6925V22.0776H28.4526V35.7501ZM32 35.7501H39.2675L39.275 34.25H33.635V29.5101H38.5699V28.0701H33.635V23.525H38.9299V22.0776H32V35.7501ZM50.0001 23.525H46.0251V35.7501H44.4276V23.525H40.4976V22.0776H50.0001V23.525ZM37.6174 43.2499H40.7899L40.7824 42.8599C40.8181 42.2895 40.6478 41.7253 40.3024 41.2699C40.1327 41.0779 39.9218 40.9269 39.6854 40.8281C39.4489 40.7294 39.1932 40.6855 38.9374 40.6999C38.6541 40.6919 38.3726 40.7469 38.1131 40.8611C37.8537 40.9752 37.6229 41.1456 37.4374 41.3599C37.0298 41.8339 36.8179 42.4453 36.8449 43.0699C36.8068 43.693 37.0019 44.3079 37.3924 44.7949C37.5818 45.0014 37.8144 45.1636 38.0737 45.2699C38.333 45.3762 38.6126 45.424 38.8924 45.4099C39.4471 45.4378 39.9962 45.2881 40.4599 44.9824V44.3074C40.065 44.6277 39.5733 44.8048 39.0649 44.8099C38.8689 44.8211 38.6727 44.7909 38.4892 44.7211C38.3057 44.6513 38.139 44.5436 37.9999 44.4049C37.7326 44.0812 37.5961 43.6691 37.6174 43.2499ZM39.7399 41.6749C39.9491 41.9528 40.0551 42.2949 40.0399 42.6424L37.6099 42.6499C37.6503 42.2928 37.8056 41.9586 38.0524 41.6974C38.1628 41.5796 38.2965 41.4861 38.445 41.4228C38.5934 41.3596 38.7535 41.3279 38.9149 41.3299C39.0696 41.3215 39.224 41.3482 39.3669 41.4079C39.5097 41.4677 39.6373 41.559 39.7399 41.6749Z" fill="black"/>
</svg>
