<svg width="64" height="64" viewBox="0 0 64 64" fill="none" xmlns="http://www.w3.org/2000/svg">
<path fill-rule="evenodd" clip-rule="evenodd" d="M15.1012 22.5931H27.172V23.5479H16.2077V30.734H26.5182V31.6888H16.2077V39.5785H27.2978V40.5333H15.1012V22.5931ZM28.2534 22.5931H29.5359L35.2193 30.4828L41.0284 22.5931L48.9297 12.5714L35.9486 31.3119L42.6378 40.5333H41.305L35.2193 32.1411L29.1084 40.5333H27.8007L34.5403 31.3119L28.2534 22.5931ZM43.1156 23.5479V22.5931H56.8714V23.5479H50.5342V40.5333H49.4277V23.5479H43.1156ZM0 22.5931H1.38312L20.4555 50.9961L12.5738 40.5333L1.15679 23.9499L1.1065 40.5333H0V22.5931ZM57.1561 38.8911C57.1561 39.1163 56.9893 39.2906 56.7605 39.2906C56.5345 39.2906 56.3649 39.1163 56.3649 38.8911C56.3649 38.6658 56.5345 38.4915 56.7605 38.4915C56.9893 38.4915 57.1561 38.6658 57.1561 38.8911ZM59.0319 39.3389C58.3295 39.3389 57.8478 38.9045 57.8478 38.2394H58.4399C58.4479 38.5585 58.6821 38.7731 59.0266 38.7731C59.4114 38.7731 59.6294 38.5424 59.6294 38.1107V35.3752H60.2322V38.1133C60.2322 38.8911 59.7801 39.3389 59.0319 39.3389ZM62.5037 39.3389C61.6425 39.3389 61.0638 38.8964 61.0208 38.2045H61.6182C61.6694 38.5719 62.03 38.8052 62.5494 38.8052C63.0338 38.8052 63.3891 38.5558 63.3891 38.2126C63.3891 37.9176 63.163 37.7406 62.649 37.6199L62.1484 37.4992C61.446 37.3356 61.1257 36.9977 61.1257 36.4291C61.1257 35.7399 61.6909 35.2813 62.5386 35.2813C63.3272 35.2813 63.9031 35.7399 63.9381 36.3916H63.3514C63.2949 36.0349 62.9827 35.8123 62.5306 35.8123C62.0542 35.8123 61.7366 36.0403 61.7366 36.3889C61.7366 36.6652 61.9412 36.8234 62.4471 36.9414L62.8751 37.046C63.6717 37.231 64 37.5528 64 38.1348C64 38.875 63.4241 39.3389 62.5037 39.3389Z" fill="black"/>
</svg>
