<svg width="64" height="64" viewBox="0 0 64 64" fill="none" xmlns="http://www.w3.org/2000/svg">
<path fill-rule="evenodd" clip-rule="evenodd" d="M8.44497 47.0555C8.00242 46.8058 7.63531 46.4415 7.3822 46.0008H7.38151C7.12696 45.5612 6.99524 45.0613 7.00013 44.5533V19.4487L7.00081 19.4481C6.99693 18.94 7.12889 18.4402 7.38304 18.0003C7.63718 17.5603 8.00427 17.1963 8.44632 16.9459L30.1875 4.39363V4.39294C30.6252 4.13566 31.1236 4 31.6313 4C32.139 4 32.6375 4.13566 33.0751 4.39294V4.39363L54.817 16.9459C55.2588 17.1965 55.6257 17.5606 55.8797 18.0005C56.1337 18.4404 56.2657 18.9401 56.2618 19.4481L56.2625 19.4487V44.5533C56.2664 45.0611 56.1345 45.5607 55.8806 46.0005C55.6268 46.4402 55.26 46.8042 54.8183 47.0548L33.0765 59.6071C32.6385 59.8643 32.1397 60 31.6317 60C31.1236 60 30.6249 59.8643 30.1868 59.6071L30.1861 59.6077L8.44497 47.0555ZM23.8513 43.5345C24.3757 43.0101 24.6703 42.2989 24.6703 41.5574L24.6689 41.558V27.6573L37.1947 42.6472C37.6683 43.1908 38.2546 43.6247 38.9127 43.919C39.5709 44.2132 40.2851 44.3608 41.006 44.3513C41.3939 44.3868 41.7849 44.3442 42.1561 44.226C42.5272 44.1078 42.8709 43.9164 43.1668 43.6632C43.4627 43.4099 43.7049 43.0999 43.8791 42.7516C44.0532 42.4032 44.1558 42.0234 44.1807 41.6347L44.1834 22.4426H44.1841C44.1841 22.0754 44.1118 21.7118 43.9713 21.3726C43.8308 21.0333 43.6248 20.7251 43.3652 20.4655C43.1055 20.2058 42.7973 19.9999 42.4581 19.8594C42.1189 19.7189 41.7553 19.6465 41.3881 19.6465C41.0209 19.6465 40.6573 19.7189 40.3181 19.8594C39.9789 19.9999 39.6706 20.2058 39.411 20.4655C39.1514 20.7251 38.9454 21.0333 38.8049 21.3726C38.6644 21.7118 38.5921 22.0754 38.5921 22.4426H38.5934V36.342L26.9125 22.3631L26.0676 21.3519C25.5938 20.8086 25.0076 20.3748 24.3495 20.0805C23.6914 19.7863 22.9772 19.6386 22.2563 19.6479C21.8684 19.6124 21.4774 19.6549 21.1062 19.7731C20.7351 19.8913 20.3914 20.0827 20.0954 20.3359C19.7995 20.5891 19.5573 20.8991 19.3831 21.2476C19.209 21.596 19.1065 21.9758 19.0816 22.3645L19.0789 41.558L19.0782 41.5574C19.0782 42.2989 19.3728 43.0101 19.8972 43.5345C20.4215 44.0588 21.1327 44.3534 21.8742 44.3534C22.6158 44.3534 23.327 44.0588 23.8513 43.5345Z" fill="black"/>
</svg>
