<svg width="64" height="64" viewBox="0 0 64 64" fill="none" xmlns="http://www.w3.org/2000/svg">
<g clip-path="url(#clip0_2_3338)">
<path fill-rule="evenodd" clip-rule="evenodd" d="M13.3648 24.7852C13.5946 24.9211 13.7349 25.172 13.7349 25.4452L13.723 35.1902C13.7229 35.2566 13.7059 35.3218 13.6738 35.3793C13.6416 35.4369 13.5953 35.4848 13.5396 35.5184C13.4836 35.5526 13.4196 35.5707 13.3544 35.5707C13.2892 35.5707 13.2252 35.5526 13.1692 35.5184L9.5286 33.3787C9.29973 33.2392 9.15751 32.9897 9.15751 32.7195V28.1665C9.15751 27.8948 9.0166 27.6438 8.78714 27.5087L7.23695 26.5923C7.12497 26.5238 6.99563 26.4902 6.86889 26.4902C6.73881 26.4901 6.61101 26.5254 6.49852 26.5924L4.94761 27.5091C4.83502 27.5757 4.74155 27.6715 4.67664 27.7871C4.61174 27.9026 4.5777 28.0336 4.57796 28.1669V32.7202C4.57796 32.9907 4.43762 33.239 4.20759 33.3795L0.564668 35.5206C0.451821 35.5919 0.310039 35.5919 0.197192 35.5206C0.0814522 35.4538 0.0134548 35.3276 0.0134548 35.1925L0 25.446C0.000121453 25.3122 0.0344097 25.1808 0.0994459 25.0648C0.164482 24.9489 0.257994 24.8525 0.370658 24.7852L6.49823 21.1666C6.60341 21.1043 6.7193 21.0716 6.83677 21.0672H6.90014C7.01871 21.0712 7.13445 21.1053 7.23695 21.1666L13.3648 24.7852ZM42.5583 30.684C42.6157 30.6505 42.6508 30.5877 42.6508 30.5198L42.6501 28.0259C42.6501 27.9579 42.6154 27.8952 42.5575 27.8611L40.4525 26.6138C40.3946 26.5796 40.3237 26.5796 40.2659 26.6138L38.1623 27.8611C38.1059 27.8952 38.0712 27.9579 38.0712 28.0259V30.5198C38.0712 30.5875 38.1059 30.6503 38.1637 30.684L40.2688 31.9292C40.2969 31.9458 40.3287 31.9545 40.3611 31.9545C40.3936 31.9545 40.4254 31.9458 40.4535 31.9292L42.5583 30.684ZM43.0349 12C43.0994 11.9993 43.163 12.0159 43.2194 12.0481L46.866 14.1371C46.9811 14.203 47.0771 14.2993 47.144 14.416C47.2109 14.5326 47.2462 14.6655 47.2465 14.8008V32.904C47.2465 33.1758 47.1047 33.4252 46.8761 33.5618L40.7462 37.1967C40.5166 37.3318 40.2348 37.3318 40.0059 37.1967L33.876 33.5633C33.647 33.4267 33.5056 33.1772 33.5056 32.9055V25.6417C33.5058 25.5085 33.5401 25.3778 33.6051 25.2626C33.6701 25.1473 33.7635 25.0517 33.876 24.9854L40.0059 21.3545C40.1183 21.2878 40.2458 21.2527 40.3757 21.2527C40.5055 21.2527 40.6331 21.2878 40.7455 21.3545L42.2805 22.2619C42.3198 22.2852 42.3645 22.2976 42.41 22.2976C42.4554 22.2976 42.5001 22.2854 42.5395 22.262C42.5788 22.2387 42.6115 22.2051 42.6342 22.1647C42.6569 22.1242 42.6689 22.0784 42.6688 22.0317V12.3802C42.6688 12.2451 42.7385 12.1204 42.8514 12.0521C42.9071 12.0187 42.9703 12.0007 43.0349 12ZM63.9015 27.6824C63.8369 27.7976 63.744 27.8934 63.6321 27.9602L59.9553 30.152C59.841 30.2203 59.6992 30.2203 59.5849 30.1535C59.4707 30.0852 59.3998 29.959 59.3998 29.8239V28.0331C59.3998 27.898 59.3289 27.7718 59.2146 27.705L57.2947 26.5691C57.1804 26.5008 57.0401 26.5008 56.9258 26.5691L55.0074 27.705C54.8917 27.7727 54.8222 27.898 54.8222 28.034V30.3118C54.8222 30.4469 54.8931 30.5731 55.0089 30.6399L61.1749 34.2719C61.2907 34.3387 61.3616 34.4664 61.3616 34.603C61.3616 34.7396 61.2878 34.8658 61.172 34.9326L57.4886 37.0337C57.2615 37.1628 56.9866 37.1614 56.7623 37.0292L50.673 33.4671C50.4429 33.332 50.2997 33.0795 50.2997 32.8063V25.5454C50.2997 25.2737 50.44 25.0243 50.6701 24.8877L56.7985 21.2572C56.9112 21.1901 57.0393 21.1548 57.1696 21.1548C57.2999 21.1548 57.4279 21.1901 57.5407 21.2572L63.6315 24.8862C63.8597 25.0225 64 25.2724 64 25.5432V27.3036C64 27.4366 63.966 27.5671 63.9015 27.6824ZM31.6339 52.2304C31.4226 52.2304 31.2128 52.1735 31.0277 52.0641L29.0981 50.8917C28.8099 50.7263 28.9506 50.6677 29.0456 50.634C29.4299 50.496 29.5078 50.4648 29.918 50.2257C29.9611 50.2005 30.0175 50.2094 30.0617 50.2361L31.544 51.1389C31.5975 51.1686 31.6735 51.1686 31.7231 51.1389L37.5029 47.7148C37.5564 47.6837 37.5911 47.6198 37.5911 47.5545V40.7094C37.5911 40.6411 37.5564 40.5802 37.5017 40.546L31.7243 37.125C31.6707 37.0923 31.5998 37.0923 31.5463 37.125L25.77 40.546C25.714 40.5787 25.6784 40.6425 25.6784 40.7079V47.553C25.6784 47.6183 25.7132 47.6807 25.7681 47.7119L27.3509 48.6503C28.2103 49.0913 28.7354 48.5716 28.7354 48.0489V41.2929C28.7354 41.1964 28.8092 41.1221 28.9032 41.1221H29.6353C29.7264 41.1221 29.8017 41.1964 29.8017 41.2929V48.0519C29.8017 49.2279 29.1767 49.9035 28.0902 49.9035C27.756 49.9035 27.4927 49.9035 26.7577 49.5323L25.2415 48.6354C25.0572 48.5251 24.9042 48.367 24.7979 48.1771C24.6915 47.9872 24.6355 47.772 24.6353 47.553V40.7079C24.6353 40.2624 24.8668 39.8467 25.2415 39.6269L31.0271 36.2014C31.3931 35.989 31.8792 35.989 32.2424 36.2014L38.0207 39.6284C38.205 39.7384 38.358 39.8962 38.4643 40.0858C38.5707 40.2755 38.6268 40.4905 38.6269 40.7094V47.5545C38.6269 47.9985 38.3939 48.4127 38.0207 48.6354L32.2424 52.061C32.0571 52.1704 31.847 52.2278 31.6333 52.2273L31.6339 52.2304ZM33.4185 47.5139C30.8896 47.5139 30.3594 46.3225 30.3594 45.3232C30.3594 45.2282 30.434 45.1525 30.5268 45.1525H31.2733C31.3558 45.1525 31.4252 45.2141 31.4382 45.2977C31.5511 46.0784 31.8867 46.4722 33.4159 46.4722C34.6341 46.4722 35.152 46.1898 35.152 45.5268C35.152 45.1452 35.0045 44.8616 33.1121 44.6715C31.5294 44.5112 30.5514 44.1533 30.5514 42.8541C30.5514 41.6573 31.5352 40.9446 33.183 40.9446C35.0334 40.9446 35.9506 41.6038 36.0664 43.0204C36.0683 43.0442 36.0654 43.0682 36.0578 43.0908C36.0503 43.1134 36.0382 43.1341 36.0225 43.1517C36.0067 43.1693 35.9875 43.1833 35.9662 43.1929C35.9449 43.2025 35.9218 43.2075 35.8986 43.2075H35.1477C35.0696 43.2075 35.0016 43.151 34.9857 43.0738C34.8048 42.2527 34.3679 41.9899 33.1801 41.9899C31.8505 41.9899 31.6957 42.465 31.6957 42.8214C31.6957 43.2535 31.878 43.3797 33.672 43.6232C35.4486 43.8652 36.2921 44.2068 36.2921 45.4882C36.2921 46.78 35.2417 47.5209 33.4101 47.5209L33.4185 47.5139ZM40.4501 40.2615H40.6439C40.8031 40.2615 40.8334 40.1472 40.8334 40.0804C40.8334 39.9052 40.7163 39.9052 40.6511 39.9052H40.4515L40.4501 40.2615ZM40.2142 39.7003H40.6439C40.7915 39.7003 41.0808 39.7003 41.0808 40.0388C41.0808 40.2742 40.9341 40.3236 40.8457 40.3533L40.845 40.3536C41.0125 40.3651 41.028 40.4751 41.05 40.6315L41.0519 40.6446L41.0532 40.6563V40.6564L41.0532 40.6566C41.0649 40.7603 41.0836 40.926 41.117 40.9832H40.8522L40.8472 40.9417C40.834 40.8347 40.8045 40.5945 40.8045 40.5793C40.7871 40.5065 40.7626 40.4709 40.6743 40.4709H40.4558V40.9846H40.2142V39.7003ZM39.6977 40.3387C39.6977 40.8703 40.1159 41.3009 40.6294 41.3009C41.1474 41.3009 41.5655 40.8614 41.5655 40.3387C41.5655 39.8057 41.1416 39.3825 40.628 39.3825C40.1216 39.3825 39.6963 39.7997 39.6963 40.3373L39.6977 40.3387ZM41.7449 40.3417C41.7449 40.9713 41.2429 41.485 40.6309 41.485C40.0233 41.485 39.5169 40.9772 39.5169 40.3417C39.5169 39.6943 40.0348 39.1984 40.6309 39.1984C41.2313 39.1984 41.7434 39.6958 41.7434 40.3417H41.7449ZM57.1557 27.4321C57.1773 27.4192 57.2017 27.4124 57.2266 27.4124C57.2516 27.4124 57.276 27.4192 57.2975 27.4321L58.4737 28.1285C58.5177 28.1546 58.5446 28.2027 58.5446 28.2547V29.649C58.5446 29.701 58.5177 29.7491 58.4737 29.7752L57.2975 30.4716C57.276 30.4845 57.2516 30.4913 57.2266 30.4913C57.2017 30.4913 57.1773 30.4845 57.1557 30.4716L55.9803 29.7752C55.9584 29.7626 55.9402 29.7443 55.9275 29.7221C55.9148 29.6999 55.908 29.6747 55.9079 29.649V28.2547C55.9079 28.2027 55.934 28.1546 55.9788 28.1285L57.1557 27.4321ZM23.7267 21.0251C23.5981 21.0251 23.4718 21.06 23.3608 21.1263L17.2861 24.6978C17.0546 24.8319 16.9202 25.0786 16.9202 25.3451V32.4958C16.9207 32.6277 16.9555 32.7572 17.0211 32.8709C17.0867 32.9846 17.1807 33.0785 17.2936 33.1431L23.3608 36.7146C23.4718 36.7809 23.5981 36.8158 23.7267 36.8158C23.8553 36.8158 23.9816 36.7809 24.0926 36.7146L30.1635 33.1431C30.3906 33.0091 30.5294 32.7623 30.5294 32.4958V25.3451C30.5294 25.0786 30.3906 24.8319 30.1635 24.6978L24.0926 21.1263C23.9816 21.06 23.8553 21.0251 23.7267 21.0251Z" fill="black"/>
</g>
<defs>
<clipPath id="clip0_2_3338">
<rect width="64" height="64" fill="white"/>
</clipPath>
</defs>
</svg>
