<svg width="64" height="64" viewBox="0 0 64 64" fill="none" xmlns="http://www.w3.org/2000/svg">
<g clip-path="url(#clip0_2_3350)">
<path fill-rule="evenodd" clip-rule="evenodd" d="M64 32.4324C64 41.5078 49.6729 48.8649 31.9998 48.8649C14.3269 48.8649 0 41.5078 0 32.4324C0 23.357 14.3269 16 31.9998 16C49.6729 16 64 23.357 64 32.4324ZM12.1936 24.7513L8.64865 41.946H12.8506L13.7368 37.4894H17.7554C21.5218 37.6947 25.7237 34.7632 25.7237 29.6326C25.7237 26.6642 23.9131 24.9638 20.3758 24.7513H12.1936ZM15.7308 27.9395L14.6231 34.3011H17.2817C19.2681 34.089 21.0405 33.4583 21.2621 29.8451C21.2621 28.5772 20.1313 27.9395 18.6034 27.9395H15.7308ZM28.4053 20.3244L24.8604 37.5484H29.0623L31.0564 27.9981H34.3494C35.8997 27.9981 35.9004 28.6358 35.6783 29.6912L34.1507 37.5484H38.5813L40.1246 28.8117C40.5682 26.6935 39.2388 24.9931 35.7016 24.7806H31.721L32.6074 20.3244H28.4053ZM41.8362 24.7513L38.2991 41.946H42.5006L43.3871 37.4894H47.3906C51.1492 37.6947 55.3513 34.7632 55.3513 29.6326C55.3513 26.6642 53.548 24.9638 50.0033 24.7513H41.8362ZM45.3734 27.9395L44.2654 34.3011H46.9243C48.9105 34.089 50.6829 33.4583 50.905 29.8451C50.905 28.5772 49.7818 27.9395 48.2537 27.9395H45.3734Z" fill="black"/>
</g>
<defs>
<clipPath id="clip0_2_3350">
<rect width="64" height="64" fill="white"/>
</clipPath>
</defs>
</svg>
