<svg width="64" height="64" viewBox="0 0 64 64" fill="none" xmlns="http://www.w3.org/2000/svg">
<path fill-rule="evenodd" clip-rule="evenodd" d="M42.1843 8.0006C41.7992 8.06403 41.4141 8.12641 41.0295 8.18871C40.5825 8.26111 40.1362 8.3334 39.6914 8.40711L39.8089 8.46588C40.2924 8.83487 40.8381 9.12321 41.3806 9.40989C41.8822 9.67496 42.3812 9.93863 42.8259 10.2633C45.4853 12.2126 48.3113 15.7046 49.09 19.4318C49.3834 20.8316 48.981 22.877 48.6961 24.325L48.6961 24.3251L48.6961 24.3252C48.648 24.5692 48.6034 24.7963 48.5659 25.0004C48.3568 26.148 48.5581 27.2063 48.7629 28.2831C48.9707 29.3754 49.1821 30.4868 48.9724 31.7298C48.9053 32.1269 48.7183 32.7305 48.5294 33.3402L48.5293 33.3403C48.2219 34.3322 47.9096 35.3402 48.1007 35.501V35.3834C48.5846 34.9027 48.9049 34.2368 49.2228 33.5756L49.2229 33.5755L49.2229 33.5754L49.2229 33.5754C49.3844 33.2396 49.5453 32.9051 49.7267 32.5967C51.8768 28.9234 53.4146 24.6184 54.4823 19.8921C54.8839 18.1045 55.2513 15.0483 54.5411 13.3342C54.1787 12.4673 53.2726 11.6836 52.5673 11.1302C49.8883 9.01442 47.1652 7.97122 42.1843 8.0006ZM32.727 8.52462C32.2814 8.5638 31.8357 8.60298 31.3949 8.64217C30.911 8.77595 30.4271 8.91138 29.9442 9.04655L29.944 9.0466L29.9439 9.04661L29.9437 9.04669L29.9433 9.0468C29.5955 9.14413 29.2483 9.24131 28.902 9.33763C25.1455 10.9588 22.9219 15.5479 22.6917 20.6512L22.694 20.6501L22.694 20.6501L22.694 20.6501L22.694 20.6501L22.6941 20.6501C23.5505 20.2243 24.4754 19.7645 25.4785 19.4905C30.5525 18.1094 31.2479 21.3516 31.9189 25.2355C32.1736 26.7097 32.2177 28.7912 31.8602 30.2262C31.5577 31.4359 31.0901 32.5048 30.646 33.5199L30.6406 33.5321L29.4799 36.838H29.5387C30.0186 36.7107 30.5182 36.8723 30.8708 37.0143C32.7647 37.7506 32.7507 39.4951 32.7312 41.9204C32.7291 42.1732 32.727 42.4333 32.727 42.7005C32.727 43.2948 32.7186 43.9139 32.71 44.5458L32.71 44.546C32.6447 49.3405 32.5693 54.8707 36.0917 55.8703C37.2868 56.2083 38.6973 55.8116 39.6327 55.5226C43.478 54.3352 43.8235 50.5619 44.2023 46.4261C44.3219 45.1203 44.4448 43.7784 44.6822 42.4703C44.7777 41.9397 44.7947 41.3354 44.8117 40.7318V40.7317C44.84 39.7253 44.8683 38.7207 45.2601 38.0624C45.5568 37.5624 45.9602 37.3482 46.4069 37.1111C46.6164 36.9998 46.8355 36.8835 47.0576 36.7303C46.9436 36.5527 46.829 36.3745 46.7139 36.1956C44.6918 33.0525 42.5252 29.6847 41.3714 25.7644C39.9021 20.7737 42.4979 18.7754 47.4053 19.0938C45.172 13.29 40.6759 8.5687 32.727 8.52462ZM16.6038 8.77409C17.0067 8.72887 17.4102 8.68359 17.8137 8.63722C19.8234 8.66036 21.4785 9.04938 23.0694 9.42333C23.8357 9.60344 24.5871 9.78006 25.3561 9.91061V9.96938C22.6085 13.5692 21.9816 15.4646 21.1196 21.0528L21.2371 26.45C21.1881 26.9422 21.1404 27.4357 21.0926 27.9291C21.0449 28.4226 20.9971 28.916 20.9482 29.4082C20.4214 32.6528 22.0422 34.544 23.361 36.0829L23.3612 36.083C23.4279 36.1609 23.4938 36.2378 23.5586 36.3139C22.1236 37.9399 20.6935 39.5611 19.2634 41.1871C19.2312 41.2196 19.1978 41.2543 19.163 41.2905C18.7787 41.6896 18.2241 42.2655 17.3484 42.0589C15.5315 41.63 14.132 38.3748 13.383 36.6328L13.347 36.549C11.1773 31.4897 7.13185 19.4562 9.98229 12.9912C10.8982 10.9097 12.8572 9.52859 15.262 8.92618C15.7081 8.8746 16.1556 8.82439 16.6037 8.77409L16.6038 8.77409ZM49.8982 38.8657C49.4893 38.7883 49.1426 38.6296 48.8066 38.4758C48.4625 38.3183 48.1297 38.166 47.753 38.1114C47.6749 38.1532 47.6 38.1924 47.5286 38.2297L47.5285 38.2297L47.5285 38.2298C46.6956 38.6651 46.317 38.863 46.3621 40.3154C48.8305 41.5252 53.5519 39.855 54.6588 38.518C54.2602 38.5603 53.8431 38.6303 53.4127 38.7026C52.2986 38.8898 51.0959 39.0918 49.8982 38.8657ZM27.3886 40.8393C28.1821 39.992 28.9755 39.1398 29.7689 38.2876C31.7574 38.3561 31.3019 40.5062 30.3517 41.3045C28.4318 42.911 26.1642 43.1265 23.446 42.1763L23.3872 42.0588C23.7125 41.975 24.0625 41.8984 24.4206 41.82C25.486 41.5867 26.6225 41.3378 27.3886 40.8393ZM47.0574 25.2355C47.1456 24.4616 47.2325 23.6878 47.3195 22.9139L47.3203 22.9066C47.407 22.1352 47.4936 21.3638 47.5815 20.5925L47.5255 20.5903C45.6231 20.5174 43.6703 20.4426 42.8798 21.6357C42.3116 22.4977 42.5124 24.3441 42.821 25.3481C43.5899 27.8459 44.8045 30.0107 46.0142 32.0775C46.1489 32.359 46.2848 32.6394 46.4206 32.9197C46.5566 33.2001 46.6925 33.4806 46.8273 33.7623L46.9448 33.7035C47.0023 33.4006 47.0782 33.0914 47.1564 32.7731L47.1564 32.7731C47.398 31.7894 47.6613 30.7177 47.4689 29.467C47.3742 28.5274 47.284 27.5878 47.1937 26.6481L47.1935 26.6456C47.1483 26.1756 47.1031 25.7055 47.0574 25.2355ZM44.7604 23.2862C44.0846 23.1001 43.8201 22.9629 43.4283 22.5319C43.4552 22.2707 43.4972 22.2174 43.5802 22.1119C43.603 22.083 43.6289 22.0501 43.6585 22.0079C43.7372 21.9772 43.8078 21.94 43.8827 21.9005C44.1061 21.7828 44.367 21.6454 44.9906 21.6014C45.5686 21.6993 45.7596 21.7924 46.0338 22.1793C45.7602 22.6925 45.5337 22.8251 45.1437 23.0533L45.1437 23.0534C45.0312 23.1192 44.9052 23.193 44.7604 23.2862ZM26.8694 20.7637C27.7657 20.7539 28.5591 20.798 29.0734 21.1702C30.479 22.1939 30.9541 27.6548 30.3468 30.0497C30.0961 31.0418 29.708 31.9143 29.3274 32.7699C29.18 33.1012 29.0338 33.43 28.8971 33.7621C28.6032 34.6731 28.3143 35.5792 28.0253 36.4901C24.8124 36.4559 22.9611 34.0903 22.4616 31.3182C22.2346 30.0912 22.4584 28.666 22.6564 27.4044C22.6892 27.1955 22.7213 26.9911 22.7505 26.7928L22.633 22.4436C23.3134 22.0765 23.9889 21.7094 24.6644 21.3423L24.6655 21.3417C25.0328 21.2462 25.4001 21.1495 25.7673 21.0527C26.1347 20.956 26.5021 20.8593 26.8694 20.7637ZM26.3111 22.4779C26.3748 23.8542 28.5004 24.3831 29.0391 23.1146C29.0454 23.0646 29.0511 23.015 29.0569 22.9657C29.0691 22.8604 29.0812 22.756 29.0979 22.6493C28.52 22.2232 27.9861 22.0371 26.8939 22.0714C26.8058 22.1204 26.7188 22.1681 26.6319 22.2159C26.545 22.2636 26.458 22.3114 26.3699 22.3604L26.3111 22.4779Z" fill="black"/>
</svg>
