<svg width="144" height="144" viewBox="0 0 144 144" fill="none" xmlns="http://www.w3.org/2000/svg">
<g clip-path="url(#clip0_2500_2177)">
<path fill-rule="evenodd" clip-rule="evenodd" d="M56.8931 10.2272C61.2111 9.46317 66.1185 9.02491 71.2573 9.00103C76.396 8.97715 81.7539 9.36766 86.9177 10.2272C95.0752 11.5868 101.948 17.7063 101.948 25.8526V54.4759C101.948 62.8694 95.2755 69.7509 86.9177 69.7509H56.8931C46.699 69.7509 38.1146 78.5027 38.1146 88.4243V102.158H27.7794C19.0432 102.158 13.9404 95.817 11.8036 86.9179C8.92125 74.9624 9.04367 67.8176 11.8036 56.3677C14.1963 46.3787 21.846 41.1277 30.5821 41.1277H41.8633H71.9229V37.3089H41.8633V25.8526C41.8633 17.1782 44.1728 12.4745 56.8931 10.2272ZM60.6418 23.9608C60.6418 20.7921 58.1062 18.2151 55.0012 18.2151C51.8851 18.2151 49.3607 20.7921 49.3607 23.9608C49.3607 27.1182 51.8851 29.6714 55.0012 29.6714C58.1062 29.6714 60.6418 27.1182 60.6418 23.9608ZM105.696 54.4758V41.1277H116.977C125.725 41.1277 129.848 47.6708 132.007 56.3677C135.012 68.4468 135.146 77.5018 132.007 86.9178C128.969 96.0642 125.714 102.158 116.977 102.158H101.948H71.9229V105.977H101.948V117.433C101.948 126.107 94.4854 130.517 86.9177 132.708C75.5329 136.011 66.4083 135.506 56.8931 132.708C48.9471 130.371 41.8633 125.579 41.8633 117.433V88.8097C41.8633 80.5735 48.6689 73.5346 56.8931 73.5346H86.9177C96.9226 73.5346 105.696 64.8245 105.696 54.4758ZM94.4501 119.325C94.4501 116.167 91.9257 113.614 88.8096 113.614C85.7046 113.614 83.169 116.167 83.169 119.325C83.169 122.493 85.7046 125.07 88.8096 125.07C91.9257 125.07 94.4501 122.493 94.4501 119.325Z" fill="black"/>
</g>
<defs>
<clipPath id="clip0_2500_2177">
<rect width="144" height="144" fill="white"/>
</clipPath>
</defs>
</svg>
