<svg width="64" height="64" viewBox="0 0 64 64" fill="none" xmlns="http://www.w3.org/2000/svg">
<path fill-rule="evenodd" clip-rule="evenodd" d="M20.5261 12.3218C21.3332 11.8545 22.4241 11.7923 23.8098 12.2419C25.1953 12.6914 26.7903 13.629 28.4942 15.0178C29.2154 15.6057 29.9503 16.2697 30.6909 17.0035C29.2184 18.5796 27.7481 20.398 26.3337 22.4128C23.8877 22.6339 21.5832 23.0015 19.4867 23.4922C19.2232 22.4817 19.0172 21.5111 18.8702 20.5904C18.5228 18.4162 18.5107 16.562 18.8153 15.1339C19.1199 13.7055 19.7191 12.7891 20.5261 12.3218ZM29.462 13.8259C30.2199 14.4437 30.9885 15.138 31.7601 15.902C32.5315 15.1382 33.3 14.4441 34.0578 13.8264C35.8463 12.3685 37.6079 11.3096 39.2363 10.7813C40.8644 10.253 42.4446 10.2317 43.7589 10.9928C45.0733 11.7538 45.845 13.1369 46.2029 14.8152C46.5609 16.4936 46.5273 18.5531 46.1627 20.8356C46.0081 21.8029 45.7929 22.8177 45.5189 23.87C46.5651 24.1582 47.5495 24.4789 48.4625 24.8285C50.616 25.6531 52.4115 26.6538 53.682 27.8041C54.9526 28.9544 55.76 30.3155 55.76 31.8356C55.76 33.3558 54.9526 34.7169 53.682 35.8672C52.4115 37.0175 50.616 38.0182 48.4625 38.8428C47.5495 39.1924 46.565 39.5131 45.5188 39.8014C45.7929 40.8541 46.0082 41.8693 46.1628 42.8369C46.5274 45.1193 46.5611 47.1788 46.2031 48.8573C45.8452 50.5355 45.0734 51.9186 43.7591 52.6797C42.4448 53.4407 40.8646 53.4195 39.2364 52.8912C37.6081 52.3629 35.8465 51.3039 34.0579 49.846C33.3001 49.2283 32.5316 48.5342 31.7601 47.7703C30.9885 48.5344 30.2198 49.2287 29.4618 49.8465C27.6732 51.3044 25.9116 52.3634 24.2833 52.8917C22.6551 53.42 21.075 53.4412 19.7606 52.6802C18.4463 51.9191 17.6745 50.536 17.3166 48.8578C16.9587 47.1793 16.9923 45.1198 17.3569 42.8374C17.5115 41.8696 17.7269 40.8542 18.0011 39.8013C16.9549 39.5131 15.9705 39.1924 15.0575 38.8428C12.904 38.0182 11.1085 37.0175 9.83801 35.8672C8.56746 34.7169 7.76001 33.3558 7.76001 31.8356C7.76001 30.3155 8.56746 28.9544 9.83801 27.8041C11.1085 26.6538 12.904 25.6531 15.0575 24.8285C15.9705 24.4789 16.9548 24.1583 18.0009 23.87C17.7269 22.8175 17.5116 21.8025 17.3571 20.8351C16.9925 18.5526 16.9588 16.4931 17.3168 14.8147C17.6747 13.1364 18.4464 11.7533 19.7608 10.9923C21.0751 10.2312 22.6553 10.2525 24.2834 10.7808C25.9118 11.3091 27.6734 12.3681 29.462 13.8259ZM28.3285 22.2672C29.4572 20.7362 30.6109 19.3421 31.7601 18.1075C32.9093 19.3421 34.0629 20.7362 35.1916 22.2672C34.0703 22.2044 32.9245 22.172 31.76 22.172C30.5955 22.172 29.4498 22.2044 28.3285 22.2672ZM19.9046 24.9699C21.5454 24.589 23.3262 24.284 25.2129 24.0691C24.5976 25.0121 23.9963 25.9917 23.4137 27.0038C22.8317 28.0148 22.287 29.0258 21.7807 30.0307C21.023 28.2847 20.396 26.5855 19.9046 24.9699ZM24.7413 27.7725C23.9564 29.1359 23.243 30.4958 22.6034 31.8361C23.2431 33.1765 23.9565 34.5364 24.7414 35.8999C25.5267 37.264 26.3446 38.5641 27.1826 39.7903C28.6596 39.9049 30.1904 39.9652 31.76 39.9652C33.3296 39.9652 34.8604 39.9049 36.3375 39.7903C37.1753 38.5642 37.9932 37.2643 38.7783 35.9004C39.5634 34.5368 40.2768 33.1767 40.9166 31.8361C40.2769 30.4956 39.5634 29.1356 38.7785 27.772C37.9931 26.4077 37.1749 25.1074 36.3368 23.8809C34.8599 23.7664 33.3294 23.7061 31.76 23.7061C30.1906 23.7061 28.6601 23.7664 27.1833 23.8809C26.345 25.1075 25.5268 26.408 24.7413 27.7725ZM18.4167 25.3466C19.0414 27.4137 19.8764 29.6 20.909 31.8361C19.8766 34.0718 19.0415 36.2579 18.4169 38.3247C17.4137 38.0485 16.4737 37.7424 15.6061 37.4102C13.5553 36.6249 11.9484 35.7085 10.8676 34.73C9.78682 33.7515 9.29405 32.7722 9.29405 31.8356C9.29405 30.8991 9.78682 29.9198 10.8676 28.9413C11.9484 27.9628 13.5553 27.0464 15.6061 26.2611C16.4737 25.9289 17.4136 25.6228 18.4167 25.3466ZM21.7807 33.6415C21.0231 35.3872 20.3962 37.0861 19.9048 38.7014C21.5453 39.0823 23.3259 39.3873 25.2122 39.6021C24.5973 38.6595 23.9962 37.6803 23.4138 36.6686C22.8318 35.6575 22.287 34.6464 21.7807 33.6415ZM18.87 43.082C19.0172 42.161 19.2232 41.1901 19.4869 40.1791C21.5831 40.6697 23.8873 41.0373 26.333 41.2584C27.7476 43.2736 29.2181 45.0924 30.6909 46.6688C29.9503 47.4027 29.2153 48.0667 28.494 48.6546C26.7902 50.0434 25.1952 50.9811 23.8097 51.4306C22.424 51.8802 21.333 51.818 20.526 51.3507C19.7189 50.8834 19.1198 49.9669 18.8151 48.5386C18.5105 47.1105 18.5227 45.2563 18.87 43.082ZM35.0257 48.6541C34.3046 48.0663 33.5698 47.4025 32.8293 46.6688C34.302 45.0924 35.7725 43.2736 37.1871 41.2584C39.6327 41.0373 41.9368 40.6698 44.033 40.1792C44.2966 41.1899 44.5026 42.1607 44.6497 43.0815C44.997 45.2558 45.0092 47.1099 44.7046 48.5381C44.4 49.9664 43.8008 50.8829 42.9937 51.3502C42.1867 51.8175 41.0957 51.8797 39.7101 51.4301C38.3245 50.9806 36.7295 50.0429 35.0257 48.6541ZM31.7601 45.5648C32.9095 44.3299 34.0634 42.9355 35.1923 41.4041C34.0708 41.4668 32.9248 41.4993 31.76 41.4993C30.5953 41.4993 29.4492 41.4668 28.3278 41.4041C29.4567 42.9355 30.6106 44.33 31.7601 45.5648ZM43.6151 38.7014C41.9746 39.0823 40.1941 39.3873 38.3078 39.6021C38.9227 38.6596 39.5236 37.6806 40.1059 36.6691C40.688 35.6579 41.2329 34.6466 41.7392 33.6415C42.4968 35.3872 43.1237 37.0861 43.6151 38.7014ZM45.103 38.3247C44.4784 36.2579 43.6434 34.0718 42.6109 31.8361C43.6435 29.6 44.4786 27.4137 45.1032 25.3466C46.1063 25.6228 47.0463 25.9289 47.9139 26.2611C49.9647 27.0464 51.5716 27.9628 52.6524 28.9413C53.7332 29.9198 54.226 30.8991 54.226 31.8356C54.226 32.7722 53.7332 33.7515 52.6524 34.73C51.5716 35.7085 49.9647 36.6249 47.9139 37.4102C47.0463 37.7424 46.1062 38.0486 45.103 38.3247ZM37.1864 22.4128C39.6323 22.6339 41.9367 23.0015 44.0331 23.4921C44.2966 22.4818 44.5025 21.5114 44.6495 20.5909C44.9969 18.4167 45.009 16.5625 44.7044 15.1344C44.3998 13.706 43.8007 12.7896 42.9936 12.3223C42.1865 11.855 41.0956 11.7928 39.7099 12.2424C38.3244 12.6919 36.7294 13.6295 35.0256 15.0183C34.3045 15.6061 33.5697 16.2699 32.8293 17.0035C34.3018 18.5796 35.772 20.398 37.1864 22.4128ZM41.7392 30.0306C42.4969 28.2846 43.1239 26.5854 43.6153 24.9699C41.9746 24.5889 40.1937 24.284 38.3072 24.0691C38.9223 25.012 39.5235 25.9914 40.106 27.0033C40.6881 28.0145 41.2329 29.0256 41.7392 30.0306ZM36.0902 31.8355C36.0902 34.2337 34.1517 36.1779 31.7604 36.1779C29.3691 36.1779 27.4306 34.2337 27.4306 31.8355C27.4306 29.4372 29.3691 27.4931 31.7604 27.4931C34.1517 27.4931 36.0902 29.4372 36.0902 31.8355Z" fill="black"/>
</svg>
