<svg width="64" height="64" viewBox="0 0 64 64" fill="none" xmlns="http://www.w3.org/2000/svg">
<path d="M47.3896 43.3928C51.924 41.4367 56.3478 39.5282 57.8042 38.7662C58.8546 38.2167 59.5219 37.7513 59.8193 37.3322C59.8844 37.3538 59.9445 37.3748 59.9994 37.3949L59.9981 42.9967C59.9985 43.5585 59.3266 44.1746 57.8054 44.9704C56.3481 45.7329 51.9205 47.6429 47.3837 49.6C42.6164 51.6566 37.7286 53.7652 36.0398 54.649C32.7439 56.3741 30.913 56.3574 28.3093 55.1079C27.0497 54.5034 22.5437 52.6279 17.8911 50.6913C12.9266 48.6249 7.79526 46.4891 6.26326 45.7539C4.78014 45.0425 4.00009 44.4417 4.00009 43.8742V38.1921C4.00009 38.1921 4.06493 38.1779 4.18805 38.1509C4.49807 38.5784 5.19114 39.0351 6.26386 39.5497C7.79681 40.285 12.934 42.4234 17.9015 44.4911C22.5503 46.4262 27.0505 48.2994 28.3092 48.9031C30.9128 50.1525 32.7437 50.1694 36.0393 48.4448C37.7289 47.5603 42.6204 45.4502 47.3896 43.3928Z" fill="black"/>
<path d="M47.3895 34.7555C51.9239 32.7994 56.3477 30.891 57.8041 30.129C59.2839 29.3547 60.0035 28.7474 59.9992 28.2015C59.9992 28.2015 59.9993 28.2015 59.9992 28.2015L59.998 33.804C59.9985 34.3655 59.3265 34.9816 57.8053 35.7774C56.3486 36.5398 51.9236 38.4487 47.3884 40.4052C42.6196 42.4624 37.729 44.5722 36.0397 45.4566C32.7438 47.1811 30.9129 47.1644 28.3092 45.9149C27.051 45.3115 22.5541 43.4396 17.9073 41.5054C12.9377 39.4368 7.79685 37.2969 6.26316 36.5609C4.78005 35.8495 4 35.2495 4 34.6819V29.0081C4.00021 29.5818 4.75793 30.1901 6.26377 30.9125C7.79671 31.6478 12.9339 33.7861 17.9014 35.8539C22.5502 37.7889 27.0504 39.6622 28.3091 40.2658C30.9127 41.5153 32.7436 41.5322 36.0392 39.8075C37.7288 38.9231 42.6203 36.8129 47.3895 34.7555Z" fill="black"/>
<path d="M4 29.0081C4 29.0053 4.00002 29.0019 4.00006 28.9991L4 29.0081Z" fill="black"/>
<path fill-rule="evenodd" clip-rule="evenodd" d="M4.00058 19.499C3.97677 18.932 4.68996 18.3998 6.14903 17.8261L6.94066 17.5148C11.2736 15.8107 25.6881 10.1415 28.9108 8.98069C32.3731 7.73363 33.5743 7.68883 36.5208 8.77252C37.9992 9.31621 42.6092 11.1347 47.2041 12.9472L47.2048 12.9475C51.7682 14.7476 56.3169 16.5419 57.7677 17.0755C59.2388 17.6163 59.9955 18.1092 59.9991 18.666L59.9999 18.6663L59.9986 24.2685C59.999 24.8296 59.327 25.4458 57.8059 26.2418C56.3497 27.0036 51.9277 28.9113 47.3945 30.8669C42.624 32.925 37.7303 35.0362 36.0403 35.921C32.7444 37.6457 30.9135 37.6287 28.3097 36.3793C27.0505 35.7753 22.5473 33.9008 17.8965 31.9649L17.8957 31.9646C12.93 29.8977 7.79612 27.7607 6.26373 27.0257C4.78063 26.3136 4.00058 25.7135 4.00058 25.1465V19.499ZM38.1777 15.0655L33.3631 15.5673L32.2853 18.1708L30.5445 15.2656L24.9851 14.7641L29.1334 13.2622L27.8887 10.957L31.7726 12.4818L35.434 11.2785L34.4444 13.6621L38.1777 15.0655ZM31.9979 27.6961L23.0124 23.9549L35.8879 21.9708L31.9979 27.6961ZM19.5402 16.5127C23.341 16.5127 26.422 17.7116 26.422 19.1904C26.422 20.6695 23.341 21.8683 19.5402 21.8683C15.7395 21.8683 12.6585 20.6693 12.6585 19.1904C12.6585 17.7116 15.7395 16.5127 19.5402 16.5127ZM43.8679 15.7767L51.4882 18.7996L43.8745 21.8196L43.0483 22.144L35.4379 19.1241L43.8679 15.7767Z" fill="black"/>
</svg>
