<svg width="64" height="64" viewBox="0 0 64 64" fill="none" xmlns="http://www.w3.org/2000/svg">
<path fill-rule="evenodd" clip-rule="evenodd" d="M50.8474 12.2396L52.0278 13.7938C52.3378 14.2039 52.2603 14.7919 51.8501 15.1018L50.5968 16.0543C50.8247 16.6605 50.9705 17.3076 51.0297 17.9685L52.4563 18.1645C52.9667 18.2328 53.3222 18.7068 53.2538 19.2173L52.9895 21.1542C52.9211 21.6647 52.4471 22.0247 51.9367 21.9518L50.378 21.7376C50.1 22.3437 49.7445 22.8998 49.3252 23.3965L50.2003 24.545C50.5102 24.9552 50.4281 25.5431 50.018 25.8531L48.4638 27.0335C48.0537 27.3434 47.4657 27.2613 47.1558 26.8557L46.2033 25.6024C45.5926 25.8303 44.95 25.9761 44.2846 26.0354L44.0886 27.4619C44.0202 27.9723 43.5462 28.3278 43.0358 28.2595L41.0988 27.9951C40.5884 27.9268 40.2329 27.4528 40.3013 26.9423L40.5155 25.3836C39.9139 25.1056 39.3533 24.7501 38.8565 24.3354L37.708 25.2059C37.2978 25.5158 36.7099 25.4383 36.4 25.0281L35.2196 23.474C34.9097 23.0638 34.9871 22.4759 35.3973 22.166L36.6506 21.2135C36.4228 20.6028 36.2769 19.9601 36.2177 19.2993L34.7912 19.1033C34.2807 19.035 33.9207 18.561 33.9936 18.0505L34.2579 16.1136C34.3309 15.6031 34.8003 15.2476 35.3107 15.316L36.8694 15.5302C37.1474 14.9286 37.5029 14.368 37.9176 13.8712L37.0472 12.7227C36.7372 12.3171 36.8147 11.7292 37.2249 11.4193L38.779 10.2389C39.1892 9.92896 39.7771 10.0064 40.087 10.4166L41.0396 11.6699C41.6457 11.4421 42.2929 11.2962 42.9538 11.237L43.1497 9.81046C43.2181 9.30001 43.6921 8.93997 44.2025 9.00833L46.1395 9.27267C46.6499 9.34103 47.01 9.81502 46.9371 10.3255L46.7229 11.8841C47.329 12.1622 47.885 12.5176 48.3864 12.9369L49.5349 12.0665C49.945 11.752 50.533 11.8295 50.8474 12.2396ZM17.5226 39.5895V32.0696H21.3965C22.1166 32.0696 22.6635 32.1288 23.0418 32.2564C23.4201 32.3795 23.73 32.6074 23.9579 32.9401C24.1903 33.2773 24.3088 33.6829 24.3088 34.1615C24.3088 34.5762 24.2176 34.9408 24.0399 35.2416C23.8621 35.547 23.616 35.7931 23.3061 35.98C23.1101 36.0985 22.8367 36.1987 22.4903 36.2762C22.7683 36.3719 22.9689 36.4585 23.0919 36.5542C23.1785 36.618 23.3016 36.7502 23.4611 36.9507C23.6206 37.1513 23.73 37.3108 23.7847 37.4201L24.9149 39.5941H22.2898L21.0501 37.3016C20.8906 37.0054 20.7539 36.8094 20.6308 36.7228C20.4622 36.6089 20.2708 36.5497 20.0611 36.5497H19.856V39.5941H17.5226V39.5895ZM25.7171 52.6834H21.3783L20.7539 54.7252H16.8435L21.5059 42.3332H25.6988L30.343 54.7252H26.3323L25.7171 52.6834ZM24.9058 49.999L23.5522 45.5417L22.1941 49.999H24.9058ZM31.2454 42.3332H37.6169C39.0069 42.3332 40.046 42.6613 40.7342 43.3222C41.4224 43.983 41.7688 44.9264 41.7688 46.1433C41.7688 47.3966 41.3905 48.3765 40.6385 49.0829C39.8865 49.7894 38.7335 50.1403 37.1884 50.1403H35.0874V54.7252H31.2454V42.3332ZM35.0874 47.6291H36.0308C36.7737 47.6291 37.2978 47.5015 37.5986 47.2417C37.8994 46.9865 38.0498 46.6538 38.0498 46.2573C38.0498 45.8699 37.9176 45.5372 37.6579 45.2683C37.3981 44.9994 36.9059 44.8626 36.1858 44.8626H35.0874V47.6291ZM43.3184 42.3332H47.1604V54.7252H43.3184V42.3332ZM19.856 35.1231H20.8359C20.9407 35.1231 21.1458 35.0867 21.4512 35.0183C21.6062 34.9864 21.7338 34.9089 21.8295 34.7813C21.9297 34.6537 21.9753 34.5079 21.9753 34.3438C21.9753 34.1022 21.8978 33.9108 21.7429 33.7832C21.5879 33.651 21.3008 33.5872 20.8769 33.5872H19.856V35.1231ZM25.3616 32.0696H31.5826V33.6738H27.695V34.8725H31.3001V36.4038H27.695V37.885H31.6966V39.585H25.3616V32.0696ZM32.248 37.1011L34.4539 36.9644C34.4995 37.3244 34.5997 37.5933 34.7456 37.7802C34.9871 38.081 35.329 38.2359 35.771 38.2359C36.0992 38.2359 36.359 38.1585 36.5367 38.0035C36.7145 37.8486 36.8056 37.6663 36.8056 37.4612C36.8056 37.2652 36.719 37.092 36.5504 36.937C36.3818 36.7821 35.9852 36.6408 35.3609 36.4995C34.3445 36.2716 33.6199 35.9663 33.1823 35.588C32.7448 35.2097 32.5261 34.7266 32.5261 34.1387C32.5261 33.7513 32.64 33.3867 32.8633 33.0449C33.0866 32.7031 33.4239 32.4296 33.8751 32.2336C34.3263 32.0377 34.9416 31.942 35.7255 31.942C36.6871 31.942 37.4163 32.1197 37.9222 32.4798C38.4235 32.8398 38.7243 33.4049 38.82 34.1888L36.637 34.321C36.5777 33.9792 36.4547 33.7285 36.2724 33.5781C36.0855 33.4232 35.8257 33.3457 35.5021 33.3457C35.2332 33.3457 35.0282 33.4049 34.8914 33.5189C34.7547 33.6328 34.6863 33.7741 34.6863 33.9382C34.6863 34.0567 34.7456 34.1615 34.855 34.2618C34.9643 34.3575 35.2196 34.4532 35.6298 34.5398C36.6461 34.7585 37.3753 34.9819 37.8128 35.2052C38.2504 35.4285 38.5739 35.7065 38.7699 36.0392C38.9704 36.3674 39.0707 36.7411 39.0707 37.1513C39.0707 37.6344 38.9385 38.0764 38.6696 38.4821C38.4053 38.8877 38.0316 39.1976 37.553 39.4072C37.0745 39.6169 36.4729 39.7217 35.7437 39.7217C34.4676 39.7217 33.5789 39.4756 33.0866 38.9834C32.5944 38.4821 32.3164 37.8577 32.248 37.1011ZM39.408 32.0696H46.4767V33.9291H44.1068V39.5895H41.7825V33.9291H39.408V32.0696ZM31.5872 14.2222C30.7532 14.1584 29.91 14.1675 29.076 14.2495C26.5101 14.4956 24.0171 15.4299 21.9571 17.0296C19.5735 18.8754 17.7641 21.6373 17.0668 25.297L16.8481 26.441L15.7087 26.6415C14.5921 26.8375 13.594 27.1064 12.7189 27.4482C11.8712 27.7764 11.1147 28.182 10.4538 28.6605C9.92513 29.0434 9.46937 29.4718 9.08198 29.9366C7.88334 31.3723 7.32732 33.1725 7.34099 34.9955C7.35467 36.8459 7.95626 38.7145 9.06831 40.2504C9.48305 40.8201 9.96159 41.3442 10.5085 41.8C11.0645 42.2603 11.6889 42.6431 12.3908 42.9302C12.7873 43.0943 13.2111 43.231 13.6532 43.3404V46.754C12.7417 46.59 11.9031 46.3438 11.1192 46.0203C10.0846 45.5919 9.16857 45.0404 8.36189 44.3659C7.59622 43.7278 6.92626 43.0032 6.35656 42.2147C4.83889 40.1182 4.01853 37.5569 4.0003 35.0046C3.98207 32.4251 4.7842 29.8592 6.51608 27.7809C7.07666 27.1064 7.7375 26.4866 8.49406 25.9397C9.37366 25.3016 10.3809 24.7638 11.5203 24.3217C12.3042 24.0164 13.1428 23.7611 14.0269 23.5561C15.0296 19.5727 17.1671 16.5055 19.9153 14.3771C22.4858 12.3855 25.5803 11.2233 28.7661 10.9179C30.4387 10.7584 32.1341 10.8314 33.7931 11.1413C33.7566 11.2917 33.7247 11.4421 33.7065 11.597L33.7019 11.6244C33.67 11.8841 33.6563 12.1439 33.67 12.4083C33.3191 12.545 32.9909 12.7319 32.6947 12.9597L32.681 12.9688C32.2389 13.3015 31.8652 13.73 31.5872 14.2222ZM55.7012 22.9727C55.9565 23.2051 56.2026 23.4467 56.4441 23.7065C56.9318 24.2306 57.3921 24.8231 57.8251 25.4839C59.2835 27.7262 60.0309 30.7205 59.999 33.651C59.9671 36.5269 59.1923 39.389 57.6063 41.4946C56.5717 42.8664 55.2455 43.9876 53.6549 44.8763C52.5656 45.487 51.3397 45.9929 50.0043 46.4031V42.871C50.7244 42.6021 51.3943 42.3013 52.0096 41.9595C53.2083 41.2895 54.1881 40.4737 54.9219 39.4938C56.0613 37.9762 56.6219 35.8296 56.6447 33.6283C56.672 31.3176 56.1069 28.9978 55.0085 27.3115C54.694 26.8238 54.3476 26.3863 53.983 25.9943C53.8418 25.8439 53.7005 25.7027 53.5546 25.5659C53.5774 25.3381 53.5865 25.1056 53.5729 24.8732C53.9238 24.7365 54.2519 24.5496 54.5482 24.3217L54.5619 24.3126C55.0313 23.9526 55.4232 23.4968 55.7012 22.9727ZM44.1433 14.8329C46.2443 15.12 47.7118 17.057 47.4247 19.158C47.1376 21.259 45.2006 22.7311 43.0996 22.444C40.9986 22.1569 39.5265 20.2199 39.8181 18.1189C40.1098 16.0179 42.0422 14.5458 44.1433 14.8329Z" fill="black"/>
</svg>
