<svg width="64" height="64" viewBox="0 0 64 64" fill="none" xmlns="http://www.w3.org/2000/svg">
<path d="M47.3425 35.3871C46.69 34.7346 46.323 33.8477 46.323 32.92V17.6591C46.3179 12.3224 41.9955 8 36.6639 8H27.9681C22.6365 8 18.3141 12.3224 18.3141 17.6591V32.8283C18.3141 33.7509 17.9471 34.6378 17.2947 35.2953L16 36.59L17.4272 38.3281C17.942 38.95 18.2173 39.7349 18.2173 40.5403V54.3638C18.2173 55.2711 18.9513 56 19.8535 56H26.6735C27.5808 56 28.3148 55.266 28.3148 54.3587V42.8544C28.3148 42.1561 28.8805 41.5903 29.5788 41.5903H35.303C36.0013 41.5903 36.5671 42.1561 36.5671 42.8544V54.3587C36.5671 55.266 37.3011 56 38.2083 56H44.9213C45.8286 56 46.5626 55.266 46.5626 54.3587V40.5913C46.5626 39.6687 46.9296 38.7818 47.582 38.1242L48.8308 36.8754L47.3425 35.3871ZM37.0003 30.6008C37.0003 31.3756 36.3734 32.0025 35.5986 32.0025H29.3699C28.5951 32.0025 27.9681 31.3756 27.9681 30.6008V19.7846C27.9681 19.0099 28.5951 18.3829 29.3699 18.3829H35.5986C36.3734 18.3829 37.0003 19.0099 37.0003 19.7846V30.6008Z" fill="black"/>
</svg>
