<svg width="64" height="64" viewBox="0 0 64 64" fill="none" xmlns="http://www.w3.org/2000/svg">
<path d="M45.7345 15.9592C47.0084 15.9592 48.0413 16.9921 48.0413 18.2661V45.7345C48.0413 47.0084 47.0084 48.0413 45.7345 48.0413H18.2655C16.9916 48.0413 15.9587 47.0084 15.9587 45.7345V18.2661C15.9587 16.9921 16.9916 15.9592 18.2655 15.9592H45.7345ZM45.7345 8.00058H18.2655C16.8831 8.00058 15.5382 8.27336 14.2672 8.81086C13.044 9.32817 11.947 10.0675 11.0064 11.0076C10.0664 11.9476 9.32702 13.0445 8.80971 14.2683C8.27279 15.5388 8 16.8837 8 18.2661V45.7345C8 47.1169 8.27279 48.4618 8.80971 49.7328C9.32702 50.9561 10.0664 52.053 11.0064 52.9936C11.9465 53.9336 13.0434 54.673 14.2672 55.1903C15.5377 55.7278 16.8831 56 18.2655 56H45.7345C47.1169 56 48.4618 55.7272 49.7328 55.1903C50.9561 54.673 52.053 53.9336 52.9936 52.9936C53.9342 52.0535 54.673 50.9566 55.1903 49.7328C55.7278 48.4623 56 47.1169 56 45.7345V18.2661C56 16.8837 55.7272 15.5388 55.1903 14.2677C54.673 13.0445 53.9336 11.9476 52.9936 11.007C52.0535 10.0664 50.9566 9.3276 49.7328 8.81028C48.4623 8.27279 47.1169 8 45.7345 8V8.00058Z" fill="black"/>
<path d="M37.6529 24.9635H26.347C25.5826 24.9635 24.9629 25.5832 24.9629 26.3476V37.6535C24.9629 38.418 25.5826 39.0377 26.347 39.0377H37.6529C38.4174 39.0377 39.037 38.418 39.037 37.6535V26.3476C39.037 25.5832 38.4174 24.9635 37.6529 24.9635Z" fill="black"/>
</svg>
