<svg width="64" height="64" viewBox="0 0 64 64" fill="none" xmlns="http://www.w3.org/2000/svg">
<path d="M54.0744 38.5505C55.7257 35.549 56.3932 32.3611 55.7696 28.9429C54.5215 31.4857 53.1865 33.9523 50.9483 35.7783C51.0263 35.5481 51.1598 35.3554 51.2861 35.1592C52.6516 33.0375 53.4839 30.7367 53.6067 28.2028C53.7241 25.7747 53.2546 23.4981 51.8183 21.483C51.5898 21.1623 51.3228 20.8684 51.0729 20.5628C51.9464 22.9721 52.0083 24.9818 51.6983 27.0139C50.9143 32.1451 48.471 36.3768 44.569 39.7789C44.1362 40.1561 43.6685 40.4929 43.165 40.889C44.6003 41.1085 45.9291 40.9284 47.2435 40.5628C48.557 40.1973 49.7262 39.545 50.8301 38.761C47.1413 42.603 42.7483 45.0347 37.2936 45.4441C38.316 46.4279 39.409 47.1518 40.6473 47.6688C41.8739 48.1804 43.1605 48.3704 44.4874 48.4456C43.6148 48.6365 42.7483 48.7691 41.8757 48.8443C39.9932 49.0065 38.1269 48.9223 36.3063 48.356C32.9517 47.3122 30.1411 45.3706 27.5714 43.0393C26.8994 42.43 26.2561 41.7894 25.6137 41.1766C25.7615 43.8555 27.3089 45.8088 29.2532 47.6832C29.0462 47.641 28.9987 47.6402 28.9593 47.6213C26.0393 46.2344 23.6999 44.222 22.2161 41.3056C20.9313 38.7798 20.5882 36.0937 20.934 33.3072C21.1822 31.3119 21.7323 29.4223 23.0019 27.8041C24.844 25.4567 27.2757 24.0186 30.1097 23.2167C30.3812 23.1397 30.7315 23.1791 31.0003 23.2821C32.6614 23.9183 34.2885 24.6485 35.9667 25.2336C38.9369 26.2693 41.9751 27.0273 45.154 26.9798C46.326 26.9628 47.48 26.7863 48.5399 26.2344C49.6886 25.6359 50.3023 24.7193 50.2961 23.3888C50.2916 22.5277 50.0586 21.7402 49.6949 20.9822C48.9539 19.4393 47.8922 18.133 46.6476 16.9763C42.1122 12.7616 36.8887 10.1525 30.5649 10.1184C30.34 10.1176 30.0721 10.002 29.8974 9.85324C29.1205 9.19022 28.2846 8.62127 27.3026 8.33545C25.0439 7.67691 22.9983 7.88926 21.4071 9.86578C20.9331 10.4544 20.4197 11.0153 19.8893 11.5547C19.0471 12.4121 18.0499 12.9542 16.8161 13.0501C16.1459 13.102 15.4721 13.2275 14.8226 13.404C13.2125 13.8394 12.4697 14.7372 12.3264 16.3849C12.2654 17.09 12.2663 17.8014 12.2448 18.5102C12.2099 19.6319 11.8757 20.5835 10.9403 21.3155C10.2486 21.8566 9.63037 22.5008 9.03185 23.1477C8.32224 23.9147 8.07854 24.8456 8.34554 25.8688C8.59193 26.8114 8.88133 27.7432 9.14923 28.6804C9.48701 29.8622 9.46192 31.0108 8.63762 31.9892C7.76136 33.0286 7.85006 34.0849 8.52832 35.118C9.09726 35.9844 9.79164 36.7675 10.4161 37.598C10.6124 37.8579 10.8131 38.1338 10.9268 38.434C12.5826 42.8019 15.0904 46.5784 18.7819 49.4778C25.0456 54.3976 32.1095 56.4852 39.9654 54.6978C47.2596 53.0375 52.2556 48.4483 55.2275 41.6219C55.2831 41.4947 55.318 41.3576 55.3986 41.1192C52.7967 43.0787 50.2432 44.8537 47.0231 45.3151C50.0739 43.7821 52.4347 41.535 54.0744 38.5541V38.5505ZM37.7452 17.5891C38.359 17.5864 38.8401 18.0541 38.8356 18.6508C38.8311 19.2117 38.3473 19.7063 37.7846 19.7251C37.1897 19.7439 36.6996 19.2717 36.6915 18.6705C36.6835 18.0434 37.1225 17.5918 37.7452 17.5891Z" fill="black"/>
</svg>
