<svg width="64" height="64" viewBox="0 0 64 64" fill="none" xmlns="http://www.w3.org/2000/svg">
<path d="M51.7511 10.7612C51.0607 12.4394 50.1681 13.9271 49.1803 15.2601C44.8242 10.8207 38.7305 8 32.006 8C18.7949 8 8 18.7354 8 31.994C8 38.9209 10.9636 45.1575 15.6648 49.5611L16.5574 50.3585C20.7111 53.8696 26.1146 56 31.994 56C44.61 56 55.0003 46.1572 55.8929 33.7317C56.607 27.6975 54.7741 19.9732 51.7511 10.7612ZM19.1401 49.7635C18.4498 50.6561 17.1644 50.7513 16.2718 50.061C15.3791 49.3707 15.2839 48.0853 15.9742 47.1927C16.6645 46.3 17.9499 46.2048 18.8425 46.8951C19.6876 47.5854 19.8304 48.8708 19.1401 49.7635ZM51.6082 42.5867C45.7168 50.4538 33.0533 47.7878 24.9839 48.1805C24.9839 48.1805 23.5438 48.2757 22.1155 48.4781C22.1155 48.4781 22.663 48.2281 23.3533 47.9782C29.0424 46.0025 31.7203 45.5978 35.1837 43.8244C41.6702 40.5038 48.1448 33.2318 49.4421 25.7099C46.9665 32.9343 39.4446 39.1708 32.6129 41.694C27.9117 43.4317 19.4495 45.1098 19.4495 45.1098L19.1044 44.9075C13.3677 42.0868 13.1654 29.6137 23.6628 25.6028C28.2688 23.8175 32.6248 24.8054 37.6236 23.6271C42.9199 22.3893 49.0612 18.426 51.5249 13.2368C54.2742 21.6038 57.6425 34.5648 51.6082 42.5867Z" fill="black"/>
</svg>
