<svg width="64" height="64" viewBox="0 0 64 64" fill="none" xmlns="http://www.w3.org/2000/svg">
<path fill-rule="evenodd" clip-rule="evenodd" d="M20 8C13.3726 8 8 13.3726 8 20V44C8 50.6274 13.3726 56 20 56H44C50.6274 56 56 50.6274 56 44V20C56 13.3726 50.6274 8 44 8H20ZM45.9994 38.2869L46.0026 38.2905L46.0021 38.292C49.8513 43.0281 48.8043 48.105 48.3116 47.147C46.2996 43.2325 42.5514 44.2318 40.6538 45.2168C40.4963 45.3106 40.3354 45.3994 40.1732 45.4866C40.1545 45.4981 40.1315 45.5106 40.1135 45.522L40.1166 45.5175C36.167 47.6162 30.8637 47.7716 25.5311 45.4799C21.0596 43.5578 17.3855 40.2657 15 36.4499C16.213 37.3455 17.5235 38.1337 18.9173 38.7869C24.5529 41.4263 30.213 41.2357 34.2187 38.7843C28.5176 34.3995 23.7589 28.69 20.1099 24.0623C19.408 23.2323 18.7695 22.3702 18.2327 21.4749C22.6024 25.474 29.5049 30.496 31.9816 31.886C26.7246 26.3319 22.0925 19.4923 22.3097 19.7113C30.5892 28.0535 38.2281 32.77 38.2281 32.77C38.5159 32.9287 38.7301 33.0555 38.9001 33.1672C39.0568 32.7651 39.1985 32.3515 39.3164 31.9205C40.6384 27.0875 39.1505 21.5621 35.7852 17C43.4648 21.6112 48.0029 30.3696 46.1435 37.7778C46.1076 37.9209 46.0664 38.0604 46.0251 38.1998C46.0165 38.2289 46.008 38.2579 45.9994 38.2869Z" fill="black"/>
</svg>
