<svg width="64" height="64" viewBox="0 0 64 64" fill="none" xmlns="http://www.w3.org/2000/svg">
<path fill-rule="evenodd" clip-rule="evenodd" d="M12.6875 8H51.3125C53.9013 8 56 10.0987 56 12.6875V51.3125C56 53.9013 53.9013 56 51.3125 56H12.6875C10.0987 56 8 53.9013 8 51.3125V12.6875C8 10.0987 10.0987 8 12.6875 8ZM37.713 50.8892V46.196C38.564 46.9098 39.4883 47.4452 40.4861 47.802C41.4838 48.1589 42.4912 48.3373 43.5085 48.3373C44.1053 48.3373 44.6261 48.2836 45.0712 48.1759C45.5162 48.0684 45.8879 47.9193 46.1862 47.7286C46.4845 47.538 46.7071 47.3132 46.8538 47.054C47.0005 46.7949 47.0739 46.5138 47.0739 46.2108C47.0739 45.8 46.9565 45.4334 46.7218 45.1108C46.4869 44.7881 46.1666 44.4899 45.7607 44.2161C45.3549 43.9424 44.873 43.6784 44.3155 43.4241C43.758 43.1699 43.1564 42.9108 42.5109 42.6468C40.8675 41.9624 39.6424 41.1264 38.8354 40.1389C38.0285 39.1513 37.625 37.9585 37.625 36.5603C37.625 35.4652 37.8451 34.5241 38.2853 33.7371C38.7254 32.95 39.3245 32.3022 40.0825 31.7938C40.8407 31.2854 41.7186 30.9114 42.7162 30.6718C43.7139 30.4324 44.7703 30.3125 45.8855 30.3125C46.981 30.3125 47.9518 30.3785 48.7979 30.5105C49.644 30.6425 50.4241 30.8454 51.1381 31.1191V35.5044C50.786 35.2599 50.4021 35.0449 49.9864 34.859C49.5706 34.6733 49.1427 34.5193 48.7026 34.397C48.2623 34.2749 47.8246 34.1844 47.3893 34.1257C46.9541 34.0671 46.5408 34.0377 46.1496 34.0377C45.6115 34.0377 45.1225 34.0891 44.6823 34.1917C44.2421 34.2944 43.8705 34.4387 43.5672 34.6244C43.264 34.8102 43.0293 35.0326 42.8629 35.2917C42.6967 35.5508 42.6135 35.8417 42.6135 36.1643C42.6135 36.5164 42.7065 36.8316 42.8923 37.1103C43.0781 37.3889 43.3422 37.6529 43.6846 37.9023C44.0269 38.1516 44.4426 38.396 44.9317 38.6356C45.4208 38.8752 45.9735 39.122 46.5897 39.3763C47.4309 39.7282 48.1866 40.1022 48.8566 40.4982C49.5266 40.8942 50.1013 41.3416 50.5805 41.8402C51.0599 42.3389 51.4266 42.9084 51.681 43.5488C51.9354 44.1892 52.0625 44.9347 52.0625 45.7854C52.0625 46.9587 51.8399 47.9437 51.3949 48.7406C50.9498 49.5374 50.3458 50.1828 49.5829 50.6765C48.82 51.1703 47.9322 51.5248 46.9198 51.7398C45.9074 51.955 44.8389 52.0625 43.7139 52.0625C42.5597 52.0625 41.4618 51.9647 40.42 51.7692C39.3783 51.5736 38.476 51.2804 37.713 50.8892ZM35.8437 34.6327H29.8231V51.7813H25.0536V34.6327H19.0625V30.7813H35.8437V34.6327Z" fill="black"/>
</svg>
