<svg width="48" height="48" viewBox="0 0 48 48" fill="none" xmlns="http://www.w3.org/2000/svg">
<path fill-rule="evenodd" clip-rule="evenodd" d="M11.4734 44.7778H36.5266C41.0838 44.7778 44.7778 41.084 44.7778 36.5253V11.4734C44.7778 6.91623 41.084 3.22222 36.5253 3.22222H11.4734C6.91613 3.22222 3.22222 6.91613 3.22222 11.4734V36.5266C3.22222 41.0839 6.91613 44.7778 11.4734 44.7778ZM11.4734 46H36.5266C41.7589 46 46 41.7589 46 36.5253V11.4734C46 6.24111 41.7589 2 36.5253 2H11.4734C6.24111 2 2 6.24111 2 11.4734V36.5266C2 41.7589 6.24111 46 11.4734 46Z" fill="black"/>
<path d="M10.1204 13.1083C10.1204 13.1083 18.4951 25.6013 25.5363 29.827C22.8718 30.6726 17.0869 34.1276 7 28.022C9.5689 31.4976 14.1172 38.4682 25.2507 37.8113C29.1519 37.6238 31.5308 36.4019 33.7198 35.5575C35.9087 34.7131 38.0021 34.8063 39.8099 38C40.191 35.0881 40.2854 32.3638 37.241 29.2644C37.241 29.2644 40.2511 17.9376 27.4348 9C30.0993 14.26 31.6423 17.2263 30.3898 24.4738C27.5353 22.5951 16.9925 14.2152 14.6136 11.4909C16.327 14.4971 21.2552 21.0914 22.9674 22.7826C19.9229 20.7164 10.1204 13.1083 10.1204 13.1083Z" fill="black"/>
</svg>
