<svg width="340" height="340" viewBox="0 0 340 340" fill="none" xmlns="http://www.w3.org/2000/svg">
<path d="M50.0625 262.438L151 306" stroke="white" stroke-width="6"/>
<path d="M190.312 304.937L290.188 262.438" stroke="white" stroke-width="6"/>
<path d="M50.0625 78.625L151 36.125" stroke="white" stroke-width="6"/>
<path d="M189.25 142.375L290.188 99.875" stroke="white" stroke-width="6"/>
<path d="M32 109.438V231.625" stroke="white" stroke-width="6"/>
<path d="M308.25 109.438V166.812" stroke="white" stroke-width="6"/>
<path d="M170.125 179.562V289" stroke="#7D8387" stroke-width="3" stroke-dasharray="4 8"/>
<path d="M190.312 36.6562L290.188 79.1562" stroke="white" stroke-width="6"/>
<path d="M50.0625 99.875L152.062 143.437" stroke="white" stroke-width="6"/>
<path d="M32 108.438C43.1838 108.438 52.25 99.3713 52.25 88.1875C52.25 77.0037 43.1838 67.9375 32 67.9375C20.8162 67.9375 11.75 77.0037 11.75 88.1875C11.75 99.3713 20.8162 108.438 32 108.438Z" stroke="white" stroke-width="6"/>
<path d="M32 273.125C43.1838 273.125 52.25 264.059 52.25 252.875C52.25 241.691 43.1838 232.625 32 232.625C20.8162 232.625 11.75 241.691 11.75 252.875C11.75 264.059 20.8162 273.125 32 273.125Z" stroke="white" stroke-width="6"/>
<path d="M170.125 51.0625C181.309 51.0625 190.375 41.9963 190.375 30.8125C190.375 19.6287 181.309 10.5625 170.125 10.5625C158.941 10.5625 149.875 19.6287 149.875 30.8125C149.875 41.9963 158.941 51.0625 170.125 51.0625Z" stroke="white" stroke-width="6"/>
<path d="M170.125 171.125C181.309 171.125 190.375 162.059 190.375 150.875C190.375 139.691 181.309 130.625 170.125 130.625C158.941 130.625 149.875 139.691 149.875 150.875C149.875 162.059 158.941 171.125 170.125 171.125Z" stroke="white" stroke-width="6"/>
<path d="M170.125 331.5C181.861 331.5 191.375 321.986 191.375 310.25C191.375 298.514 181.861 289 170.125 289C158.389 289 148.875 298.514 148.875 310.25C148.875 321.986 158.389 331.5 170.125 331.5Z" fill="#42A6F8"/>
<path d="M308.25 273.125C319.434 273.125 328.5 264.059 328.5 252.875C328.5 241.691 319.434 232.625 308.25 232.625C297.066 232.625 288 241.691 288 252.875C288 264.059 297.066 273.125 308.25 273.125Z" stroke="white" stroke-width="6"/>
<path d="M308.25 109.438C319.986 109.438 329.5 99.9235 329.5 88.1875C329.5 76.4514 319.986 66.9375 308.25 66.9375C296.514 66.9375 287 76.4514 287 88.1875C287 99.9235 296.514 109.438 308.25 109.438Z" fill="#42A6F8"/>
</svg>
