<svg width="340" height="340" viewBox="0 0 340 340" fill="none" xmlns="http://www.w3.org/2000/svg">
<path d="M189.356 51H142.332C86.3677 51 41 96.3677 41 152.332V199.356C41 255.32 86.3677 300.688 142.332 300.688H189.356C245.32 300.688 290.688 255.32 290.688 199.356V152.332C290.688 96.3677 245.32 51 189.356 51Z" stroke="#7D8387" stroke-width="4" stroke-miterlimit="10"/>
<path d="M279.562 108.375C305.968 108.375 327.374 86.9686 327.374 60.5625C327.374 34.1564 305.968 12.75 279.562 12.75C253.155 12.75 231.749 34.1564 231.749 60.5625C231.749 86.9686 253.155 108.375 279.562 108.375Z" fill="#42A6F8"/>
<mask id="mask0_369_34" style="mask-type:luminance" maskUnits="userSpaceOnUse" x="250" y="38" width="59" height="45">
<path d="M308.25 38.25H250.875V82.875H308.25V38.25Z" fill="white"/>
</mask>
<g mask="url(#mask0_369_34)">
<path d="M264.991 48.9507L254.062 59.8793L264.991 70.8078" stroke="black" stroke-width="2" stroke-miterlimit="10" stroke-linecap="square"/>
<path d="M294.134 48.9507L305.062 59.8793L294.134 70.8078" stroke="black" stroke-width="2" stroke-miterlimit="10" stroke-linecap="square"/>
<path d="M272.276 79.9151L286.848 39.8438" stroke="black" stroke-width="2" stroke-miterlimit="10" stroke-linecap="square"/>
</g>
<path d="M219 175.5C219 215.592 212.967 251.843 203.246 278.036C198.384 291.136 192.619 301.668 186.268 308.906C179.915 316.147 173.063 320 166 320C158.937 320 152.085 316.147 145.732 308.906C139.381 301.668 133.616 291.136 128.754 278.036C119.033 251.843 113 215.592 113 175.5C113 135.408 119.033 99.1567 128.754 72.9639C133.616 59.8637 139.381 49.332 145.732 42.0937C152.085 34.8535 158.937 31 166 31C173.063 31 179.915 34.8535 186.268 42.0937C192.619 49.332 198.384 59.8637 203.246 72.9639C212.967 99.1567 219 135.408 219 175.5Z" stroke="white" stroke-width="6"/>
<path d="M165.5 122.5C205.592 122.5 241.843 128.533 268.036 138.254C281.136 143.116 291.668 148.881 298.906 155.232C306.147 161.585 310 168.437 310 175.5C310 182.563 306.147 189.415 298.906 195.768C291.668 202.119 281.136 207.884 268.036 212.746C241.843 222.467 205.592 228.5 165.5 228.5C125.408 228.5 89.1567 222.467 62.9639 212.746C49.8637 207.884 39.332 202.119 32.0937 195.768C24.8535 189.415 21 182.563 21 175.5C21 168.437 24.8535 161.585 32.0937 155.232C39.332 148.881 49.8637 143.116 62.9639 138.254C89.1567 128.533 125.408 122.5 165.5 122.5Z" stroke="white" stroke-width="6"/>
</svg>
