<svg width="340" height="340" viewBox="0 0 340 340" fill="none" xmlns="http://www.w3.org/2000/svg">
<path d="M170 198V279" stroke="white" stroke-width="6"/>
<mask id="mask0_369_57" style="mask-type:luminance" maskUnits="userSpaceOnUse" x="12" y="20" width="316" height="179">
<path fill-rule="evenodd" clip-rule="evenodd" d="M62 198.99C34.295 198.458 12 175.832 12 148C12 119.833 34.8335 97 63 97C63.0702 97 63.1403 97.0001 63.2104 97.0004C62.4162 92.9564 62 88.7768 62 84.5C62 48.8776 90.8776 20 126.5 20C156.526 20 181.76 40.517 188.948 68.2963C196.41 62.471 205.8 59 216 59C239.272 59 258.324 77.0666 259.895 99.9392C265.242 98.0361 271 97 277 97C305.167 97 328 119.833 328 148C328 176.167 305.167 199 277 199H63H62V198.99Z" fill="white"/>
</mask>
<g mask="url(#mask0_369_57)">
<mask id="path-3-outside-1_369_57" maskUnits="userSpaceOnUse" x="6" y="14" width="328" height="192" fill="black">
<rect fill="white" x="6" y="14" width="328" height="192"/>
<path d="M62 198.99H64V197.028L62.0385 196.991L62 198.99ZM63.2104 97.0004L63.2024 99.0004L65.6433 99.0102L65.173 96.615L63.2104 97.0004ZM188.948 68.2963L187.011 68.7973L187.775 71.7489L190.178 69.8728L188.948 68.2963ZM259.895 99.9392L257.9 100.076L258.081 102.708L260.566 101.823L259.895 99.9392ZM62 199H60V201H62V199ZM62.0385 196.991C35.4207 196.479 14 174.741 14 148H10C10 176.924 33.1693 200.436 61.9615 200.99L62.0385 196.991ZM14 148C14 120.938 35.938 99 63 99V95C33.7289 95 10 118.729 10 148H14ZM63 99C63.0674 99 63.1349 99.0001 63.2024 99.0004L63.2185 95.0004C63.1458 95.0002 63.0729 95 63 95V99ZM65.173 96.615C64.4036 92.6972 64 88.6467 64 84.5H60C60 88.9069 60.4289 93.2155 61.2479 97.3858L65.173 96.615ZM64 84.5C64 49.9822 91.9822 22 126.5 22V18C89.7731 18 60 47.7731 60 84.5H64ZM126.5 22C155.592 22 180.047 41.8789 187.011 68.7973L190.884 67.7954C183.474 39.1551 157.46 18 126.5 18V22ZM190.178 69.8728C197.302 64.3122 206.261 61 216 61V57C205.338 57 195.518 60.6298 187.717 66.7198L190.178 69.8728ZM216 61C238.213 61 256.4 78.2453 257.9 100.076L261.89 99.8021C260.247 75.8879 240.33 57 216 57V61ZM260.566 101.823C265.7 99.9959 271.232 99 277 99V95C270.768 95 264.784 96.0764 259.225 98.055L260.566 101.823ZM277 99C304.062 99 326 120.938 326 148H330C330 118.729 306.271 95 277 95V99ZM326 148C326 175.062 304.062 197 277 197V201C306.271 201 330 177.271 330 148H326ZM277 197H63V201H277V197ZM63 197H62V201H63V197ZM64 199V198.99H60V199H64Z"/>
</mask>
<path d="M62 198.99H64V197.028L62.0385 196.991L62 198.99ZM63.2104 97.0004L63.2024 99.0004L65.6433 99.0102L65.173 96.615L63.2104 97.0004ZM188.948 68.2963L187.011 68.7973L187.775 71.7489L190.178 69.8728L188.948 68.2963ZM259.895 99.9392L257.9 100.076L258.081 102.708L260.566 101.823L259.895 99.9392ZM62 199H60V201H62V199ZM62.0385 196.991C35.4207 196.479 14 174.741 14 148H10C10 176.924 33.1693 200.436 61.9615 200.99L62.0385 196.991ZM14 148C14 120.938 35.938 99 63 99V95C33.7289 95 10 118.729 10 148H14ZM63 99C63.0674 99 63.1349 99.0001 63.2024 99.0004L63.2185 95.0004C63.1458 95.0002 63.0729 95 63 95V99ZM65.173 96.615C64.4036 92.6972 64 88.6467 64 84.5H60C60 88.9069 60.4289 93.2155 61.2479 97.3858L65.173 96.615ZM64 84.5C64 49.9822 91.9822 22 126.5 22V18C89.7731 18 60 47.7731 60 84.5H64ZM126.5 22C155.592 22 180.047 41.8789 187.011 68.7973L190.884 67.7954C183.474 39.1551 157.46 18 126.5 18V22ZM190.178 69.8728C197.302 64.3122 206.261 61 216 61V57C205.338 57 195.518 60.6298 187.717 66.7198L190.178 69.8728ZM216 61C238.213 61 256.4 78.2453 257.9 100.076L261.89 99.8021C260.247 75.8879 240.33 57 216 57V61ZM260.566 101.823C265.7 99.9959 271.232 99 277 99V95C270.768 95 264.784 96.0764 259.225 98.055L260.566 101.823ZM277 99C304.062 99 326 120.938 326 148H330C330 118.729 306.271 95 277 95V99ZM326 148C326 175.062 304.062 197 277 197V201C306.271 201 330 177.271 330 148H326ZM277 197H63V201H277V197ZM63 197H62V201H63V197ZM64 199V198.99H60V199H64Z" fill="white"/>
<path d="M14 146H10V150H14V146ZM65 99V95H61V99H65ZM64 82.5H60V86.5H64V82.5ZM128.5 22V18H124.5V22H128.5ZM218 61V57H214V61H218ZM279 99V95H275V99H279ZM326 150H330V146H326V150ZM275 197V201H279V197H275ZM61 197V201H65V197H61ZM62 198.99L58.0007 198.913L57.9222 202.99H62V198.99ZM64 197.028H68V193.103L64.0754 193.029L64 197.028ZM63.2104 97.0004L62.4396 93.0754L59.2235 93.7069L59.2104 96.9844L63.2104 97.0004ZM63.2024 99.0004L63.1846 103L63.1863 103L63.2024 99.0004ZM65.6433 99.0102L65.6272 103.01L70.5089 103.03L69.5684 98.2395L65.6433 99.0102ZM65.173 96.615L69.098 95.8443L69.098 95.8442L65.173 96.615ZM188.948 68.2963L192.102 65.8358L190.487 63.7665L187.946 64.4237L188.948 68.2963ZM187.011 68.7973L183.138 69.7991L183.139 69.7996L187.011 68.7973ZM187.775 71.7489L183.903 72.7512L185.43 78.654L190.237 74.9018L187.775 71.7489ZM259.895 99.9392L263.663 98.597L262.646 95.7412L259.621 95.9486L259.895 99.9392ZM257.9 100.076L253.909 100.35L253.909 100.35L257.9 100.076ZM258.081 102.708L254.09 102.982L254.452 108.246L259.423 106.476L258.081 102.708ZM62 199H66V195H62V199ZM60 201H56V205H60V201ZM61.9615 200.99L61.8845 204.989L65.8837 205.066L65.9608 201.067L61.9615 200.99ZM63.2185 95.0004L67.2185 95.0165L67.2346 91.0114L63.2295 91.0004L63.2185 95.0004ZM61.2479 97.3858L57.3229 98.1566L58.0937 102.082L62.0187 101.311L61.2479 97.3858ZM190.884 67.7954L191.886 71.6679L195.758 70.6661L194.756 66.7935L190.884 67.7954ZM187.717 66.7198L185.256 63.5668L182.103 66.028L184.564 69.181L187.717 66.7198ZM261.89 99.8021L262.164 103.793L266.155 103.519L265.881 99.5279L261.89 99.8021ZM259.225 98.055L257.884 94.2866L254.115 95.6278L255.457 99.3962L259.225 98.055ZM62 197V193H58V197H62ZM64 199V203H68V199H64ZM60 198.99V194.99H56V198.99H60ZM62 202.99H64V194.99H62V202.99ZM68 198.99V197.028H60V198.99H68ZM64.0754 193.029L62.1139 192.992L61.9631 200.99L63.9246 201.027L64.0754 193.029ZM58.0392 196.914L58.0007 198.913L65.9993 199.067L66.0378 197.068L58.0392 196.914ZM59.2104 96.9844L59.2024 98.9844L67.2024 99.0164L67.2104 97.0164L59.2104 96.9844ZM63.1863 103L65.6272 103.01L65.6594 95.0102L63.2185 95.0004L63.1863 103ZM69.5684 98.2395L69.098 95.8443L61.2479 97.3857L61.7183 99.7809L69.5684 98.2395ZM64.4022 92.69L62.4396 93.0754L63.9812 100.925L65.9438 100.54L64.4022 92.69ZM187.946 64.4237L186.009 64.9247L188.013 72.6699L189.95 72.1689L187.946 64.4237ZM183.139 69.7996L183.903 72.7512L191.647 70.7466L190.883 67.795L183.139 69.7996ZM190.237 74.9018L192.64 73.0257L187.716 66.7199L185.313 68.596L190.237 74.9018ZM193.332 67.4123L192.102 65.8358L185.794 70.7568L187.024 72.3333L193.332 67.4123ZM259.621 95.9486L257.626 96.0854L258.174 104.067L260.169 103.93L259.621 95.9486ZM253.909 100.35L254.09 102.982L262.072 102.434L261.891 99.8016L253.909 100.35ZM259.423 106.476L261.908 105.591L259.224 98.0548L256.739 98.9398L259.423 106.476ZM264.334 100.481L263.663 98.597L256.127 101.281L256.798 103.165L264.334 100.481ZM62 195H60V203H62V195ZM56 199V201H64V199H56ZM60 205H62V197H60V205ZM66 201V199H58V201H66ZM62.1154 192.992C37.6722 192.522 18 172.558 18 148H10C10 176.924 33.1692 200.436 61.9616 200.99L62.1154 192.992ZM6 148C6 179.107 30.9179 204.393 61.8845 204.989L62.0384 196.991C35.4207 196.479 14 174.741 14 148H6ZM65.9608 201.067L66.0378 197.068L58.0392 196.914L57.9622 200.913L65.9608 201.067ZM18 148C18 123.147 38.1471 103 63 103V95C33.7289 95 10 118.729 10 148H18ZM63 91C31.5198 91 6 116.52 6 148H14C14 120.938 35.938 99 63 99V91ZM63 103C63.0638 103 63.125 103 63.1846 103L63.2202 95.0004C63.1448 95.0001 63.071 95 63 95V103ZM67.2024 99.0165L67.2185 95.0165L59.2185 94.9843L59.2024 98.9843L67.2024 99.0165ZM63.2295 91.0004C63.1575 91.0002 63.0792 91 63 91V99C63.0666 99 63.1341 99.0002 63.2075 99.0004L63.2295 91.0004ZM69.098 95.8442C68.3782 92.1789 68 88.3865 68 84.5H60C60 88.9069 60.429 93.2155 61.248 97.3858L69.098 95.8442ZM56 84.5C56 89.167 56.4543 93.7337 57.3229 98.1566L65.1729 96.615C64.4035 92.6973 64 88.6468 64 84.5H56ZM62.0187 101.311L65.9438 100.54L64.4022 92.69L60.4771 93.4608L62.0187 101.311ZM68 84.5C68 52.1913 94.1913 26 126.5 26V18C89.7731 18 60 47.7731 60 84.5H68ZM126.5 14C87.564 14 56 45.564 56 84.5H64C64 49.9822 91.9822 22 126.5 22V14ZM126.5 26C153.725 26 176.62 44.603 183.138 69.7991L190.884 67.7955C183.474 39.1548 157.459 18 126.5 18V26ZM188.013 72.6698L191.886 71.6679L189.882 63.9229L186.009 64.9248L188.013 72.6698ZM194.756 66.7935C186.901 36.4316 159.328 14 126.5 14V22C155.592 22 180.047 41.8786 187.012 68.7973L194.756 66.7935ZM192.639 73.026C199.085 67.9946 207.184 65 216 65V57C205.338 57 195.519 60.6298 187.717 66.7196L192.639 73.026ZM216 53C204.415 53 193.735 56.9474 185.256 63.5668L190.178 69.8728C197.301 64.3122 206.261 61 216 61V53ZM184.564 69.181L187.025 72.334L193.331 67.4116L190.87 64.2586L184.564 69.181ZM216 65C236.096 65 252.553 80.603 253.909 100.35L261.891 99.8018C260.247 75.8876 240.33 57 216 57V65ZM258.174 104.067L262.164 103.793L261.616 95.8115L257.626 96.0854L258.174 104.067ZM265.881 99.5279C264.094 73.5307 242.447 53 216 53V61C238.213 61 256.4 78.2451 257.899 100.076L265.881 99.5279ZM261.907 105.591C266.617 103.915 271.695 103 277 103V95C270.769 95 264.783 96.0764 259.225 98.0545L261.907 105.591ZM277 91C270.305 91 263.867 92.1569 257.884 94.2866L260.566 101.823C265.701 99.9959 271.231 99 277 99V91ZM255.457 99.3962L256.798 103.164L264.334 100.482L262.993 96.7138L255.457 99.3962ZM277 103C301.853 103 322 123.147 322 148H330C330 118.729 306.271 95 277 95V103ZM334 148C334 116.52 308.48 91 277 91V99C304.062 99 326 120.938 326 148H334ZM322 148C322 172.853 301.853 193 277 193V201C306.271 201 330 177.271 330 148H322ZM277 205C308.48 205 334 179.48 334 148H326C326 175.062 304.062 197 277 197V205ZM277 193H63V201H277V193ZM63 205H277V197H63V205ZM63 193H62V201H63V193ZM58 197V201H66V197H58ZM62 205H63V197H62V205ZM68 199V198.99H60V199H68ZM64 194.99H60V202.99H64V194.99ZM56 198.99V199H64V198.99H56ZM60 203H64V195H60V203Z" fill="white" mask="url(#path-3-outside-1_369_57)"/>
</g>
<path fill-rule="evenodd" clip-rule="evenodd" d="M145.127 125.696C145.127 127.095 145.278 128.23 145.544 129.062C145.847 129.894 146.226 130.801 146.757 131.785C146.947 132.087 147.022 132.39 147.022 132.655C147.022 133.033 146.795 133.411 146.302 133.789L143.913 135.377C143.572 135.604 143.231 135.718 142.928 135.718C142.548 135.718 142.169 135.529 141.79 135.188C141.259 134.621 140.804 134.016 140.425 133.411C140.046 132.768 139.667 132.049 139.25 131.18C136.292 134.659 132.577 136.399 128.103 136.399C124.918 136.399 122.378 135.491 120.52 133.676C118.662 131.86 117.714 129.44 117.714 126.414C117.714 123.2 118.851 120.59 121.164 118.624C123.477 116.657 126.548 115.674 130.453 115.674C131.743 115.674 133.07 115.787 134.472 115.976C135.875 116.165 137.316 116.468 138.833 116.808V114.048C138.833 111.173 138.226 109.169 137.051 107.997C135.837 106.824 133.79 106.257 130.87 106.257C129.544 106.257 128.179 106.408 126.776 106.748C125.373 107.089 124.008 107.505 122.681 108.034C122.074 108.299 121.619 108.45 121.354 108.526C121.088 108.602 120.899 108.639 120.747 108.639C120.216 108.639 119.951 108.261 119.951 107.467V105.614C119.951 105.009 120.027 104.555 120.216 104.29C120.406 104.026 120.747 103.761 121.278 103.496C122.605 102.815 124.197 102.248 126.055 101.794C127.913 101.303 129.885 101.076 131.97 101.076C136.482 101.076 139.781 102.097 141.904 104.139C143.989 106.181 145.051 109.282 145.051 113.442V125.696H145.127ZM129.733 131.444C130.984 131.444 132.273 131.217 133.638 130.764C135.003 130.31 136.217 129.478 137.24 128.343C137.847 127.625 138.302 126.83 138.529 125.923C138.757 125.015 138.909 123.918 138.909 122.632V121.044C137.809 120.779 136.634 120.552 135.42 120.401C134.207 120.25 133.032 120.174 131.856 120.174C129.316 120.174 127.458 120.666 126.207 121.687C124.956 122.708 124.349 124.145 124.349 126.036C124.349 127.814 124.804 129.137 125.752 130.045C126.662 130.99 127.989 131.444 129.733 131.444ZM160.179 135.529C159.497 135.529 159.042 135.415 158.738 135.151C158.435 134.924 158.169 134.394 157.942 133.676L149.032 104.442C148.804 103.685 148.691 103.194 148.691 102.929C148.691 102.324 148.994 101.983 149.601 101.983H153.316C154.037 101.983 154.53 102.097 154.795 102.361C155.098 102.588 155.326 103.118 155.553 103.836L161.923 128.873L167.838 103.836C168.027 103.08 168.255 102.588 168.558 102.361C168.862 102.135 169.392 101.983 170.075 101.983H173.108C173.828 101.983 174.321 102.097 174.625 102.361C174.928 102.588 175.193 103.118 175.345 103.836L181.336 129.175L187.895 103.836C188.122 103.08 188.388 102.588 188.653 102.361C188.957 102.135 189.449 101.983 190.132 101.983H193.658C194.265 101.983 194.606 102.286 194.606 102.929C194.606 103.09 194.578 103.252 194.547 103.437L194.53 103.534C194.492 103.761 194.416 104.063 194.265 104.479L185.127 133.714C184.9 134.47 184.634 134.961 184.331 135.188C184.028 135.415 183.535 135.567 182.89 135.567H179.629C178.909 135.567 178.416 135.453 178.113 135.188C177.81 134.924 177.544 134.432 177.393 133.676L171.516 109.282L165.677 133.638C165.487 134.394 165.26 134.886 164.956 135.151C164.653 135.415 164.122 135.529 163.44 135.529H160.179ZM208.9 136.55C206.928 136.55 204.957 136.323 203.061 135.869C201.165 135.415 199.686 134.924 198.701 134.356C198.094 134.016 197.677 133.638 197.525 133.298C197.374 132.957 197.298 132.579 197.298 132.239V130.31C197.298 129.516 197.601 129.137 198.17 129.137C198.397 129.137 198.625 129.175 198.852 129.251C198.999 129.3 199.193 129.38 199.414 129.471C199.536 129.521 199.666 129.575 199.8 129.629C201.089 130.196 202.492 130.65 203.971 130.953C205.488 131.255 206.966 131.406 208.483 131.406C210.871 131.406 212.729 130.99 214.018 130.159C215.308 129.327 215.99 128.116 215.99 126.566C215.99 125.507 215.649 124.637 214.966 123.918C214.284 123.2 212.995 122.557 211.137 121.952L205.639 120.25C202.871 119.38 200.824 118.094 199.573 116.392C198.322 114.728 197.677 112.875 197.677 110.909C197.677 109.32 198.018 107.921 198.701 106.711C199.383 105.5 200.293 104.442 201.431 103.61C202.568 102.74 203.857 102.097 205.374 101.643C206.89 101.189 208.483 101 210.151 101C210.985 101 211.857 101.038 212.692 101.151C213.564 101.265 214.36 101.416 215.156 101.567C215.914 101.756 216.635 101.945 217.317 102.172C218 102.399 218.53 102.626 218.91 102.853C219.44 103.156 219.819 103.458 220.047 103.799C220.275 104.101 220.388 104.517 220.388 105.047V106.824C220.388 107.618 220.085 108.034 219.516 108.034C219.213 108.034 218.72 107.883 218.075 107.581C215.914 106.597 213.488 106.106 210.796 106.106C208.635 106.106 206.928 106.446 205.753 107.165C204.578 107.883 203.971 108.98 203.971 110.53C203.971 111.589 204.35 112.497 205.109 113.216C205.867 113.934 207.27 114.653 209.279 115.296L214.663 116.997C217.393 117.867 219.365 119.077 220.54 120.628C221.715 122.179 222.284 123.956 222.284 125.923C222.284 127.549 221.943 129.024 221.298 130.31C220.616 131.596 219.706 132.73 218.53 133.638C217.355 134.583 215.952 135.264 214.322 135.756C212.616 136.285 210.834 136.55 208.9 136.55ZM216.066 154.931C203.591 164.121 185.468 169 169.885 169C148.046 169 128.368 160.944 113.505 147.557C112.33 146.498 113.391 145.06 114.794 145.892C130.87 155.196 150.7 160.831 171.212 160.831C185.051 160.831 200.255 157.957 214.246 152.057C216.331 151.112 218.113 153.418 216.066 154.931ZM206.663 148.539C210.72 148.048 219.668 146.989 221.26 149.031C222.853 151.035 219.478 159.469 217.961 163.213C217.506 164.348 218.492 164.801 219.516 163.932C226.189 158.334 227.933 146.648 226.568 144.947C225.203 143.282 213.487 141.845 206.359 146.837C205.26 147.632 205.449 148.691 206.663 148.539Z" fill="#42A6F8"/>
<path d="M96.25 272.5C107.434 272.5 116.5 263.434 116.5 252.25C116.5 241.066 107.434 232 96.25 232C85.0662 232 76 241.066 76 252.25C76 263.434 85.0662 272.5 96.25 272.5Z" stroke="white" stroke-width="6"/>
<path d="M170.25 320.5C181.434 320.5 190.5 311.434 190.5 300.25C190.5 289.066 181.434 280 170.25 280C159.066 280 150 289.066 150 300.25C150 311.434 159.066 320.5 170.25 320.5Z" stroke="white" stroke-width="6"/>
<path d="M244.25 272.5C255.434 272.5 264.5 263.434 264.5 252.25C264.5 241.066 255.434 232 244.25 232C233.066 232 224 241.066 224 252.25C224 263.434 233.066 272.5 244.25 272.5Z" stroke="white" stroke-width="6"/>
<path d="M116.5 253H141.5V198.5" stroke="white" stroke-width="6"/>
<path d="M225 253H200V199" stroke="white" stroke-width="6"/>
</svg>
