<svg width="340" height="340" viewBox="0 0 340 340" fill="none" xmlns="http://www.w3.org/2000/svg">
<path d="M170 198V279" stroke="white" stroke-width="4"/>
<mask id="mask0_369_57" style="mask-type:luminance" maskUnits="userSpaceOnUse" x="12" y="20" width="316" height="179">
<path fill-rule="evenodd" clip-rule="evenodd" d="M62 198.99C34.295 198.458 12 175.832 12 148C12 119.833 34.8335 97 63 97C63.0702 97 63.1403 97.0001 63.2104 97.0004C62.4162 92.9564 62 88.7768 62 84.5C62 48.8776 90.8776 20 126.5 20C156.526 20 181.76 40.517 188.948 68.2963C196.41 62.471 205.8 59 216 59C239.272 59 258.324 77.0666 259.895 99.9392C265.242 98.0361 271 97 277 97C305.167 97 328 119.833 328 148C328 176.167 305.167 199 277 199H63H62V198.99Z" fill="white"/>
</mask>
<g mask="url(#mask0_369_57)">
<mask id="path-3-outside-1_369_57" maskUnits="userSpaceOnUse" x="8" y="16" width="324" height="188" fill="black">
<rect fill="white" x="8" y="16" width="324" height="188"/>
<path d="M62 198.99H64V197.028L62.0385 196.991L62 198.99ZM63.2104 97.0004L63.2024 99.0004L65.6433 99.0102L65.173 96.615L63.2104 97.0004ZM188.948 68.2963L187.011 68.7973L187.775 71.7489L190.178 69.8728L188.948 68.2963ZM259.895 99.9392L257.9 100.076L258.081 102.708L260.566 101.823L259.895 99.9392ZM62 199H60V201H62V199ZM62.0385 196.991C35.4207 196.479 14 174.741 14 148H10C10 176.924 33.1693 200.436 61.9615 200.99L62.0385 196.991ZM14 148C14 120.938 35.938 99 63 99V95C33.7289 95 10 118.729 10 148H14ZM63 99C63.0674 99 63.1349 99.0001 63.2024 99.0004L63.2185 95.0004C63.1458 95.0002 63.0729 95 63 95V99ZM65.173 96.615C64.4036 92.6972 64 88.6467 64 84.5H60C60 88.9069 60.4289 93.2155 61.2479 97.3858L65.173 96.615ZM64 84.5C64 49.9822 91.9822 22 126.5 22V18C89.7731 18 60 47.7731 60 84.5H64ZM126.5 22C155.592 22 180.047 41.8789 187.011 68.7973L190.884 67.7954C183.474 39.1551 157.46 18 126.5 18V22ZM190.178 69.8728C197.302 64.3122 206.261 61 216 61V57C205.338 57 195.518 60.6298 187.717 66.7198L190.178 69.8728ZM216 61C238.213 61 256.4 78.2453 257.9 100.076L261.89 99.8021C260.247 75.8879 240.33 57 216 57V61ZM260.566 101.823C265.7 99.9959 271.232 99 277 99V95C270.768 95 264.784 96.0764 259.225 98.055L260.566 101.823ZM277 99C304.062 99 326 120.938 326 148H330C330 118.729 306.271 95 277 95V99ZM326 148C326 175.062 304.062 197 277 197V201C306.271 201 330 177.271 330 148H326ZM277 197H63V201H277V197ZM63 197H62V201H63V197ZM64 199V198.99H60V199H64Z"/>
</mask>
<path d="M62 198.99H64V197.028L62.0385 196.991L62 198.99ZM63.2104 97.0004L63.2024 99.0004L65.6433 99.0102L65.173 96.615L63.2104 97.0004ZM188.948 68.2963L187.011 68.7973L187.775 71.7489L190.178 69.8728L188.948 68.2963ZM259.895 99.9392L257.9 100.076L258.081 102.708L260.566 101.823L259.895 99.9392ZM62 199H60V201H62V199ZM62.0385 196.991C35.4207 196.479 14 174.741 14 148H10C10 176.924 33.1693 200.436 61.9615 200.99L62.0385 196.991ZM14 148C14 120.938 35.938 99 63 99V95C33.7289 95 10 118.729 10 148H14ZM63 99C63.0674 99 63.1349 99.0001 63.2024 99.0004L63.2185 95.0004C63.1458 95.0002 63.0729 95 63 95V99ZM65.173 96.615C64.4036 92.6972 64 88.6467 64 84.5H60C60 88.9069 60.4289 93.2155 61.2479 97.3858L65.173 96.615ZM64 84.5C64 49.9822 91.9822 22 126.5 22V18C89.7731 18 60 47.7731 60 84.5H64ZM126.5 22C155.592 22 180.047 41.8789 187.011 68.7973L190.884 67.7954C183.474 39.1551 157.46 18 126.5 18V22ZM190.178 69.8728C197.302 64.3122 206.261 61 216 61V57C205.338 57 195.518 60.6298 187.717 66.7198L190.178 69.8728ZM216 61C238.213 61 256.4 78.2453 257.9 100.076L261.89 99.8021C260.247 75.8879 240.33 57 216 57V61ZM260.566 101.823C265.7 99.9959 271.232 99 277 99V95C270.768 95 264.784 96.0764 259.225 98.055L260.566 101.823ZM277 99C304.062 99 326 120.938 326 148H330C330 118.729 306.271 95 277 95V99ZM326 148C326 175.062 304.062 197 277 197V201C306.271 201 330 177.271 330 148H326ZM277 197H63V201H277V197ZM63 197H62V201H63V197ZM64 199V198.99H60V199H64Z" fill="white"/>
<path d="M14 147H10V149H14V147ZM64 99V95H62V99H64ZM64 83.5H60V85.5H64V83.5ZM127.5 22V18H125.5V22H127.5ZM217 61V57H215V61H217ZM278 99V95H276V99H278ZM326 149H330V147H326V149ZM276 197V201H278V197H276ZM62 197V201H64V197H62ZM62 198.99L60.0004 198.951L59.9611 200.99H62V198.99ZM64 197.028H66V195.065L64.0377 195.028L64 197.028ZM63.2104 97.0004L62.825 95.0379L61.217 95.3537L61.2104 96.9924L63.2104 97.0004ZM63.2024 99.0004L63.1935 101L63.1944 101L63.2024 99.0004ZM65.6433 99.0102L65.6353 101.01L68.0761 101.02L67.6058 98.6249L65.6433 99.0102ZM65.173 96.615L67.1355 96.2296L67.1355 96.2296L65.173 96.615ZM188.948 68.2963L190.525 67.066L189.718 66.0314L188.447 66.36L188.948 68.2963ZM187.011 68.7973L185.075 69.2982L185.075 69.2985L187.011 68.7973ZM187.775 71.7489L185.839 72.2501L186.603 75.2015L189.006 73.3253L187.775 71.7489ZM259.895 99.9392L261.779 99.2681L261.27 97.8402L259.758 97.9439L259.895 99.9392ZM257.9 100.076L255.905 100.213L255.905 100.213L257.9 100.076ZM258.081 102.708L256.086 102.845L256.267 105.477L258.752 104.592L258.081 102.708ZM62 199H64V197H62V199ZM60 201H58V203H60V201ZM61.9615 200.99L61.923 202.99L63.9226 203.028L63.9611 201.029L61.9615 200.99ZM63.2185 95.0004L65.2185 95.0084L65.2265 93.0059L63.224 93.0004L63.2185 95.0004ZM61.2479 97.3858L59.2854 97.7712L59.6708 99.7337L61.6333 99.3483L61.2479 97.3858ZM190.884 67.7954L191.385 69.7317L193.321 69.2308L192.82 67.2944L190.884 67.7954ZM187.717 66.7198L186.486 65.1433L184.91 66.3739L186.14 67.9504L187.717 66.7198ZM261.89 99.8021L262.027 101.797L264.022 101.66L263.885 99.665L261.89 99.8021ZM259.225 98.055L258.554 96.1708L256.67 96.8414L257.341 98.7256L259.225 98.055ZM62 197V195H60V197H62ZM64 199V201H66V199H64ZM60 198.99V196.99H58V198.99H60ZM62 200.99H64V196.99H62V200.99ZM66 198.99V197.028H62V198.99H66ZM64.0377 195.028L62.0762 194.991L62.0008 198.991L63.9623 199.028L64.0377 195.028ZM60.0389 196.952L60.0004 198.951L63.9996 199.029L64.0381 197.03L60.0389 196.952ZM61.2104 96.9924L61.2024 98.9924L65.2024 99.0084L65.2104 97.0084L61.2104 96.9924ZM63.1944 101L65.6353 101.01L65.6513 97.0102L63.2104 97.0004L63.1944 101ZM67.6058 98.6249L67.1355 96.2296L63.2105 97.0003L63.6808 99.3955L67.6058 98.6249ZM64.7876 94.6525L62.825 95.0379L63.5958 98.9629L65.5584 98.5775L64.7876 94.6525ZM188.447 66.36L186.51 66.861L187.512 70.7336L189.449 70.2326L188.447 66.36ZM185.075 69.2985L185.839 72.2501L189.711 71.2477L188.947 68.2961L185.075 69.2985ZM189.006 73.3253L191.409 71.4492L188.947 68.2964L186.544 70.1725L189.006 73.3253ZM191.755 68.6425L190.525 67.066L187.371 69.5266L188.601 71.1031L191.755 68.6425ZM259.758 97.9439L257.763 98.0807L258.037 102.071L260.032 101.935L259.758 97.9439ZM255.905 100.213L256.086 102.845L260.076 102.571L259.895 99.9388L255.905 100.213ZM258.752 104.592L261.237 103.707L259.895 99.9389L257.41 100.824L258.752 104.592ZM262.45 101.152L261.779 99.2681L258.011 100.61L258.682 102.494L262.45 101.152ZM62 197H60V201H62V197ZM58 199V201H62V199H58ZM60 203H62V199H60V203ZM64 201V199H60V201H64ZM62.077 194.991C36.5465 194.5 16 173.649 16 148H12C12 175.833 34.295 198.458 62 198.991L62.077 194.991ZM8 148C8 178.016 32.0436 202.415 61.923 202.99L62 198.99C34.295 198.457 12 175.832 12 148H8ZM63.9611 201.029L64.0381 197.03L60.0389 196.952L59.9619 200.952L63.9611 201.029ZM16 148C16 122.043 37.0426 101 63 101V97C34.8334 97 12 119.833 12 148H16ZM63 93C32.6243 93 8 117.624 8 148H12C12 119.834 34.8335 97 63 97V93ZM63 101C63.0656 101 63.1299 101 63.1935 101L63.2113 97.0004C63.1399 97.0001 63.0692 97 63 97V101ZM65.2024 99.0084L65.2185 95.0084L61.2185 94.9923L61.2024 98.9923L65.2024 99.0084ZM63.224 93.0004C63.1517 93.0002 63.0761 93 63 93V97C63.0697 97 63.1399 97.0002 63.213 97.0004L63.224 93.0004ZM67.1355 96.2296C66.3909 92.4381 66 88.5166 66 84.5H62C62 88.7768 62.4163 92.9563 63.2105 97.0004L67.1355 96.2296ZM58 84.5C58 89.037 58.4416 93.4746 59.2854 97.7712L63.2104 97.0004C62.4162 92.9564 62 88.7768 62 84.5H58ZM61.6333 99.3483L65.5584 98.5775L64.7876 94.6525L60.8625 95.4233L61.6333 99.3483ZM66 84.5C66 51.0868 93.0868 24 126.5 24V20C90.8776 20 62 48.8776 62 84.5H66ZM126.5 16C88.6685 16 58 46.6685 58 84.5H62C62 48.8777 90.8777 20 126.5 20V16ZM126.5 24C154.658 24 178.334 43.2409 185.075 69.2982L188.947 68.2964C181.76 40.5169 156.526 20 126.5 20V24ZM187.512 70.7336L191.385 69.7317L190.383 65.8591L186.51 66.861L187.512 70.7336ZM192.82 67.2944C185.188 37.7933 158.394 16 126.5 16V20C156.526 20 181.76 40.5169 188.948 68.2964L192.82 67.2944ZM191.409 71.4494C198.194 66.1534 206.723 63 216 63V59C205.799 59 196.41 62.471 188.947 68.2962L191.409 71.4494ZM216 55C204.876 55 194.626 58.7886 186.486 65.1433L188.948 68.2963C196.41 62.471 205.8 59 216 59V55ZM186.14 67.9504L188.601 71.1034L191.755 68.6422L189.294 65.4892L186.14 67.9504ZM216 63C237.154 63 254.476 79.4241 255.905 100.213L259.895 99.9389C258.324 77.0665 239.272 59 216 59V63ZM258.037 102.071L262.027 101.797L261.753 97.8068L257.763 98.0807L258.037 102.071ZM263.885 99.665C262.171 74.7093 241.389 55 216 55V59C239.271 59 258.323 77.0665 259.895 99.9392L263.885 99.665ZM261.237 103.707C266.158 101.956 271.464 101 277 101V97C271 97 265.242 98.0361 259.895 99.9388L261.237 103.707ZM277 93C270.536 93 264.326 94.1167 258.554 96.1708L259.896 99.9392C265.242 98.0361 271 97 277 97V93ZM257.341 98.7256L258.682 102.494L262.45 101.152L261.109 97.3844L257.341 98.7256ZM277 101C302.957 101 324 122.043 324 148H328C328 119.833 305.167 97 277 97V101ZM332 148C332 117.624 307.376 93 277 93V97C305.166 97 328 119.834 328 148H332ZM324 148C324 173.957 302.957 195 277 195V199C305.167 199 328 176.167 328 148H324ZM277 203C307.376 203 332 178.376 332 148H328C328 176.166 305.166 199 277 199V203ZM277 195H63V199H277V195ZM63 203H277V199H63V203ZM63 195H62V199H63V195ZM60 197V201H64V197H60ZM62 203H63V199H62V203ZM66 199V198.99H62V199H66ZM64 196.99H60V200.99H64V196.99ZM58 198.99V199H62V198.99H58ZM60 201H64V197H60V201Z" fill="white" mask="url(#path-3-outside-1_369_57)"/>
</g>
<path d="M96.25 272.5C107.434 272.5 116.5 263.434 116.5 252.25C116.5 241.066 107.434 232 96.25 232C85.0662 232 76 241.066 76 252.25C76 263.434 85.0662 272.5 96.25 272.5Z" stroke="white" stroke-width="4"/>
<path d="M170.25 320.5C181.434 320.5 190.5 311.434 190.5 300.25C190.5 289.066 181.434 280 170.25 280C159.066 280 150 289.066 150 300.25C150 311.434 159.066 320.5 170.25 320.5Z" stroke="white" stroke-width="4"/>
<path d="M244.25 272.5C255.434 272.5 264.5 263.434 264.5 252.25C264.5 241.066 255.434 232 244.25 232C233.066 232 224 241.066 224 252.25C224 263.434 233.066 272.5 244.25 272.5Z" stroke="white" stroke-width="4"/>
<path d="M116.5 253H141.5V198.5" stroke="white" stroke-width="4"/>
<path d="M225 253H200V199" stroke="white" stroke-width="4"/>
</svg>
