<svg width="408" height="340" viewBox="0 0 408 340" fill="none" xmlns="http://www.w3.org/2000/svg">
<path d="M204.125 170L87.25 53.125" stroke="#7D8387" stroke-width="2" stroke-miterlimit="10" stroke-dasharray="4 4"/>
<path d="M321 286.875L204.125 170" stroke="#7D8387" stroke-width="2" stroke-miterlimit="10" stroke-dasharray="4 4"/>
<path d="M204.125 170L321 53.125" stroke="#7D8387" stroke-width="2" stroke-miterlimit="10" stroke-dasharray="4 4"/>
<path d="M87.25 286.875L204.125 170" stroke="#7D8387" stroke-width="2" stroke-miterlimit="10" stroke-dasharray="4 4"/>
<path d="M204.125 268.812C258.698 268.812 302.938 224.573 302.938 170C302.938 115.427 258.698 71.1875 204.125 71.1875C149.552 71.1875 105.312 115.427 105.312 170C105.312 224.573 149.552 268.812 204.125 268.812Z" stroke="white" stroke-width="4" stroke-miterlimit="10"/>
<path d="M159.5 170H55.375" stroke="white" stroke-width="4" stroke-miterlimit="10"/>
<path d="M352.875 170H248.75" stroke="white" stroke-width="4" stroke-miterlimit="10"/>
<path d="M204.125 125.375V21.25" stroke="white" stroke-width="4" stroke-miterlimit="10"/>
<path d="M204.125 318.75V214.625" stroke="white" stroke-width="4" stroke-miterlimit="10"/>
<path d="M204.125 191.25C215.861 191.25 225.375 181.736 225.375 170C225.375 158.264 215.861 148.75 204.125 148.75C192.389 148.75 182.875 158.264 182.875 170C182.875 181.736 192.389 191.25 204.125 191.25Z" fill="#42A6F8"/>
<path d="M335.875 54.25C344.712 54.25 351.875 47.0866 351.875 38.25C351.875 29.4134 344.712 22.25 335.875 22.25C327.038 22.25 319.875 29.4134 319.875 38.25C319.875 47.0866 327.038 54.25 335.875 54.25Z" stroke="white" stroke-width="4"/>
<path d="M72.375 54.25C81.2116 54.25 88.375 47.0866 88.375 38.25C88.375 29.4134 81.2116 22.25 72.375 22.25C63.5384 22.25 56.375 29.4134 56.375 38.25C56.375 47.0866 63.5384 54.25 72.375 54.25Z" stroke="white" stroke-width="4"/>
<path d="M335.875 317.75C344.712 317.75 351.875 310.587 351.875 301.75C351.875 292.913 344.712 285.75 335.875 285.75C327.038 285.75 319.875 292.913 319.875 301.75C319.875 310.587 327.038 317.75 335.875 317.75Z" stroke="white" stroke-width="4"/>
<path d="M72.375 317.75C81.2116 317.75 88.375 310.587 88.375 301.75C88.375 292.913 81.2116 285.75 72.375 285.75C63.5384 285.75 56.375 292.913 56.375 301.75C56.375 310.587 63.5384 317.75 72.375 317.75Z" stroke="white" stroke-width="4"/>
<path d="M390 186C398.837 186 406 178.837 406 170C406 161.163 398.837 154 390 154C381.163 154 374 161.163 374 170C374 178.837 381.163 186 390 186Z" stroke="white" stroke-width="4"/>
<path d="M18 186C26.8366 186 34 178.837 34 170C34 161.163 26.8366 154 18 154C9.16344 154 2 161.163 2 170C2 178.837 9.16344 186 18 186Z" stroke="white" stroke-width="4"/>
</svg>
