<svg width="328" height="262" viewBox="0 0 328 262" fill="none" xmlns="http://www.w3.org/2000/svg">
<path d="M21.25 261.5C32.986 261.5 42.5 251.986 42.5 240.25C42.5 228.514 32.986 219 21.25 219C9.51395 219 0 228.514 0 240.25C0 251.986 9.51395 261.5 21.25 261.5Z" fill="#42A6F8"/>
<path d="M305.25 42.5C316.434 42.5 325.5 33.4338 325.5 22.25C325.5 11.0662 316.434 2 305.25 2C294.066 2 285 11.0662 285 22.25C285 33.4338 294.066 42.5 305.25 42.5Z" stroke="white" stroke-width="4"/>
<path d="M228.25 186.5C239.434 186.5 248.5 177.434 248.5 166.25C248.5 155.066 239.434 146 228.25 146C217.066 146 208 155.066 208 166.25C208 177.434 217.066 186.5 228.25 186.5Z" stroke="white" stroke-width="4"/>
<rect x="15" y="11" width="257" height="196" rx="29" stroke="white" stroke-width="4"/>
<rect x="60" y="63" width="257" height="197" rx="29" stroke="white" stroke-width="4"/>
</svg>
